<svg width="49" height="49" viewBox="0 0 49 49" fill="none" xmlns="http://www.w3.org/2000/svg">
<path d="M45.0348 12.6458L39.0284 9.97393L36.3542 3.96522L29.8176 4.64786L24.4996 0.79126L19.1786 4.64786L12.645 3.96522L9.97275 9.97123L3.96404 12.6458L4.64706 19.1825L0.790466 24.5004L4.64706 29.8215L3.96404 36.355L9.97044 39.0269L12.645 45.0356L19.1817 44.353L24.4996 48.2096L29.8207 44.353L36.3542 45.0356L39.0261 39.0292L45.0348 36.355L44.3518 29.8184L48.2088 24.5004L44.3518 19.1794L45.0348 12.6458ZM19.7578 33.9841L13.0479 27.2742L15.2845 25.0457L19.7578 29.5108L33.1691 16.0996L35.4057 18.3358L19.7578 33.9841Z" fill="white"/>
<path d="M48.8492 24.036L45.1693 18.9596L45.8215 12.7252C45.857 12.3844 45.6695 12.0599 45.3565 11.9206L39.6287 9.37176L37.0799 3.64359C36.9398 3.3314 36.6157 3.14424 36.2753 3.1782L30.0397 3.82997L24.9637 0.150498C24.687 -0.0501659 24.3127 -0.0501659 24.036 0.150498L18.9596 3.82997L12.7244 3.1782C12.3844 3.14579 12.0614 3.33256 11.9198 3.64281L9.37099 9.37099L3.64281 11.9206C3.33024 12.0595 3.1427 12.384 3.1782 12.7244L3.82997 18.9596L0.150498 24.036C-0.0501659 24.3127 -0.0501659 24.687 0.150498 24.9637L3.82997 30.0397L3.1782 36.2753C3.14231 36.6157 3.32986 36.9406 3.64281 37.0799L9.37099 39.6287L11.9198 45.3569C12.0606 45.6679 12.384 45.8551 12.7244 45.8223L18.9596 45.1701L24.036 48.85C24.3127 49.0506 24.687 49.0506 24.9637 48.85L30.0397 45.1701L36.2753 45.8223C36.6157 45.8566 36.9394 45.6695 37.0799 45.3577L39.6287 39.6295L45.3565 37.0799C45.6691 36.9406 45.8566 36.6165 45.8215 36.2761L45.1693 30.0405L48.8492 24.9645C49.0503 24.6878 49.0503 24.3127 48.8492 24.036ZM43.7122 29.3571C43.5976 29.5149 43.5455 29.7094 43.566 29.9031L44.1888 35.8682L38.708 38.3082C38.5289 38.3869 38.3854 38.5297 38.3063 38.7088L35.8682 44.1896L29.9016 43.566C29.7078 43.5459 29.5137 43.5984 29.3563 43.713L24.4999 47.2331L19.6426 43.713C19.508 43.6146 19.3459 43.5617 19.1796 43.5621C19.1518 43.5621 19.124 43.5621 19.1005 43.566L13.1334 44.1896L10.6954 38.7088C10.6159 38.5297 10.4731 38.3865 10.294 38.307L4.81014 35.8682L5.43296 29.9031C5.45303 29.7094 5.40094 29.5149 5.28671 29.3571L1.76661 24.4999L5.28671 19.6426C5.40094 19.4848 5.45303 19.2903 5.43296 19.0966L4.81014 13.1311L10.2909 10.6915C10.47 10.6128 10.6132 10.47 10.6923 10.2909L13.1303 4.81014L19.0974 5.43374C19.2907 5.45303 19.4848 5.40055 19.6426 5.28671L24.4999 1.76661L29.3571 5.28671C29.5145 5.40094 29.7086 5.45303 29.9023 5.43374L35.869 4.81014L38.307 10.2909C38.3865 10.47 38.5297 10.6128 38.7088 10.6923L44.1896 13.1311L43.5667 19.0966C43.5463 19.2903 43.5984 19.4848 43.713 19.6426L47.2327 24.4999L43.7122 29.3571Z" fill="#FFBAB0"/>
<path d="M33.7283 15.5411C33.4195 15.2324 32.9194 15.2324 32.6107 15.5411L19.7582 28.3936L15.8437 24.4865C15.5354 24.1789 15.0361 24.1789 14.7277 24.4865L12.4873 26.7134C12.3387 26.8616 12.2549 27.063 12.2549 27.273C12.2549 27.4829 12.3387 27.6843 12.4873 27.8325L19.1971 34.5424C19.5055 34.8507 20.006 34.8507 20.3147 34.5424L35.9626 18.8941C36.2709 18.5858 36.2709 18.0853 35.9626 17.7766L33.7283 15.5411ZM19.7582 32.8669L14.1666 27.2753L15.2842 26.1604L19.2002 30.0684C19.5085 30.3763 20.0083 30.3763 20.317 30.0684L33.1695 17.217L34.2886 18.3361L19.7582 32.8669Z" fill="#FC6652"/>
</svg>
