<svg width="37" height="47" viewBox="0 0 37 47" fill="none" xmlns="http://www.w3.org/2000/svg">
<path d="M25.1668 0.360936C24.9527 0.135395 24.6591 0 24.3548 0H6.13662C2.77489 0 0 2.76385 0 6.12522V40.5759C0 43.9376 2.77489 46.7014 6.13662 46.7014H30.8634C34.2251 46.7014 37 43.9376 37 40.5759V13.2206C37 12.9274 36.8646 12.6456 36.6729 12.4311L25.1668 0.360936ZM25.4939 3.98205L33.1986 12.0701H28.19C26.701 12.0701 25.4939 10.8744 25.4939 9.3854V3.98205ZM30.8634 44.4453H6.13662C4.0273 44.4453 2.25611 42.6969 2.25611 40.5759V6.12522C2.25611 4.0159 4.0159 2.25611 6.13662 2.25611H23.2378V9.3854C23.2378 12.1264 25.449 14.3263 28.19 14.3263H34.7439V40.5759C34.7439 42.6969 32.9841 44.4453 30.8634 44.4453Z" fill="white"/>
<path d="M27.7841 36.6622H9.21642C8.5961 36.6622 8.08837 37.1695 8.08837 37.7902C8.08837 38.4106 8.5961 38.9183 9.21642 38.9183H27.7955C28.4158 38.9183 28.9236 38.4106 28.9236 37.7902C28.9236 37.1695 28.4158 36.6622 27.7841 36.6622Z" fill="white"/>
<path d="M17.6762 32.6125C17.8907 32.838 18.1839 32.9734 18.4996 32.9734C18.8157 32.9734 19.1089 32.838 19.323 32.6125L25.9335 25.517C26.3622 25.0656 26.3283 24.3437 25.8772 23.9265C25.4258 23.4979 24.7039 23.5313 24.2867 23.9828L19.6277 28.9799V16.6618C19.6277 16.0411 19.12 15.5338 18.4996 15.5338C17.8793 15.5338 17.3716 16.0411 17.3716 16.6618V28.9799L12.7239 23.9828C12.2953 23.5317 11.5845 23.4979 11.1334 23.9265C10.6823 24.3551 10.6485 25.0659 11.0771 25.517L17.6762 32.6125Z" fill="white"/>
</svg>
