<svg width="719" height="636" viewBox="0 0 719 636" fill="none" xmlns="http://www.w3.org/2000/svg">
<g opacity="0.2">
<path d="M484.497 35.7122L484.498 0.000147703L515.426 17.8554L515.426 154.757L484.497 172.61L484.497 35.7122Z" fill="url(#paint0_linear_3338_12)"/>
<path d="M484.499 -0.00012207L453.57 17.8552L453.57 154.757L484.499 172.61L484.499 -0.00012207Z" fill="url(#paint1_linear_3338_12)"/>
<rect width="35.7127" height="35.7127" transform="matrix(0.866044 -0.499967 0.866044 0.499967 453.567 17.8552)" fill="#E6E6E6"/>
</g>
<path opacity="0.5" d="M110.926 138.121L87.6958 124.847L110.926 111.572L134.156 124.847M110.926 138.121L87.6958 151.396L110.926 164.67M110.926 138.121L134.156 151.396M110.926 138.121L134.156 124.847M134.156 151.396L110.926 164.67M134.156 151.396L157.387 138.121M134.156 151.396L157.387 164.67M110.926 164.67L87.6958 177.944L110.926 191.219M110.926 164.67L134.156 177.944M134.156 124.847L157.387 138.121M134.156 124.847L157.387 111.572L180.617 124.847M157.387 138.121L180.617 151.396M157.387 138.121L180.617 124.847M157.387 164.67L134.156 177.944M157.387 164.67L180.617 151.396M157.387 164.67L180.617 177.944M134.156 177.944L110.926 191.219M134.156 177.944L157.387 191.219M110.926 191.219L87.6958 204.493L110.926 217.767M110.926 191.219L134.156 204.493M134.156 204.493L110.926 217.767M134.156 204.493L157.387 191.219M134.156 204.493L157.387 217.767M110.926 217.767L87.6958 231.042L110.926 244.316M110.926 217.767L134.156 231.042M157.387 191.219L180.617 177.944M157.387 191.219L180.617 204.493M157.387 217.767L134.156 231.042M157.387 217.767L180.617 204.493M157.387 217.767L180.617 231.042M134.156 231.042L110.926 244.316M134.156 231.042L157.387 244.316M110.926 244.316L87.6958 257.59L110.926 270.865M110.926 244.316L134.156 257.59M134.156 257.59L110.926 270.865M134.156 257.59L157.387 244.316M134.156 257.59L157.387 270.865M110.926 270.865L87.6958 284.139L110.926 297.414M110.926 270.865L134.156 284.139M157.387 244.316L180.617 231.042M157.387 244.316L180.617 257.59M157.387 270.865L134.156 284.139M157.387 270.865L180.617 257.59M157.387 270.865L180.617 284.139M134.156 284.139L110.926 297.414M134.156 284.139L157.387 297.414M110.926 297.414L87.6958 310.689L110.926 323.963M110.926 297.414L134.156 310.689M134.156 310.689L110.926 323.963M134.156 310.689L157.387 297.414M134.156 310.689L157.387 323.963M110.926 323.963L87.6958 337.238L110.926 350.512M110.926 323.963L134.156 337.238M157.387 297.414L180.617 284.139M157.387 297.414L180.617 310.689M157.387 323.963L134.156 337.238M157.387 323.963L180.617 310.689M157.387 323.963L180.617 337.238M134.156 337.238L110.926 350.512M134.156 337.238L157.387 350.512M110.926 350.512L87.6958 363.786L110.926 377.061M110.926 350.512L134.156 363.786M134.156 363.786L110.926 377.061M134.156 363.786L157.387 350.512M134.156 363.786L157.387 377.061M110.926 377.061L87.6958 390.335L110.926 403.61M110.926 377.061L134.156 390.335M157.387 350.512L180.617 337.238M157.387 350.512L180.617 363.786M157.387 377.061L134.156 390.335M157.387 377.061L180.617 363.786M157.387 377.061L180.617 390.335M134.156 390.335L110.926 403.61M134.156 390.335L157.387 403.609M110.926 403.61L87.6958 416.884L110.926 430.158M110.926 403.61L134.156 416.884M134.156 416.884L110.926 430.158M134.156 416.884L157.387 403.609M134.156 416.884L157.387 430.158M110.926 430.158L87.6958 443.433L110.926 456.707M110.926 430.158L134.156 443.433M157.387 403.609L180.617 390.335M157.387 403.609L180.617 416.884M157.387 430.158L134.156 443.433M157.387 430.158L180.617 416.884M157.387 430.158L180.617 443.433M134.156 443.433L110.926 456.707M134.156 443.433L157.387 456.708M110.926 456.707L87.6958 469.982L110.926 483.257M110.926 456.707L134.156 469.982M134.156 469.982L110.926 483.257M134.156 469.982L157.387 456.708M134.156 469.982L157.387 483.257M110.926 483.257L87.6958 496.531L110.926 509.806M110.926 483.257L134.156 496.531M157.387 456.708L180.617 443.433M157.387 456.708L180.617 469.982M157.387 483.257L134.156 496.531M157.387 483.257L180.617 469.982M157.387 483.257L180.617 496.531M134.156 496.531L110.926 509.806M134.156 496.531L157.387 509.805M110.926 509.806L87.6958 523.08L110.926 536.354M110.926 509.806L134.156 523.08M134.156 523.08L110.926 536.354M134.156 523.08L157.387 509.805M134.156 523.08L157.387 536.354M110.926 536.354L87.6958 549.628L110.926 562.903M110.926 536.354L134.156 549.628M157.387 509.805L180.617 496.531M157.387 509.805L180.617 523.08M157.387 536.354L134.156 549.628M157.387 536.354L180.617 523.08M157.387 536.354L180.617 549.628M134.156 549.628L110.926 562.903M134.156 549.628L157.387 562.903M110.926 562.903L87.6958 576.177L110.926 589.451M110.926 562.903L134.156 576.177M134.156 576.177L110.926 589.451M134.156 576.177L157.387 562.903M134.156 576.177L157.387 589.451M110.926 589.451L87.6958 602.726L110.926 616L134.156 602.726M110.926 589.451L134.156 602.726M157.387 562.903L180.617 549.628M157.387 562.903L180.617 576.177M157.387 589.451L134.156 602.726M157.387 589.451L180.617 576.177M157.387 589.451L180.617 602.726M134.156 602.726L157.387 616L180.617 602.726M180.617 151.396L203.847 138.121M180.617 151.396L203.847 164.67M180.617 124.847L203.847 138.121M180.617 124.847L203.847 111.572L227.077 124.847M203.847 138.121L227.077 151.396M203.847 138.121L227.077 124.847M227.077 151.396L203.847 164.67M227.077 151.396L250.308 138.121M227.077 151.396L250.308 164.67M203.847 164.67L180.617 177.944M203.847 164.67L227.077 177.944M180.617 177.944L203.847 191.219M227.077 124.847L250.308 138.121M227.077 124.847L250.308 111.572L273.538 124.847M250.308 138.121L273.538 151.396M250.308 138.121L273.538 124.847M250.308 164.67L227.077 177.944M250.308 164.67L273.538 151.396M250.308 164.67L273.538 177.944M227.077 177.944L203.847 191.219M227.077 177.944L250.308 191.219M203.847 191.219L180.617 204.493M203.847 191.219L227.077 204.493M180.617 204.493L203.847 217.767M227.077 204.493L203.847 217.767M227.077 204.493L250.308 191.219M227.077 204.493L250.308 217.767M203.847 217.767L180.617 231.042M203.847 217.767L227.077 231.042M180.617 231.042L203.847 244.316M250.308 191.219L273.538 177.944M250.308 191.219L273.538 204.493M250.308 217.767L227.077 231.042M250.308 217.767L273.538 204.493M250.308 217.767L273.538 231.042M227.077 231.042L203.847 244.316M227.077 231.042L250.308 244.316M203.847 244.316L180.617 257.59M203.847 244.316L227.077 257.59M180.617 257.59L203.847 270.865M227.077 257.59L203.847 270.865M227.077 257.59L250.308 244.316M227.077 257.59L250.308 270.865M203.847 270.865L180.617 284.139M203.847 270.865L227.077 284.139M180.617 284.139L203.847 297.414M250.308 244.316L273.538 231.042M250.308 244.316L273.538 257.59M250.308 270.865L227.077 284.139M250.308 270.865L273.538 257.59M250.308 270.865L273.538 284.139M227.077 284.139L203.847 297.414M227.077 284.139L250.308 297.414M203.847 297.414L180.617 310.689M203.847 297.414L227.077 310.689M180.617 310.689L203.847 323.963M227.077 310.689L203.847 323.963M227.077 310.689L250.308 297.414M227.077 310.689L250.308 323.963M203.847 323.963L180.617 337.238M203.847 323.963L227.077 337.238M180.617 337.238L203.847 350.512M250.308 297.414L273.538 284.139M250.308 297.414L273.538 310.689M250.308 323.963L227.077 337.238M250.308 323.963L273.538 310.689M250.308 323.963L273.538 337.238M227.077 337.238L203.847 350.512M227.077 337.238L250.308 350.512M203.847 350.512L180.617 363.786M203.847 350.512L227.077 363.786M180.617 363.786L203.847 377.061M227.077 363.786L203.847 377.061M227.077 363.786L250.308 350.512M227.077 363.786L250.308 377.061M203.847 377.061L180.617 390.335M203.847 377.061L227.077 390.335M180.617 390.335L203.847 403.61M250.308 350.512L273.538 337.238M250.308 350.512L273.538 363.786M250.308 377.061L227.077 390.335M250.308 377.061L273.538 363.786M250.308 377.061L273.538 390.335M227.077 390.335L203.847 403.61M227.077 390.335L250.308 403.609M203.847 403.61L180.617 416.884M203.847 403.61L227.077 416.884M180.617 416.884L203.847 430.158M227.077 416.884L203.847 430.158M227.077 416.884L250.308 403.609M227.077 416.884L250.308 430.158M203.847 430.158L180.617 443.433M203.847 430.158L227.077 443.433M180.617 443.433L203.847 456.707M250.308 403.609L273.538 390.335M250.308 403.609L273.538 416.884M250.308 430.158L227.077 443.433M250.308 430.158L273.538 416.884M250.308 430.158L273.538 443.433M227.077 443.433L203.847 456.707M227.077 443.433L250.308 456.708M203.847 456.707L180.617 469.982M203.847 456.707L227.077 469.982M180.617 469.982L203.847 483.257M227.077 469.982L203.847 483.257M227.077 469.982L250.308 456.708M227.077 469.982L250.308 483.257M203.847 483.257L180.617 496.531M203.847 483.257L227.077 496.531M180.617 496.531L203.847 509.806M250.308 456.708L273.538 443.433M250.308 456.708L273.538 469.982M250.308 483.257L227.077 496.531M250.308 483.257L273.538 469.982M250.308 483.257L273.538 496.531M227.077 496.531L203.847 509.806M227.077 496.531L250.308 509.805M203.847 509.806L180.617 523.08M203.847 509.806L227.077 523.08M180.617 523.08L203.847 536.354M227.077 523.08L203.847 536.354M227.077 523.08L250.308 509.805M227.077 523.08L250.308 536.354M203.847 536.354L180.617 549.628M203.847 536.354L227.077 549.628M180.617 549.628L203.847 562.903M250.308 509.805L273.538 496.531M250.308 509.805L273.538 523.08M250.308 536.354L227.077 549.628M250.308 536.354L273.538 523.08M250.308 536.354L273.538 549.628M227.077 549.628L203.847 562.903M227.077 549.628L250.308 562.903M203.847 562.903L180.617 576.177M203.847 562.903L227.077 576.177M180.617 576.177L203.847 589.451M227.077 576.177L203.847 589.451M227.077 576.177L250.308 562.903M227.077 576.177L250.308 589.451M203.847 589.451L180.617 602.726M203.847 589.451L227.077 602.726M180.617 602.726L203.847 616L227.077 602.726M250.308 562.903L273.538 549.628M250.308 562.903L273.538 576.177M250.308 589.451L227.077 602.726M250.308 589.451L273.538 576.177M250.308 589.451L273.538 602.726M227.077 602.726L250.308 616L273.538 602.726M273.538 151.396L296.768 138.121M273.538 151.396L296.768 164.67M273.538 124.847L296.768 138.121M273.538 124.847L296.768 111.572L319.998 124.847M296.768 138.121L319.998 151.396M296.768 138.121L319.998 124.847M319.998 151.396L296.768 164.67M319.998 151.396L343.229 138.121M319.998 151.396L343.229 164.67M296.768 164.67L273.538 177.944M296.768 164.67L319.998 177.944M273.538 177.944L296.768 191.219M319.998 124.847L343.229 138.121M319.998 124.847L343.229 111.572L366.459 124.847M343.229 138.121L366.459 151.396M343.229 138.121L366.459 124.847M343.229 164.67L319.998 177.944M343.229 164.67L366.459 151.396M343.229 164.67L366.459 177.944M319.998 177.944L296.768 191.219M319.998 177.944L343.229 191.219M296.768 191.219L273.538 204.493M296.768 191.219L319.998 204.493M273.538 204.493L296.768 217.767M319.998 204.493L296.768 217.767M319.998 204.493L343.229 191.219M319.998 204.493L343.229 217.767M296.768 217.767L273.538 231.042M296.768 217.767L319.998 231.042M273.538 231.042L296.768 244.316M343.229 191.219L366.459 177.944M343.229 191.219L366.459 204.493M343.229 217.767L319.998 231.042M343.229 217.767L366.459 204.493M343.229 217.767L366.459 231.042M319.998 231.042L296.768 244.316M319.998 231.042L343.229 244.316M296.768 244.316L273.538 257.59M296.768 244.316L319.998 257.59M273.538 257.59L296.768 270.865M319.998 257.59L296.768 270.865M319.998 257.59L343.229 244.316M319.998 257.59L343.229 270.865M296.768 270.865L273.538 284.139M296.768 270.865L319.998 284.139M273.538 284.139L296.768 297.414M343.229 244.316L366.459 231.042M343.229 244.316L366.459 257.59M343.229 270.865L319.998 284.139M343.229 270.865L366.459 257.59M343.229 270.865L366.459 284.139M319.998 284.139L296.768 297.414M319.998 284.139L343.229 297.414M296.768 297.414L273.538 310.689M296.768 297.414L319.998 310.689M273.538 310.689L296.768 323.963M319.998 310.689L296.768 323.963M319.998 310.689L343.229 297.414M319.998 310.689L343.229 323.963M296.768 323.963L273.538 337.238M296.768 323.963L319.998 337.238M273.538 337.238L296.768 350.512M343.229 297.414L366.459 284.139M343.229 297.414L366.459 310.689M343.229 323.963L319.998 337.238M343.229 323.963L366.459 310.689M343.229 323.963L366.459 337.238M319.998 337.238L296.768 350.512M319.998 337.238L343.229 350.512M296.768 350.512L273.538 363.786M296.768 350.512L319.998 363.786M273.538 363.786L296.768 377.061M319.998 363.786L296.768 377.061M319.998 363.786L343.229 350.512M319.998 363.786L343.229 377.061M296.768 377.061L273.538 390.335M296.768 377.061L319.998 390.335M273.538 390.335L296.768 403.61M343.229 350.512L366.459 337.238M343.229 350.512L366.459 363.786M343.229 377.061L319.998 390.335M343.229 377.061L366.459 363.786M343.229 377.061L366.459 390.335M319.998 390.335L296.768 403.61M319.998 390.335L343.229 403.609M296.768 403.61L273.538 416.884M296.768 403.61L319.998 416.884M273.538 416.884L296.768 430.158M319.998 416.884L296.768 430.158M319.998 416.884L343.229 403.609M319.998 416.884L343.229 430.158M296.768 430.158L273.538 443.433M296.768 430.158L319.998 443.433M273.538 443.433L296.768 456.707M343.229 403.609L366.459 390.335M343.229 403.609L366.459 416.884M343.229 430.158L319.998 443.433M343.229 430.158L366.459 416.884M343.229 430.158L366.459 443.433M319.998 443.433L296.768 456.707M319.998 443.433L343.229 456.708M296.768 456.707L273.538 469.982M296.768 456.707L319.998 469.982M273.538 469.982L296.768 483.257M319.998 469.982L296.768 483.257M319.998 469.982L343.229 456.708M319.998 469.982L343.229 483.257M296.768 483.257L273.538 496.531M296.768 483.257L319.998 496.531M273.538 496.531L296.768 509.806M343.229 456.708L366.459 443.433M343.229 456.708L366.459 469.982M343.229 483.257L319.998 496.531M343.229 483.257L366.459 469.982M343.229 483.257L366.459 496.531M319.998 496.531L296.768 509.806M319.998 496.531L343.229 509.805M296.768 509.806L273.538 523.08M296.768 509.806L319.998 523.08M273.538 523.08L296.768 536.354M319.998 523.08L296.768 536.354M319.998 523.08L343.229 509.805M319.998 523.08L343.229 536.354M296.768 536.354L273.538 549.628M296.768 536.354L319.998 549.628M273.538 549.628L296.768 562.903M343.229 509.805L366.459 496.531M343.229 509.805L366.459 523.08M343.229 536.354L319.998 549.628M343.229 536.354L366.459 523.08M343.229 536.354L366.459 549.628M319.998 549.628L296.768 562.903M319.998 549.628L343.229 562.903M296.768 562.903L273.538 576.177M296.768 562.903L319.998 576.177M273.538 576.177L296.768 589.451M319.998 576.177L296.768 589.451M319.998 576.177L343.229 562.903M319.998 576.177L343.229 589.451M296.768 589.451L273.538 602.726M296.768 589.451L319.998 602.726M273.538 602.726L296.768 616L319.998 602.726M343.229 562.903L366.459 549.628M343.229 562.903L366.459 576.177M343.229 589.451L319.998 602.726M343.229 589.451L366.459 576.177M343.229 589.451L366.459 602.726M319.998 602.726L343.229 616L366.459 602.726M366.459 151.396L389.689 138.121M366.459 151.396L389.689 164.67M366.459 124.847L389.689 138.121M366.459 124.847L389.689 111.572L412.92 124.847M389.689 138.121L412.92 151.396M389.689 138.121L412.92 124.847M412.92 151.396L389.689 164.67M412.92 151.396L436.15 138.121M412.92 151.396L436.15 164.67M389.689 164.67L366.459 177.944M389.689 164.67L412.92 177.944M366.459 177.944L389.689 191.219M412.92 124.847L436.15 138.121M412.92 124.847L436.15 111.572L459.38 124.847M436.15 138.121L459.38 151.396M436.15 138.121L459.38 124.847M436.15 164.67L412.92 177.944M436.15 164.67L459.38 151.396M436.15 164.67L459.38 177.944M412.92 177.944L389.689 191.219M412.92 177.944L436.15 191.219M389.689 191.219L366.459 204.493M389.689 191.219L412.92 204.493M366.459 204.493L389.689 217.767M412.92 204.493L389.689 217.767M412.92 204.493L436.15 191.219M412.92 204.493L436.15 217.767M389.689 217.767L366.459 231.042M389.689 217.767L412.92 231.042M366.459 231.042L389.689 244.316M436.15 191.219L459.38 177.944M436.15 191.219L459.38 204.493M436.15 217.767L412.92 231.042M436.15 217.767L459.38 204.493M436.15 217.767L459.38 231.042M412.92 231.042L389.689 244.316M412.92 231.042L436.15 244.316M389.689 244.316L366.459 257.59M389.689 244.316L412.92 257.59M366.459 257.59L389.689 270.865M412.92 257.59L389.689 270.865M412.92 257.59L436.15 244.316M412.92 257.59L436.15 270.865M389.689 270.865L366.459 284.139M389.689 270.865L412.92 284.139M366.459 284.139L389.689 297.414M436.15 244.316L459.38 231.042M436.15 244.316L459.38 257.59M436.15 270.865L412.92 284.139M436.15 270.865L459.38 257.59M436.15 270.865L459.38 284.139M412.92 284.139L389.689 297.414M412.92 284.139L436.15 297.414M389.689 297.414L366.459 310.689M389.689 297.414L412.92 310.689M366.459 310.689L389.689 323.963M412.92 310.689L389.689 323.963M412.92 310.689L436.15 297.414M412.92 310.689L436.15 323.963M389.689 323.963L366.459 337.238M389.689 323.963L412.92 337.238M366.459 337.238L389.689 350.512M436.15 297.414L459.38 284.139M436.15 297.414L459.38 310.689M436.15 323.963L412.92 337.238M436.15 323.963L459.38 310.689M436.15 323.963L459.38 337.238M412.92 337.238L389.689 350.512M412.92 337.238L436.15 350.512M389.689 350.512L366.459 363.786M389.689 350.512L412.92 363.786M366.459 363.786L389.689 377.061M412.92 363.786L389.689 377.061M412.92 363.786L436.15 350.512M412.92 363.786L436.15 377.061M389.689 377.061L366.459 390.335M389.689 377.061L412.92 390.335M366.459 390.335L389.689 403.61M436.15 350.512L459.38 337.238M436.15 350.512L459.38 363.786M436.15 377.061L412.92 390.335M436.15 377.061L459.38 363.786M436.15 377.061L459.38 390.335M412.92 390.335L389.689 403.61M412.92 390.335L436.15 403.609M389.689 403.61L366.459 416.884M389.689 403.61L412.92 416.884M366.459 416.884L389.689 430.158M412.92 416.884L389.689 430.158M412.92 416.884L436.15 403.609M412.92 416.884L436.15 430.158M389.689 430.158L366.459 443.433M389.689 430.158L412.92 443.433M366.459 443.433L389.689 456.707M436.15 403.609L459.38 390.335M436.15 403.609L459.38 416.884M436.15 430.158L412.92 443.433M436.15 430.158L459.38 416.884M436.15 430.158L459.38 443.433M412.92 443.433L389.689 456.707M412.92 443.433L436.15 456.708M389.689 456.707L366.459 469.982M389.689 456.707L412.92 469.982M366.459 469.982L389.689 483.257M412.92 469.982L389.689 483.257M412.92 469.982L436.15 456.708M412.92 469.982L436.15 483.257M389.689 483.257L366.459 496.531M389.689 483.257L412.92 496.531M366.459 496.531L389.689 509.806M436.15 456.708L459.38 443.433M436.15 456.708L459.38 469.982M436.15 483.257L412.92 496.531M436.15 483.257L459.38 469.982M436.15 483.257L459.38 496.531M412.92 496.531L389.689 509.806M412.92 496.531L436.15 509.805M389.689 509.806L366.459 523.08M389.689 509.806L412.92 523.08M366.459 523.08L389.689 536.354M412.92 523.08L389.689 536.354M412.92 523.08L436.15 509.805M412.92 523.08L436.15 536.354M389.689 536.354L366.459 549.628M389.689 536.354L412.92 549.628M366.459 549.628L389.689 562.903M436.15 509.805L459.38 496.531M436.15 509.805L459.38 523.08M436.15 536.354L412.92 549.628M436.15 536.354L459.38 523.08M436.15 536.354L459.38 549.628M412.92 549.628L389.689 562.903M412.92 549.628L436.15 562.903M389.689 562.903L366.459 576.177M389.689 562.903L412.92 576.177M366.459 576.177L389.689 589.451M412.92 576.177L389.689 589.451M412.92 576.177L436.15 562.903M412.92 576.177L436.15 589.451M389.689 589.451L366.459 602.726M389.689 589.451L412.92 602.726M366.459 602.726L389.689 616L412.92 602.726M436.15 562.903L459.38 549.628M436.15 562.903L459.38 576.177M436.15 589.451L412.92 602.726M436.15 589.451L459.38 576.177M436.15 589.451L459.38 602.726M412.92 602.726L436.15 616L459.38 602.726M459.38 151.396L482.61 138.121M459.38 151.396L482.61 164.67M459.38 124.847L482.61 138.121M459.38 124.847L482.61 111.572L505.841 124.847M482.61 138.121L505.841 151.396M482.61 138.121L505.841 124.847M505.841 151.396L482.61 164.67M505.841 151.396L529.071 138.121L505.841 124.847M505.841 151.396L529.071 164.67L505.841 177.944M482.61 164.67L459.38 177.944M482.61 164.67L505.841 177.944M459.38 177.944L482.61 191.219M505.841 124.847L529.071 111.572M505.841 177.944L482.61 191.219M505.841 177.944L529.071 191.219L505.841 204.493M482.61 191.219L459.38 204.493M482.61 191.219L505.841 204.493M459.38 204.493L482.61 217.767M505.841 204.493L482.61 217.767M505.841 204.493L529.071 217.767L505.841 231.042M482.61 217.767L459.38 231.042M482.61 217.767L505.841 231.042M459.38 231.042L482.61 244.316M505.841 231.042L482.61 244.316M505.841 231.042L529.071 244.316L505.841 257.59M482.61 244.316L459.38 257.59M482.61 244.316L505.841 257.59M459.38 257.59L482.61 270.865M505.841 257.59L482.61 270.865M505.841 257.59L529.071 270.865L505.841 284.139M482.61 270.865L459.38 284.139M482.61 270.865L505.841 284.139M459.38 284.139L482.61 297.414M505.841 284.139L482.61 297.414M505.841 284.139L529.071 297.414L505.841 310.689M482.61 297.414L459.38 310.689M482.61 297.414L505.841 310.689M459.38 310.689L482.61 323.963M505.841 310.689L482.61 323.963M505.841 310.689L529.071 323.963L505.841 337.238M482.61 323.963L459.38 337.238M482.61 323.963L505.841 337.238M459.38 337.238L482.61 350.512M505.841 337.238L482.61 350.512M505.841 337.238L529.071 350.512L505.841 363.786M482.61 350.512L459.38 363.786M482.61 350.512L505.841 363.786M459.38 363.786L482.61 377.061M505.841 363.786L482.61 377.061M505.841 363.786L529.071 377.061L505.841 390.335M482.61 377.061L459.38 390.335M482.61 377.061L505.841 390.335M459.38 390.335L482.61 403.61M505.841 390.335L482.61 403.61M505.841 390.335L529.071 403.609L505.841 416.884M482.61 403.61L459.38 416.884M482.61 403.61L505.841 416.884M459.38 416.884L482.61 430.158M505.841 416.884L482.61 430.158M505.841 416.884L529.071 430.158L505.841 443.433M482.61 430.158L459.38 443.433M482.61 430.158L505.841 443.433M459.38 443.433L482.61 456.707M505.841 443.433L482.61 456.707M505.841 443.433L529.071 456.708L505.841 469.982M482.61 456.707L459.38 469.982M482.61 456.707L505.841 469.982M459.38 469.982L482.61 483.257M505.841 469.982L482.61 483.257M505.841 469.982L529.071 483.257L505.841 496.531M482.61 483.257L459.38 496.531M482.61 483.257L505.841 496.531M459.38 496.531L482.61 509.806M505.841 496.531L482.61 509.806M505.841 496.531L529.071 509.805L505.841 523.08M482.61 509.806L459.38 523.08M482.61 509.806L505.841 523.08M459.38 523.08L482.61 536.354M505.841 523.08L482.61 536.354M505.841 523.08L529.071 536.354L505.841 549.628M482.61 536.354L459.38 549.628M482.61 536.354L505.841 549.628M459.38 549.628L482.61 562.903M505.841 549.628L482.61 562.903M505.841 549.628L529.071 562.903L505.841 576.177M482.61 562.903L459.38 576.177M482.61 562.903L505.841 576.177M459.38 576.177L482.61 589.451M505.841 576.177L482.61 589.451M505.841 576.177L529.071 589.451L505.841 602.726M482.61 589.451L459.38 602.726M482.61 589.451L505.841 602.726M459.38 602.726L482.61 616L505.841 602.726M505.841 602.726L529.071 616" stroke="url(#paint2_radial_3338_12)" stroke-width="1.6593"/>
<rect x="2.03722" width="139.122" height="139.122" transform="matrix(0.866044 -0.499967 0.866044 0.499967 109.208 565.425)" stroke="url(#paint3_linear_3338_12)" stroke-width="2.35233"/>
<rect x="1.83417" width="125.255" height="125.255" transform="matrix(0.866044 -0.499967 0.866044 0.499967 121.859 565.323)" stroke="url(#paint4_linear_3338_12)" stroke-width="2.11787"/>
<path d="M457.6 372.369L504.87 400.396L295.885 520.001" stroke="url(#paint5_linear_3338_12)" stroke-width="2.78773"/>
<path d="M231.457 526.42V568.678L194.861 547.549V505.29L231.457 526.42Z" fill="#D1422F"/>
<path d="M268.056 505.289L231.46 526.419H231.457L194.862 505.289L231.457 484.16L268.056 505.289Z" fill="#FF998B"/>
<path d="M268.056 505.29V547.549L231.457 568.678V526.42H231.46L268.056 505.29Z" fill="#FC6652"/>
<path opacity="0.8" d="M231.457 526.419V612.838L156.619 569.628V483.209L231.457 526.419Z" fill="#B44B3D"/>
<path opacity="0.8" d="M306.299 483.21L231.461 526.419H231.455L156.617 483.21L231.455 440L306.299 483.21Z" fill="#C95748"/>
<g filter="url(#filter0_d_3338_12)">
<path id="suitable17" d="M306.299 462.079L231.461 505.288H231.455L156.617 462.079L231.455 418.869L306.299 462.079Z" fill="#F2EFEF"/>
</g>
<path id="suitable19" opacity="0.8" d="M306.301 483.209V569.628L231.457 612.838V526.419H231.463L306.301 483.209Z" fill="#F86D5B"/>
<path id="letter20" opacity="0.5" d="M177.984 206.138L252.606 249.217L252.606 279.347L177.984 322.42L177.984 206.138Z" fill="#C7C4C4"/>
<path id="letter21" opacity="0.5" d="M177.989 206.137L103.367 249.216V279.346L177.989 322.419L177.989 206.137Z" fill="#E1DEDE"/>
<rect id="letter22" opacity="0.5" width="86.1632" height="86.1632" transform="matrix(0.866044 -0.499967 0.866044 0.499967 103.359 249.216)" fill="#D9D9D9"/>
<g filter="url(#filter1_d_3338_12)">
<rect id="letter24" width="86.1632" height="86.1632" transform="matrix(0.866044 -0.499967 0.866044 0.499967 103.359 228.208)" fill="#F5F5F5"/>
</g>
<g filter="url(#filter2_d_3338_12)">
<path d="M305.456 162.118C305.456 154.42 311.697 148.18 319.395 148.18H523.984C531.683 148.18 537.923 154.42 537.923 162.118V223.825C537.923 231.523 531.683 237.764 523.984 237.764H434.526C430.821 237.764 427.358 239.604 425.285 242.675L421.69 247.999L418.094 242.675C416.021 239.604 412.558 237.764 408.853 237.764H319.395C311.697 237.764 305.456 231.523 305.456 223.825V162.118Z" fill="#494947" fill-opacity="0.5"/>
</g>
<path id="questions" d="M347.757 181.032C348.695 181.284 349.409 181.718 349.899 182.334C350.389 182.936 350.634 183.692 350.634 184.602C350.634 185.89 350.158 186.891 349.206 187.605C348.254 188.319 346.875 188.676 345.069 188.676H338.097V173.976H344.67C346.322 173.976 347.61 174.305 348.534 174.963C349.458 175.621 349.92 176.552 349.92 177.756C349.92 178.526 349.731 179.191 349.353 179.751C348.989 180.311 348.457 180.738 347.757 181.032ZM340.785 180.255H344.439C345.321 180.255 345.993 180.08 346.455 179.73C346.917 179.38 347.148 178.862 347.148 178.176C347.148 177.49 346.917 176.972 346.455 176.622C345.993 176.258 345.321 176.076 344.439 176.076H340.785V180.255ZM344.985 186.576C346.917 186.576 347.883 185.848 347.883 184.392C347.883 182.964 346.917 182.25 344.985 182.25H340.785V186.576H344.985ZM358.448 188.823C357.314 188.823 356.292 188.578 355.382 188.088C354.472 187.598 353.758 186.919 353.24 186.051C352.736 185.169 352.484 184.175 352.484 183.069C352.484 181.963 352.736 180.976 353.24 180.108C353.758 179.24 354.472 178.561 355.382 178.071C356.292 177.581 357.314 177.336 358.448 177.336C359.596 177.336 360.625 177.581 361.535 178.071C362.445 178.561 363.152 179.24 363.656 180.108C364.174 180.976 364.433 181.963 364.433 183.069C364.433 184.175 364.174 185.169 363.656 186.051C363.152 186.919 362.445 187.598 361.535 188.088C360.625 188.578 359.596 188.823 358.448 188.823ZM358.448 186.576C359.414 186.576 360.212 186.254 360.842 185.61C361.472 184.966 361.787 184.119 361.787 183.069C361.787 182.019 361.472 181.172 360.842 180.528C360.212 179.884 359.414 179.562 358.448 179.562C357.482 179.562 356.684 179.884 356.054 180.528C355.438 181.172 355.13 182.019 355.13 183.069C355.13 184.119 355.438 184.966 356.054 185.61C356.684 186.254 357.482 186.576 358.448 186.576ZM377.779 177.462V188.676H375.175V179.688H369.652V188.676H367.027V177.462H377.779ZM387.537 177.336C388.629 177.336 389.602 177.574 390.456 178.05C391.324 178.526 392.003 179.198 392.493 180.066C392.983 180.934 393.228 181.935 393.228 183.069C393.228 184.203 392.983 185.211 392.493 186.093C392.003 186.961 391.324 187.633 390.456 188.109C389.602 188.585 388.629 188.823 387.537 188.823C386.025 188.823 384.828 188.319 383.946 187.311V192.75H381.321V177.462H383.82V178.932C384.254 178.4 384.786 178.001 385.416 177.735C386.06 177.469 386.767 177.336 387.537 177.336ZM387.243 186.576C388.209 186.576 389 186.254 389.616 185.61C390.246 184.966 390.561 184.119 390.561 183.069C390.561 182.019 390.246 181.172 389.616 180.528C389 179.884 388.209 179.562 387.243 179.562C386.613 179.562 386.046 179.709 385.542 180.003C385.038 180.283 384.639 180.689 384.345 181.221C384.051 181.753 383.904 182.369 383.904 183.069C383.904 183.769 384.051 184.385 384.345 184.917C384.639 185.449 385.038 185.862 385.542 186.156C386.046 186.436 386.613 186.576 387.243 186.576ZM400.838 188.823C399.704 188.823 398.682 188.578 397.772 188.088C396.862 187.598 396.148 186.919 395.63 186.051C395.126 185.169 394.874 184.175 394.874 183.069C394.874 181.963 395.126 180.976 395.63 180.108C396.148 179.24 396.862 178.561 397.772 178.071C398.682 177.581 399.704 177.336 400.838 177.336C401.986 177.336 403.015 177.581 403.925 178.071C404.835 178.561 405.542 179.24 406.046 180.108C406.564 180.976 406.823 181.963 406.823 183.069C406.823 184.175 406.564 185.169 406.046 186.051C405.542 186.919 404.835 187.598 403.925 188.088C403.015 188.578 401.986 188.823 400.838 188.823ZM400.838 186.576C401.804 186.576 402.602 186.254 403.232 185.61C403.862 184.966 404.177 184.119 404.177 183.069C404.177 182.019 403.862 181.172 403.232 180.528C402.602 179.884 401.804 179.562 400.838 179.562C399.872 179.562 399.074 179.884 398.444 180.528C397.828 181.172 397.52 182.019 397.52 183.069C397.52 184.119 397.828 184.966 398.444 185.61C399.074 186.254 399.872 186.576 400.838 186.576ZM414.519 188.823C413.357 188.823 412.314 188.578 411.39 188.088C410.466 187.598 409.745 186.919 409.227 186.051C408.709 185.169 408.45 184.175 408.45 183.069C408.45 181.963 408.709 180.976 409.227 180.108C409.745 179.24 410.459 178.561 411.369 178.071C412.293 177.581 413.343 177.336 414.519 177.336C415.625 177.336 416.591 177.56 417.417 178.008C418.257 178.456 418.887 179.1 419.307 179.94L417.291 181.116C416.969 180.598 416.563 180.213 416.073 179.961C415.597 179.695 415.072 179.562 414.498 179.562C413.518 179.562 412.706 179.884 412.062 180.528C411.418 181.158 411.096 182.005 411.096 183.069C411.096 184.133 411.411 184.987 412.041 185.631C412.685 186.261 413.504 186.576 414.498 186.576C415.072 186.576 415.597 186.45 416.073 186.198C416.563 185.932 416.969 185.54 417.291 185.022L419.307 186.198C418.873 187.038 418.236 187.689 417.396 188.151C416.57 188.599 415.611 188.823 414.519 188.823ZM427.078 181.158C428.506 181.158 429.598 181.48 430.354 182.124C431.11 182.768 431.488 183.678 431.488 184.854C431.488 186.086 431.068 187.038 430.228 187.71C429.402 188.382 428.226 188.711 426.7 188.697L421.618 188.676V177.462H424.243V181.137L427.078 181.158ZM432.937 177.462H435.562V188.676H432.937V177.462ZM426.469 186.765C427.239 186.779 427.827 186.618 428.233 186.282C428.639 185.946 428.842 185.456 428.842 184.812C428.842 184.182 428.646 183.72 428.254 183.426C427.862 183.132 427.267 182.978 426.469 182.964L424.243 182.943V186.744L426.469 186.765ZM453.778 179.688H449.851V188.676H447.226V179.688H443.278V177.462H453.778V179.688ZM465.69 183.132C465.69 183.314 465.676 183.573 465.648 183.909H456.849C457.003 184.735 457.402 185.393 458.046 185.883C458.704 186.359 459.516 186.597 460.482 186.597C461.714 186.597 462.729 186.191 463.527 185.379L464.934 186.996C464.43 187.598 463.793 188.053 463.023 188.361C462.253 188.669 461.385 188.823 460.419 188.823C459.187 188.823 458.102 188.578 457.164 188.088C456.226 187.598 455.498 186.919 454.98 186.051C454.476 185.169 454.224 184.175 454.224 183.069C454.224 181.977 454.469 180.997 454.959 180.129C455.463 179.247 456.156 178.561 457.038 178.071C457.92 177.581 458.914 177.336 460.02 177.336C461.112 177.336 462.085 177.581 462.939 178.071C463.807 178.547 464.479 179.226 464.955 180.108C465.445 180.976 465.69 181.984 465.69 183.132ZM460.02 179.436C459.18 179.436 458.466 179.688 457.878 180.192C457.304 180.682 456.954 181.34 456.828 182.166H463.191C463.079 181.354 462.736 180.696 462.162 180.192C461.588 179.688 460.874 179.436 460.02 179.436ZM473.664 188.823C472.502 188.823 471.459 188.578 470.535 188.088C469.611 187.598 468.89 186.919 468.372 186.051C467.854 185.169 467.595 184.175 467.595 183.069C467.595 181.963 467.854 180.976 468.372 180.108C468.89 179.24 469.604 178.561 470.514 178.071C471.438 177.581 472.488 177.336 473.664 177.336C474.77 177.336 475.736 177.56 476.562 178.008C477.402 178.456 478.032 179.1 478.452 179.94L476.436 181.116C476.114 180.598 475.708 180.213 475.218 179.961C474.742 179.695 474.217 179.562 473.643 179.562C472.663 179.562 471.851 179.884 471.207 180.528C470.563 181.158 470.241 182.005 470.241 183.069C470.241 184.133 470.556 184.987 471.186 185.631C471.83 186.261 472.649 186.576 473.643 186.576C474.217 186.576 474.742 186.45 475.218 186.198C475.708 185.932 476.114 185.54 476.436 185.022L478.452 186.198C478.018 187.038 477.381 187.689 476.541 188.151C475.715 188.599 474.756 188.823 473.664 188.823ZM489.543 179.688H485.616V188.676H482.991V179.688H479.043V177.462H489.543V179.688ZM495.626 177.336C497.278 177.336 498.538 177.735 499.406 178.533C500.288 179.317 500.729 180.507 500.729 182.103V188.676H498.251V187.311C497.929 187.801 497.467 188.179 496.865 188.445C496.277 188.697 495.563 188.823 494.723 188.823C493.883 188.823 493.148 188.683 492.518 188.403C491.888 188.109 491.398 187.71 491.048 187.206C490.712 186.688 490.544 186.107 490.544 185.463C490.544 184.455 490.915 183.65 491.657 183.048C492.413 182.432 493.596 182.124 495.206 182.124H498.104V181.956C498.104 181.172 497.866 180.57 497.39 180.15C496.928 179.73 496.235 179.52 495.311 179.52C494.681 179.52 494.058 179.618 493.442 179.814C492.84 180.01 492.329 180.283 491.909 180.633L490.88 178.722C491.468 178.274 492.175 177.931 493.001 177.693C493.827 177.455 494.702 177.336 495.626 177.336ZM495.269 186.912C495.927 186.912 496.508 186.765 497.012 186.471C497.53 186.163 497.894 185.729 498.104 185.169V183.867H495.395C493.883 183.867 493.127 184.364 493.127 185.358C493.127 185.834 493.316 186.212 493.694 186.492C494.072 186.772 494.597 186.912 495.269 186.912ZM320.423 203.462H323.048V210.854L329.243 203.462H331.637V214.676H329.012V207.284L322.838 214.676H320.423V203.462ZM345.633 210.182H343.596V214.676H340.971V203.462H343.596V207.998H345.696L349.014 203.462H351.828L347.754 208.859L352.101 214.676H349.014L345.633 210.182ZM364.117 203.462V214.676H361.492V205.688H357.292L357.187 207.914C357.117 209.398 356.977 210.644 356.767 211.652C356.571 212.646 356.228 213.437 355.738 214.025C355.262 214.599 354.604 214.886 353.764 214.886C353.372 214.886 352.889 214.809 352.315 214.655L352.441 212.45C352.637 212.492 352.805 212.513 352.945 212.513C353.477 212.513 353.876 212.303 354.142 211.883C354.408 211.449 354.576 210.938 354.646 210.35C354.73 209.748 354.8 208.894 354.856 207.788L355.045 203.462H364.117ZM377.9 203.336C379.02 203.336 380.021 203.581 380.903 204.071C381.785 204.547 382.478 205.226 382.982 206.108C383.486 206.976 383.738 207.963 383.738 209.069C383.738 210.175 383.486 211.169 382.982 212.051C382.478 212.919 381.785 213.598 380.903 214.088C380.021 214.578 379.02 214.823 377.9 214.823C376.92 214.823 376.024 214.634 375.212 214.256C374.4 213.864 373.728 213.318 373.196 212.618C372.664 211.904 372.321 211.092 372.167 210.182H370.277V214.676H367.652V203.462H370.277V207.809H372.209C372.377 206.927 372.727 206.15 373.259 205.478C373.791 204.792 374.456 204.267 375.254 203.903C376.052 203.525 376.934 203.336 377.9 203.336ZM377.9 212.597C378.516 212.597 379.069 212.457 379.559 212.177C380.049 211.883 380.434 211.47 380.714 210.938C380.994 210.392 381.134 209.769 381.134 209.069C381.134 208.005 380.826 207.158 380.21 206.528C379.608 205.884 378.838 205.562 377.9 205.562C376.962 205.562 376.192 205.884 375.59 206.528C374.988 207.158 374.687 208.005 374.687 209.069C374.687 210.133 374.988 210.987 375.59 211.631C376.206 212.275 376.976 212.597 377.9 212.597ZM395.827 203.462V214.676H393.202V210.329C392.124 210.847 390.997 211.106 389.821 211.106C388.379 211.106 387.273 210.777 386.503 210.119C385.733 209.447 385.348 208.425 385.348 207.053V203.462H387.973V206.885C387.973 207.599 388.183 208.131 388.603 208.481C389.023 208.831 389.618 209.006 390.388 209.006C391.368 209.006 392.306 208.796 393.202 208.376V203.462H395.827ZM409.857 209.132C409.857 209.314 409.843 209.573 409.815 209.909H401.016C401.17 210.735 401.569 211.393 402.213 211.883C402.871 212.359 403.683 212.597 404.649 212.597C405.881 212.597 406.896 212.191 407.694 211.379L409.101 212.996C408.597 213.598 407.96 214.053 407.19 214.361C406.42 214.669 405.552 214.823 404.586 214.823C403.354 214.823 402.269 214.578 401.331 214.088C400.393 213.598 399.665 212.919 399.147 212.051C398.643 211.169 398.391 210.175 398.391 209.069C398.391 207.977 398.636 206.997 399.126 206.129C399.63 205.247 400.323 204.561 401.205 204.071C402.087 203.581 403.081 203.336 404.187 203.336C405.279 203.336 406.252 203.581 407.106 204.071C407.974 204.547 408.646 205.226 409.122 206.108C409.612 206.976 409.857 207.984 409.857 209.132ZM404.187 205.436C403.347 205.436 402.633 205.688 402.045 206.192C401.471 206.682 401.121 207.34 400.995 208.166H407.358C407.246 207.354 406.903 206.696 406.329 206.192C405.755 205.688 405.041 205.436 404.187 205.436ZM420.855 208.838C422.241 209.258 422.934 210.154 422.934 211.526C422.934 212.534 422.556 213.311 421.8 213.857C421.044 214.403 419.924 214.676 418.44 214.676H412.728V203.462H418.209C419.581 203.462 420.652 203.714 421.422 204.218C422.192 204.722 422.577 205.436 422.577 206.36C422.577 206.934 422.423 207.431 422.115 207.851C421.821 208.271 421.401 208.6 420.855 208.838ZM415.227 208.145H417.978C419.336 208.145 420.015 207.676 420.015 206.738C420.015 205.828 419.336 205.373 417.978 205.373H415.227V208.145ZM418.23 212.765C419.672 212.765 420.393 212.296 420.393 211.358C420.393 210.868 420.225 210.504 419.889 210.266C419.553 210.014 419.028 209.888 418.314 209.888H415.227V212.765H418.23ZM431.19 207.158C432.618 207.158 433.71 207.48 434.466 208.124C435.222 208.768 435.6 209.678 435.6 210.854C435.6 212.086 435.18 213.038 434.34 213.71C433.514 214.382 432.338 214.711 430.812 214.697L425.73 214.676V203.462H428.355V207.137L431.19 207.158ZM437.049 203.462H439.674V214.676H437.049V203.462ZM430.581 212.765C431.351 212.779 431.939 212.618 432.345 212.282C432.751 211.946 432.954 211.456 432.954 210.812C432.954 210.182 432.758 209.72 432.366 209.426C431.974 209.132 431.379 208.978 430.581 208.964L428.355 208.943V212.744L430.581 212.765ZM453.703 209.132C453.703 209.314 453.689 209.573 453.661 209.909H444.862C445.016 210.735 445.415 211.393 446.059 211.883C446.717 212.359 447.529 212.597 448.495 212.597C449.727 212.597 450.742 212.191 451.54 211.379L452.947 212.996C452.443 213.598 451.806 214.053 451.036 214.361C450.266 214.669 449.398 214.823 448.432 214.823C447.2 214.823 446.115 214.578 445.177 214.088C444.239 213.598 443.511 212.919 442.993 212.051C442.489 211.169 442.237 210.175 442.237 209.069C442.237 207.977 442.482 206.997 442.972 206.129C443.476 205.247 444.169 204.561 445.051 204.071C445.933 203.581 446.927 203.336 448.033 203.336C449.125 203.336 450.098 203.581 450.952 204.071C451.82 204.547 452.492 205.226 452.968 206.108C453.458 206.976 453.703 207.984 453.703 209.132ZM448.033 205.436C447.193 205.436 446.479 205.688 445.891 206.192C445.317 206.682 444.967 207.34 444.841 208.166H451.204C451.092 207.354 450.749 206.696 450.175 206.192C449.601 205.688 448.887 205.436 448.033 205.436ZM467.481 214.823C466.319 214.823 465.276 214.578 464.352 214.088C463.428 213.598 462.707 212.919 462.189 212.051C461.671 211.169 461.412 210.175 461.412 209.069C461.412 207.963 461.671 206.976 462.189 206.108C462.707 205.24 463.421 204.561 464.331 204.071C465.255 203.581 466.305 203.336 467.481 203.336C468.587 203.336 469.553 203.56 470.379 204.008C471.219 204.456 471.849 205.1 472.269 205.94L470.253 207.116C469.931 206.598 469.525 206.213 469.035 205.961C468.559 205.695 468.034 205.562 467.46 205.562C466.48 205.562 465.668 205.884 465.024 206.528C464.38 207.158 464.058 208.005 464.058 209.069C464.058 210.133 464.373 210.987 465.003 211.631C465.647 212.261 466.466 212.576 467.46 212.576C468.034 212.576 468.559 212.45 469.035 212.198C469.525 211.932 469.931 211.54 470.253 211.022L472.269 212.198C471.835 213.038 471.198 213.689 470.358 214.151C469.532 214.599 468.573 214.823 467.481 214.823ZM484.498 203.462V214.676H481.873V205.688H477.673L477.568 207.914C477.498 209.398 477.358 210.644 477.148 211.652C476.952 212.646 476.609 213.437 476.119 214.025C475.643 214.599 474.985 214.886 474.145 214.886C473.753 214.886 473.27 214.809 472.696 214.655L472.822 212.45C473.018 212.492 473.186 212.513 473.326 212.513C473.858 212.513 474.257 212.303 474.523 211.883C474.789 211.449 474.957 210.938 475.027 210.35C475.111 209.748 475.181 208.894 475.237 207.788L475.426 203.462H484.498ZM493.031 214.823C491.897 214.823 490.875 214.578 489.965 214.088C489.055 213.598 488.341 212.919 487.823 212.051C487.319 211.169 487.067 210.175 487.067 209.069C487.067 207.963 487.319 206.976 487.823 206.108C488.341 205.24 489.055 204.561 489.965 204.071C490.875 203.581 491.897 203.336 493.031 203.336C494.179 203.336 495.208 203.581 496.118 204.071C497.028 204.561 497.735 205.24 498.239 206.108C498.757 206.976 499.016 207.963 499.016 209.069C499.016 210.175 498.757 211.169 498.239 212.051C497.735 212.919 497.028 213.598 496.118 214.088C495.208 214.578 494.179 214.823 493.031 214.823ZM493.031 212.576C493.997 212.576 494.795 212.254 495.425 211.61C496.055 210.966 496.37 210.119 496.37 209.069C496.37 208.019 496.055 207.172 495.425 206.528C494.795 205.884 493.997 205.562 493.031 205.562C492.065 205.562 491.267 205.884 490.637 206.528C490.021 207.172 489.713 208.019 489.713 209.069C489.713 210.119 490.021 210.966 490.637 211.61C491.267 212.254 492.065 212.576 493.031 212.576ZM509.736 208.838C511.122 209.258 511.815 210.154 511.815 211.526C511.815 212.534 511.437 213.311 510.681 213.857C509.925 214.403 508.805 214.676 507.321 214.676H501.609V203.462H507.09C508.462 203.462 509.533 203.714 510.303 204.218C511.073 204.722 511.458 205.436 511.458 206.36C511.458 206.934 511.304 207.431 510.996 207.851C510.702 208.271 510.282 208.6 509.736 208.838ZM504.108 208.145H506.859C508.217 208.145 508.896 207.676 508.896 206.738C508.896 205.828 508.217 205.373 506.859 205.373H504.108V208.145ZM507.111 212.765C508.553 212.765 509.274 212.296 509.274 211.358C509.274 210.868 509.106 210.504 508.77 210.266C508.434 210.014 507.909 209.888 507.195 209.888H504.108V212.765H507.111ZM518.79 203.336C520.442 203.336 521.702 203.735 522.57 204.533C523.452 205.317 523.893 206.507 523.893 208.103V214.676H521.415V213.311C521.093 213.801 520.631 214.179 520.029 214.445C519.441 214.697 518.727 214.823 517.887 214.823C517.047 214.823 516.312 214.683 515.682 214.403C515.052 214.109 514.562 213.71 514.212 213.206C513.876 212.688 513.708 212.107 513.708 211.463C513.708 210.455 514.079 209.65 514.821 209.048C515.577 208.432 516.76 208.124 518.37 208.124H521.268V207.956C521.268 207.172 521.03 206.57 520.554 206.15C520.092 205.73 519.399 205.52 518.475 205.52C517.845 205.52 517.222 205.618 516.606 205.814C516.004 206.01 515.493 206.283 515.073 206.633L514.044 204.722C514.632 204.274 515.339 203.931 516.165 203.693C516.991 203.455 517.866 203.336 518.79 203.336ZM518.433 212.912C519.091 212.912 519.672 212.765 520.176 212.471C520.694 212.163 521.058 211.729 521.268 211.169V209.867H518.559C517.047 209.867 516.291 210.364 516.291 211.358C516.291 211.834 516.48 212.212 516.858 212.492C517.236 212.772 517.761 212.912 518.433 212.912Z" fill="white"/>
<g filter="url(#filter3_d_3338_12)">
<path d="M72.0869 89.9386C72.0869 82.2405 78.3275 76 86.0256 76H269.952C277.65 76 283.891 82.2405 283.891 89.9386V151.645C283.891 159.343 277.65 165.584 269.952 165.584H190.638C186.7 165.584 183.054 167.661 181.046 171.048L177.989 176.204L174.932 171.048C172.923 167.661 169.278 165.584 165.34 165.584H86.0256C78.3275 165.584 72.0869 159.343 72.0869 151.645V89.9386Z" fill="#494947" fill-opacity="0.5"/>
</g>
<path id="letter" d="M146.678 97.8537V112.554H143.99V100.164H136.367V112.554H133.679V97.8537H146.678ZM150.529 101.34H153.154V108.732L159.349 101.34H161.743V112.554H159.118V105.162L152.944 112.554H150.529V101.34ZM170.377 112.701C169.215 112.701 168.172 112.456 167.248 111.966C166.324 111.476 165.603 110.797 165.085 109.929C164.567 109.047 164.308 108.053 164.308 106.947C164.308 105.841 164.567 104.854 165.085 103.986C165.603 103.118 166.317 102.439 167.227 101.949C168.151 101.459 169.201 101.214 170.377 101.214C171.483 101.214 172.449 101.438 173.275 101.886C174.115 102.334 174.745 102.978 175.165 103.818L173.149 104.994C172.827 104.476 172.421 104.091 171.931 103.839C171.455 103.573 170.93 103.44 170.356 103.44C169.376 103.44 168.564 103.762 167.92 104.406C167.276 105.036 166.954 105.883 166.954 106.947C166.954 108.011 167.269 108.865 167.899 109.509C168.543 110.139 169.362 110.454 170.356 110.454C170.93 110.454 171.455 110.328 171.931 110.076C172.421 109.81 172.827 109.418 173.149 108.9L175.165 110.076C174.731 110.916 174.094 111.567 173.254 112.029C172.428 112.477 171.469 112.701 170.377 112.701ZM183.104 105.036C184.532 105.036 185.624 105.358 186.38 106.002C187.15 106.646 187.535 107.556 187.535 108.732C187.535 109.964 187.115 110.916 186.275 111.588C185.435 112.26 184.252 112.589 182.726 112.575L177.476 112.554V101.34H180.101V105.015L183.104 105.036ZM182.495 110.643C183.265 110.657 183.853 110.496 184.259 110.16C184.665 109.824 184.868 109.334 184.868 108.69C184.868 108.06 184.672 107.598 184.28 107.304C183.888 107.01 183.293 106.856 182.495 106.842L180.101 106.821V110.622L182.495 110.643ZM200.868 112.554V105.12L197.088 111.378H195.954L192.237 105.099V112.554H189.843V101.34H192.594L196.584 108.354L200.763 101.34H203.22L203.241 112.554H200.868ZM211.76 112.701C210.626 112.701 209.604 112.456 208.694 111.966C207.784 111.476 207.07 110.797 206.552 109.929C206.048 109.047 205.796 108.053 205.796 106.947C205.796 105.841 206.048 104.854 206.552 103.986C207.07 103.118 207.784 102.439 208.694 101.949C209.604 101.459 210.626 101.214 211.76 101.214C212.908 101.214 213.937 101.459 214.847 101.949C215.757 102.439 216.464 103.118 216.968 103.986C217.486 104.854 217.745 105.841 217.745 106.947C217.745 108.053 217.486 109.047 216.968 109.929C216.464 110.797 215.757 111.476 214.847 111.966C213.937 112.456 212.908 112.701 211.76 112.701ZM211.76 110.454C212.726 110.454 213.524 110.132 214.154 109.488C214.784 108.844 215.099 107.997 215.099 106.947C215.099 105.897 214.784 105.05 214.154 104.406C213.524 103.762 212.726 103.44 211.76 103.44C210.794 103.44 209.996 103.762 209.366 104.406C208.75 105.05 208.442 105.897 208.442 106.947C208.442 107.997 208.75 108.844 209.366 109.488C209.996 110.132 210.794 110.454 211.76 110.454ZM92.6399 138.701C91.5059 138.701 90.4839 138.456 89.5739 137.966C88.6639 137.476 87.9499 136.797 87.4319 135.929C86.9279 135.047 86.6759 134.053 86.6759 132.947C86.6759 131.841 86.9279 130.854 87.4319 129.986C87.9499 129.118 88.6639 128.439 89.5739 127.949C90.4839 127.459 91.5059 127.214 92.6399 127.214C93.7879 127.214 94.8169 127.459 95.7269 127.949C96.6369 128.439 97.3439 129.118 97.8479 129.986C98.3659 130.854 98.6249 131.841 98.6249 132.947C98.6249 134.053 98.3659 135.047 97.8479 135.929C97.3439 136.797 96.6369 137.476 95.7269 137.966C94.8169 138.456 93.7879 138.701 92.6399 138.701ZM92.6399 136.454C93.6059 136.454 94.4039 136.132 95.0339 135.488C95.6639 134.844 95.9789 133.997 95.9789 132.947C95.9789 131.897 95.6639 131.05 95.0339 130.406C94.4039 129.762 93.6059 129.44 92.6399 129.44C91.6739 129.44 90.8759 129.762 90.2459 130.406C89.6299 131.05 89.3219 131.897 89.3219 132.947C89.3219 133.997 89.6299 134.844 90.2459 135.488C90.8759 136.132 91.6739 136.454 92.6399 136.454ZM109.691 129.566H105.764V138.554H103.139V129.566H99.1909V127.34H109.691V129.566ZM123.615 127.214C124.707 127.214 125.68 127.452 126.534 127.928C127.402 128.404 128.081 129.076 128.571 129.944C129.061 130.812 129.306 131.813 129.306 132.947C129.306 134.081 129.061 135.089 128.571 135.971C128.081 136.839 127.402 137.511 126.534 137.987C125.68 138.463 124.707 138.701 123.615 138.701C122.103 138.701 120.906 138.197 120.024 137.189V142.628H117.399V127.34H119.898V128.81C120.332 128.278 120.864 127.879 121.494 127.613C122.138 127.347 122.845 127.214 123.615 127.214ZM123.321 136.454C124.287 136.454 125.078 136.132 125.694 135.488C126.324 134.844 126.639 133.997 126.639 132.947C126.639 131.897 126.324 131.05 125.694 130.406C125.078 129.762 124.287 129.44 123.321 129.44C122.691 129.44 122.124 129.587 121.62 129.881C121.116 130.161 120.717 130.567 120.423 131.099C120.129 131.631 119.982 132.247 119.982 132.947C119.982 133.647 120.129 134.263 120.423 134.795C120.717 135.327 121.116 135.74 121.62 136.034C122.124 136.314 122.691 136.454 123.321 136.454ZM135.954 127.214C137.606 127.214 138.866 127.613 139.734 128.411C140.616 129.195 141.057 130.385 141.057 131.981V138.554H138.579V137.189C138.257 137.679 137.795 138.057 137.193 138.323C136.605 138.575 135.891 138.701 135.051 138.701C134.211 138.701 133.476 138.561 132.846 138.281C132.216 137.987 131.726 137.588 131.376 137.084C131.04 136.566 130.872 135.985 130.872 135.341C130.872 134.333 131.243 133.528 131.985 132.926C132.741 132.31 133.924 132.002 135.534 132.002H138.432V131.834C138.432 131.05 138.194 130.448 137.718 130.028C137.256 129.608 136.563 129.398 135.639 129.398C135.009 129.398 134.386 129.496 133.77 129.692C133.168 129.888 132.657 130.161 132.237 130.511L131.208 128.6C131.796 128.152 132.503 127.809 133.329 127.571C134.155 127.333 135.03 127.214 135.954 127.214ZM135.597 136.79C136.255 136.79 136.836 136.643 137.34 136.349C137.858 136.041 138.222 135.607 138.432 135.047V133.745H135.723C134.211 133.745 133.455 134.242 133.455 135.236C133.455 135.712 133.644 136.09 134.022 136.37C134.4 136.65 134.925 136.79 135.597 136.79ZM150.374 127.886C151.438 127.886 152.376 128.117 153.188 128.579C154 129.027 154.63 129.657 155.078 130.469C155.54 131.281 155.771 132.212 155.771 133.262C155.771 134.34 155.519 135.299 155.015 136.139C154.511 136.965 153.804 137.609 152.894 138.071C151.984 138.533 150.948 138.764 149.786 138.764C147.84 138.764 146.335 138.12 145.271 136.832C144.207 135.544 143.675 133.689 143.675 131.267C143.675 129.013 144.158 127.228 145.124 125.912C146.09 124.596 147.567 123.728 149.555 123.308L154.763 122.195L155.141 124.547L150.416 125.513C149.058 125.793 148.043 126.269 147.371 126.941C146.699 127.613 146.307 128.558 146.195 129.776C146.699 129.174 147.308 128.712 148.022 128.39C148.736 128.054 149.52 127.886 150.374 127.886ZM149.849 136.643C150.815 136.643 151.592 136.335 152.18 135.719C152.782 135.089 153.083 134.291 153.083 133.325C153.083 132.359 152.782 131.582 152.18 130.994C151.592 130.406 150.815 130.112 149.849 130.112C148.869 130.112 148.078 130.406 147.476 130.994C146.874 131.582 146.573 132.359 146.573 133.325C146.573 134.305 146.874 135.103 147.476 135.719C148.092 136.335 148.883 136.643 149.849 136.643ZM163.31 138.701C162.176 138.701 161.154 138.456 160.244 137.966C159.334 137.476 158.62 136.797 158.102 135.929C157.598 135.047 157.346 134.053 157.346 132.947C157.346 131.841 157.598 130.854 158.102 129.986C158.62 129.118 159.334 128.439 160.244 127.949C161.154 127.459 162.176 127.214 163.31 127.214C164.458 127.214 165.487 127.459 166.397 127.949C167.307 128.439 168.014 129.118 168.518 129.986C169.036 130.854 169.295 131.841 169.295 132.947C169.295 134.053 169.036 135.047 168.518 135.929C168.014 136.797 167.307 137.476 166.397 137.966C165.487 138.456 164.458 138.701 163.31 138.701ZM163.31 136.454C164.276 136.454 165.074 136.132 165.704 135.488C166.334 134.844 166.649 133.997 166.649 132.947C166.649 131.897 166.334 131.05 165.704 130.406C165.074 129.762 164.276 129.44 163.31 129.44C162.344 129.44 161.546 129.762 160.916 130.406C160.3 131.05 159.992 131.897 159.992 132.947C159.992 133.997 160.3 134.844 160.916 135.488C161.546 136.132 162.344 136.454 163.31 136.454ZM180.361 129.566H176.434V138.554H173.809V129.566H169.861V127.34H180.361V129.566ZM186.444 127.214C188.096 127.214 189.356 127.613 190.224 128.411C191.106 129.195 191.547 130.385 191.547 131.981V138.554H189.069V137.189C188.747 137.679 188.285 138.057 187.683 138.323C187.095 138.575 186.381 138.701 185.541 138.701C184.701 138.701 183.966 138.561 183.336 138.281C182.706 137.987 182.216 137.588 181.866 137.084C181.53 136.566 181.362 135.985 181.362 135.341C181.362 134.333 181.733 133.528 182.475 132.926C183.231 132.31 184.414 132.002 186.024 132.002H188.922V131.834C188.922 131.05 188.684 130.448 188.208 130.028C187.746 129.608 187.053 129.398 186.129 129.398C185.499 129.398 184.876 129.496 184.26 129.692C183.658 129.888 183.147 130.161 182.727 130.511L181.698 128.6C182.286 128.152 182.993 127.809 183.819 127.571C184.645 127.333 185.52 127.214 186.444 127.214ZM186.087 136.79C186.745 136.79 187.326 136.643 187.83 136.349C188.348 136.041 188.712 135.607 188.922 135.047V133.745H186.213C184.701 133.745 183.945 134.242 183.945 135.236C183.945 135.712 184.134 136.09 184.512 136.37C184.89 136.65 185.415 136.79 186.087 136.79ZM206.765 136.328V141.053H204.308V138.554H195.656V141.053H193.22V136.328H193.745C194.459 136.3 194.942 135.845 195.194 134.963C195.46 134.067 195.635 132.807 195.719 131.183L195.866 127.34H205.106V136.328H206.765ZM198.113 131.372C198.057 132.66 197.952 133.71 197.798 134.522C197.644 135.334 197.364 135.936 196.958 136.328H202.481V129.566H198.176L198.113 131.372ZM213.289 127.214C214.941 127.214 216.201 127.613 217.069 128.411C217.951 129.195 218.392 130.385 218.392 131.981V138.554H215.914V137.189C215.592 137.679 215.13 138.057 214.528 138.323C213.94 138.575 213.226 138.701 212.386 138.701C211.546 138.701 210.811 138.561 210.181 138.281C209.551 137.987 209.061 137.588 208.711 137.084C208.375 136.566 208.207 135.985 208.207 135.341C208.207 134.333 208.578 133.528 209.32 132.926C210.076 132.31 211.259 132.002 212.869 132.002H215.767V131.834C215.767 131.05 215.529 130.448 215.053 130.028C214.591 129.608 213.898 129.398 212.974 129.398C212.344 129.398 211.721 129.496 211.105 129.692C210.503 129.888 209.992 130.161 209.572 130.511L208.543 128.6C209.131 128.152 209.838 127.809 210.664 127.571C211.49 127.333 212.365 127.214 213.289 127.214ZM212.932 136.79C213.59 136.79 214.171 136.643 214.675 136.349C215.193 136.041 215.557 135.607 215.767 135.047V133.745H213.058C211.546 133.745 210.79 134.242 210.79 135.236C210.79 135.712 210.979 136.09 211.357 136.37C211.735 136.65 212.26 136.79 212.932 136.79ZM230.523 129.566H226.596V138.554H223.971V129.566H220.023V127.34H230.523V129.566ZM242.435 133.01C242.435 133.192 242.421 133.451 242.393 133.787H233.594C233.748 134.613 234.147 135.271 234.791 135.761C235.449 136.237 236.261 136.475 237.227 136.475C238.459 136.475 239.474 136.069 240.272 135.257L241.679 136.874C241.175 137.476 240.538 137.931 239.768 138.239C238.998 138.547 238.13 138.701 237.164 138.701C235.932 138.701 234.847 138.456 233.909 137.966C232.971 137.476 232.243 136.797 231.725 135.929C231.221 135.047 230.969 134.053 230.969 132.947C230.969 131.855 231.214 130.875 231.704 130.007C232.208 129.125 232.901 128.439 233.783 127.949C234.665 127.459 235.659 127.214 236.765 127.214C237.857 127.214 238.83 127.459 239.684 127.949C240.552 128.425 241.224 129.104 241.7 129.986C242.19 130.854 242.435 131.862 242.435 133.01ZM236.765 129.314C235.925 129.314 235.211 129.566 234.623 130.07C234.049 130.56 233.699 131.218 233.573 132.044H239.936C239.824 131.232 239.481 130.574 238.907 130.07C238.333 129.566 237.619 129.314 236.765 129.314ZM255.326 127.34V138.554H252.701V129.566H248.501L248.396 131.792C248.326 133.276 248.186 134.522 247.976 135.53C247.78 136.524 247.437 137.315 246.947 137.903C246.471 138.477 245.813 138.764 244.973 138.764C244.581 138.764 244.098 138.687 243.524 138.533L243.65 136.328C243.846 136.37 244.014 136.391 244.154 136.391C244.686 136.391 245.085 136.181 245.351 135.761C245.617 135.327 245.785 134.816 245.855 134.228C245.939 133.626 246.009 132.772 246.065 131.666L246.254 127.34H255.326ZM268.333 127.34V138.554H265.981V135.173H263.02L260.731 138.554H257.917L260.563 134.816C259.751 134.536 259.128 134.109 258.694 133.535C258.274 132.947 258.064 132.226 258.064 131.372C258.064 130.084 258.519 129.09 259.429 128.39C260.339 127.69 261.592 127.34 263.188 127.34H268.333ZM263.272 129.545C261.578 129.545 260.731 130.182 260.731 131.456C260.731 132.716 261.55 133.346 263.188 133.346H265.981V129.545H263.272Z" fill="white"/>
<path d="M200.886 307.404L239.216 329.436L317.32 284.686L361.689 310.303" stroke="url(#paint6_linear_3338_12)" stroke-linecap="round" stroke-linejoin="round"/>
<path opacity="0.5" d="M421.86 365.876V279.715L496.481 322.794V352.924L421.86 395.997V365.876Z" fill="#C7C4C4"/>
<path opacity="0.5" d="M421.865 279.714L347.243 322.793V352.923L421.865 395.997L421.865 279.714Z" fill="#E1DEDE"/>
<rect id="questions37" opacity="0.5" width="86.1632" height="86.1632" transform="matrix(0.866044 -0.499967 0.866044 0.499967 347.235 322.793)" fill="#E6E6E6"/>
<g filter="url(#filter4_d_3338_12)">
<rect id="questions39" width="86.1632" height="86.1632" transform="matrix(0.866044 -0.499967 0.866044 0.499967 347.235 301.606)" fill="#F6F6F6"/>
</g>
<g opacity="0.4">
<path d="M122.822 388.34L122.822 359L148.232 373.669L148.232 486.143L122.822 500.81L122.822 388.34Z" fill="url(#paint7_linear_3338_12)"/>
<path d="M122.824 359L97.4135 373.669L97.4135 486.143L122.824 500.81L122.824 359Z" fill="url(#paint8_linear_3338_12)"/>
<rect width="29.3403" height="29.3403" transform="matrix(0.866044 -0.499967 0.866044 0.499967 97.4109 373.669)" fill="#E6E6E6"/>
</g>
<g opacity="0.4">
<path d="M597.756 290.403L597.756 252.001L631.015 271.201L631.015 418.413L597.756 437.61L597.756 290.403Z" fill="url(#paint9_linear_3338_12)"/>
<path d="M597.759 252L564.5 271.2L564.5 418.412L597.759 437.61L597.759 252Z" fill="url(#paint10_linear_3338_12)"/>
<rect width="38.4023" height="38.4023" transform="matrix(0.866044 -0.499967 0.866044 0.499967 564.497 271.201)" fill="#E6E6E6"/>
</g>
<path id="suitable51" fill-rule="evenodd" clip-rule="evenodd" d="M258.926 470.824C261.524 467.63 263.006 463.944 263.006 460.019C263.006 447.827 248.71 437.943 231.075 437.943C213.44 437.943 199.145 447.827 199.145 460.019C199.145 472.21 213.44 482.094 231.075 482.094C234.459 482.094 237.719 481.73 240.779 481.056L227.225 471.686C219.521 470.475 213.77 465.711 213.77 460.019C213.77 453.411 221.518 448.054 231.075 448.054C240.633 448.054 248.381 453.411 248.381 460.019C248.381 461.094 248.176 462.135 247.791 463.127L258.926 470.824Z" fill="#FC6652"/>
<rect id="suitable52" width="34.7687" height="11.2882" rx="5.64409" transform="matrix(-0.822563 -0.568674 -0.822563 0.568674 264.703 479.793)" fill="#494947"/>
<rect x="1.366" width="59.4652" height="47.3598" rx="2.36592" transform="matrix(0.866044 -0.499967 0.866044 0.499967 367.763 302.144)" stroke="#FC6652" stroke-width="1.57728"/>
<line y1="-0.788641" x2="60.0123" y2="-0.788641" transform="matrix(0.866044 -0.499967 0.866044 0.499967 373.824 305.069)" stroke="#FC6652" stroke-width="1.57728"/>
<circle cx="1.28782" cy="1.28782" r="1.28782" transform="matrix(0.866044 -0.499967 0.866044 0.499967 372.485 300.947)" fill="#FFDCD8" stroke="#FC6652" stroke-width="0.417323"/>
<circle cx="1.28782" cy="1.28782" r="1.28782" transform="matrix(0.866044 -0.499967 0.866044 0.499967 375.608 299.144)" fill="#FFDCD8" stroke="#FC6652" stroke-width="0.417323"/>
<circle cx="1.28782" cy="1.28782" r="1.28782" transform="matrix(0.866044 -0.499967 0.866044 0.499967 378.732 297.341)" fill="#FFDCD8" stroke="#FC6652" stroke-width="0.417323"/>
<rect width="37.6043" height="1.80294" rx="0.901472" transform="matrix(0.866044 -0.499967 0.866044 0.499967 387.432 292.577)" fill="#FFDCD8" stroke="#FC6652" stroke-width="0.417323"/>
<mask id="path-42-inside-1_3338_12" fill="white">
<rect width="41.7253" height="29.6198" rx="0.630913" transform="matrix(0.866044 -0.499967 0.866044 0.499967 381.407 304.81)"/>
</mask>
<rect width="41.7253" height="29.6198" rx="0.630913" transform="matrix(0.866044 -0.499967 0.866044 0.499967 381.407 304.81)" stroke="#FC6652" stroke-width="3.15456" stroke-linejoin="round" stroke-dasharray="6.31 6.31" mask="url(#path-42-inside-1_3338_12)"/>
<g filter="url(#filter5_d_3338_12)">
<rect id="questions64" width="41.7253" height="29.6198" rx="3.15456" transform="matrix(0.866044 -0.499967 0.866044 0.499967 414.867 305.069)" fill="#FFDADA"/>
<rect x="1.366" width="40.148" height="28.0425" rx="2.36592" transform="matrix(0.866044 -0.499967 0.866044 0.499967 415.05 305.752)" stroke="#FC6652" stroke-width="1.57728"/>
</g>
<g filter="url(#filter6_d_3338_12)">
<path id="questions68" d="M461.792 300.802L476.641 299.021L472.889 302.236L473.909 306.068L461.792 300.802Z" fill="white"/>
<path d="M473.523 305.695L462.464 300.889L476.016 299.263L472.654 302.144L472.592 302.198L472.609 302.261L473.523 305.695Z" stroke="#FC6652" stroke-width="0.463272"/>
</g>
<path id="letter71" d="M179.558 205.386L138.178 229.274C135.748 230.677 135.746 232.965 138.178 234.369L167.595 251.351C170.019 252.751 173.981 252.759 176.42 251.351L217.799 227.463C220.223 226.063 220.238 223.776 217.799 222.368L188.383 205.386C185.959 203.986 181.997 203.978 179.558 205.386ZM181.89 207.436L181.89 230.513L141.743 230.612L181.89 207.436ZM169.927 249.301L141.715 233.014L169.927 232.944L169.927 249.301ZM174.087 249.301L174.087 232.934L183.979 232.909C185.124 232.906 186.05 232.369 186.05 231.708L186.05 226.116L214.249 226.116L174.087 249.301ZM214.249 223.715L186.05 223.715L186.05 207.436L214.249 223.715Z" fill="#FC6652"/>
<g filter="url(#filter7_d_3338_12)">
<circle id="letter73" cx="12.2472" cy="12.2472" r="12.2472" transform="matrix(0.866044 -0.499967 0.866044 0.499967 159.222 204.879)" fill="white"/>
</g>
<path id="letter75" d="M173.27 203.168L174.959 204.143L176.777 203.093L184.182 207.368L186.287 206.153L177.193 200.903L173.27 203.168Z" fill="#FC6652"/>
<path id="suitable" d="M342.77 513.696L357.875 522.416L354.401 524.422L342.145 517.346L335.326 521.283L347.582 528.358L344.108 530.364L329.004 521.644L342.77 513.696ZM366.97 517.365C365.747 518.071 364.395 518.561 362.914 518.835C361.432 519.092 359.965 519.117 358.512 518.909C357.059 518.702 355.757 518.266 354.606 517.601C353.455 516.937 352.7 516.185 352.341 515.347C351.981 514.508 352.031 513.665 352.492 512.818C352.952 511.954 353.793 511.169 355.016 510.464C356.239 509.758 357.591 509.276 359.073 509.019C360.54 508.753 362 508.724 363.453 508.931C364.906 509.139 366.208 509.575 367.359 510.239C368.509 510.904 369.265 511.655 369.624 512.494C369.984 513.333 369.941 514.18 369.495 515.035C369.034 515.882 368.193 516.659 366.97 517.365ZM364.208 515.77C365.071 515.272 365.489 514.699 365.46 514.051C365.431 513.387 364.928 512.772 363.949 512.208C362.971 511.643 361.914 511.356 360.777 511.348C359.641 511.323 358.641 511.56 357.778 512.058C356.915 512.556 356.498 513.138 356.527 513.802C356.541 514.458 357.037 515.068 358.015 515.633C358.994 516.198 360.058 516.489 361.209 516.505C362.345 516.513 363.345 516.268 364.208 515.77ZM385.559 503.245L390.824 506.285L387.695 508.091L385.192 506.646L377.036 511.354L379.539 512.799L376.41 514.606L371.145 511.566L371.62 511.292C372.325 510.869 372.397 510.337 371.836 509.698C371.275 509.058 370.26 508.273 368.793 507.343L364.931 504.939L375.051 499.097L383.898 504.204L385.559 503.245ZM372.073 505.724C373.209 506.43 374.08 507.04 374.684 507.555C375.302 508.062 375.619 508.535 375.633 508.975L380.531 506.148L374.447 502.635L370.649 504.827L372.073 505.724ZM397.733 499.406L391.626 498.821L392.554 502.396L388.886 504.514L387.505 498.559L377.428 497.725L381.204 495.545L387.052 496.08L386.188 492.667L389.77 490.599L391.13 496.367L401.552 497.201L397.733 499.406ZM408.461 493.412C407.238 494.118 405.886 494.608 404.404 494.882C402.923 495.139 401.455 495.164 400.002 494.957C398.55 494.749 397.248 494.313 396.097 493.649C394.946 492.984 394.191 492.233 393.831 491.394C393.472 490.555 393.522 489.712 393.982 488.865C394.443 488.002 395.284 487.217 396.507 486.511C397.73 485.805 399.082 485.324 400.563 485.066C402.031 484.8 403.491 484.771 404.944 484.979C406.397 485.186 407.698 485.622 408.849 486.287C410 486.951 410.755 487.703 411.115 488.542C411.475 489.38 411.431 490.227 410.985 491.083C410.525 491.93 409.684 492.706 408.461 493.412ZM405.699 491.818C406.562 491.319 406.979 490.746 406.95 490.099C406.922 489.434 406.418 488.82 405.44 488.255C404.462 487.69 403.404 487.404 402.268 487.395C401.132 487.371 400.132 487.607 399.269 488.106C398.406 488.604 397.988 489.185 398.017 489.849C398.032 490.506 398.528 491.116 399.506 491.681C400.484 492.245 401.549 492.536 402.7 492.553C403.836 492.561 404.836 492.316 405.699 491.818ZM427.05 479.293L432.315 482.332L429.186 484.138L426.683 482.693L418.526 487.402L421.03 488.847L417.901 490.653L412.636 487.614L413.111 487.34C413.815 486.916 413.887 486.385 413.326 485.745C412.765 485.106 411.751 484.321 410.284 483.391L406.421 480.987L416.541 475.144L425.388 480.252L427.05 479.293ZM413.564 481.771C414.7 482.477 415.57 483.088 416.175 483.603C416.793 484.109 417.11 484.583 417.124 485.023L422.022 482.195L415.937 478.682L412.14 480.875L413.564 481.771ZM430.635 467.008L442.244 473.71L439.245 475.441L435.922 473.523L433.44 474.955L434.562 478.144L430.981 480.212L429.837 476.488C428.715 476.77 427.643 476.865 426.622 476.774C425.6 476.666 424.665 476.367 423.817 475.877C422.45 475.088 421.889 474.2 422.134 473.212C422.378 472.207 423.364 471.206 425.09 470.209L430.635 467.008ZM427.895 471.754C427.176 472.169 426.758 472.56 426.643 472.925C426.543 473.282 426.78 473.627 427.355 473.959C427.931 474.291 428.528 474.436 429.146 474.395C429.765 474.337 430.434 474.1 431.153 473.685L433.678 472.227L430.376 470.322L427.895 471.754ZM451.586 454.913L463.194 461.615L445.479 471.842L433.87 465.14L437.215 463.21L446.062 468.317L449.924 466.087L441.077 460.98L444.422 459.049L453.269 464.156L457.088 461.951L448.241 456.844L451.586 454.913ZM462.051 459.086L467.122 462.014L463.993 463.82L461.684 462.487L459.764 463.596L457.002 462.001L462.051 459.086ZM454.816 453.049L458.16 451.118L465.065 455.104L463.814 447.854L466.899 446.073L478.508 452.774L475.164 454.705L468.259 450.719L469.532 457.957L466.425 459.75L454.816 453.049ZM470.135 444.205L473.48 442.274L480.385 446.26L479.133 439.01L482.219 437.229L493.827 443.931L490.483 445.861L483.578 441.875L484.851 449.113L481.744 450.906L470.135 444.205ZM474.71 440.119C472.178 441.58 469.79 441.672 467.546 440.393L469.747 439.122C470.265 439.405 470.797 439.554 471.344 439.571C471.89 439.571 472.422 439.421 472.94 439.122C473.458 438.823 473.717 438.516 473.717 438.201C473.717 437.868 473.465 437.557 472.962 437.266L475.206 435.971C477.421 437.266 477.256 438.649 474.71 440.119ZM387.999 534.834L393.264 537.874L390.135 539.68L387.632 538.235L379.476 542.944L381.979 544.389L378.85 546.195L373.585 543.156L374.06 542.882C374.764 542.458 374.836 541.927 374.275 541.287C373.714 540.648 372.7 539.863 371.233 538.933L367.371 536.529L377.49 530.686L386.337 535.794L387.999 534.834ZM374.513 537.313C375.649 538.019 376.519 538.63 377.124 539.145C377.742 539.651 378.059 540.124 378.073 540.565L382.971 537.737L376.886 534.224L373.089 536.416L374.513 537.313ZM392.404 522.077L404.013 528.778L400.647 530.722L391.8 525.614L388.132 527.732L390.074 528.978C391.541 529.891 392.663 530.705 393.44 531.419C394.217 532.133 394.634 532.806 394.692 533.437C394.749 534.068 394.318 534.65 393.397 535.181C392.908 535.463 392.239 535.75 391.39 536.041L388.801 534.347C389.06 534.23 389.24 534.143 389.34 534.085C389.844 533.794 390.038 533.475 389.923 533.126C389.808 532.76 389.513 532.391 389.038 532.017C388.549 531.635 387.859 531.162 386.967 530.597L382.479 527.807L392.404 522.077ZM405.955 514.254L417.564 520.955L414.565 522.687L411.242 520.768L408.761 522.201L409.883 525.39L406.301 527.458L405.157 523.733C404.035 524.016 402.963 524.111 401.942 524.02C400.921 523.912 399.986 523.613 399.137 523.123C397.77 522.334 397.209 521.445 397.454 520.457C397.698 519.452 398.684 518.451 400.41 517.455L405.955 514.254ZM403.215 519C402.496 519.415 402.079 519.805 401.964 520.171C401.863 520.528 402.1 520.872 402.676 521.204C403.251 521.537 403.848 521.682 404.467 521.64C405.085 521.582 405.754 521.346 406.473 520.93L408.998 519.473L405.696 517.567L403.215 519ZM429.715 506.94C431.542 506.417 433.146 506.554 434.527 507.351C435.577 507.957 435.994 508.655 435.779 509.444C435.563 510.232 434.671 511.08 433.103 511.985L426.91 515.56L415.301 508.858L421.235 505.432C422.688 504.594 424.091 504.091 425.443 503.925C426.781 503.751 427.924 503.938 428.874 504.486C429.449 504.818 429.809 505.2 429.953 505.632C430.097 506.047 430.017 506.483 429.715 506.94ZM423.156 509.83L425.702 508.36C426.881 507.679 427.054 507.098 426.22 506.616C425.4 506.143 424.4 506.246 423.22 506.927L420.674 508.397L423.156 509.83ZM430.535 510.826C431.772 510.112 431.967 509.51 431.118 509.02C430.672 508.763 430.204 508.659 429.715 508.709C429.212 508.75 428.651 508.949 428.032 509.307L425.141 510.976L427.709 512.458L430.535 510.826ZM433.061 498.406C434.859 497.368 436.672 496.82 438.499 496.762C440.311 496.695 442.081 497.16 443.807 498.157L450.431 501.981L447.281 503.8L445.835 502.965C446.281 503.953 445.641 504.946 443.915 505.942C443.023 506.457 442.095 506.818 441.131 507.026C440.182 507.225 439.269 507.271 438.391 507.163C437.514 507.055 436.737 506.806 436.061 506.416C434.982 505.793 434.536 505.07 434.723 504.248C434.924 503.418 435.874 502.513 437.571 501.533L440.247 499.988C439.513 499.564 438.729 499.369 437.895 499.403C437.046 499.427 436.176 499.697 435.284 500.212C434.665 500.569 434.155 500.98 433.752 501.445C433.349 501.894 433.104 502.334 433.018 502.766L429.458 502.106C429.645 501.483 430.055 500.848 430.688 500.2C431.335 499.544 432.126 498.946 433.061 498.406ZM442.491 504.149C443.066 503.816 443.447 503.447 443.634 503.04C443.807 502.625 443.728 502.214 443.397 501.807L442.21 501.122L439.901 502.454C438.52 503.252 438.283 503.912 439.189 504.435C439.621 504.684 440.132 504.788 440.721 504.746C441.311 504.688 441.901 504.489 442.491 504.149ZM459.052 497.204C457.815 497.918 456.448 498.416 454.952 498.699C453.456 498.964 451.975 498.997 450.507 498.798C449.054 498.591 447.752 498.155 446.602 497.49C445.451 496.826 444.696 496.074 444.336 495.236C443.991 494.388 444.056 493.537 444.53 492.682C445.005 491.81 445.861 491.017 447.098 490.303C448.321 489.597 449.644 489.132 451.068 488.907C452.492 488.667 453.888 488.7 455.254 489.007L454.046 491.324C452.377 491.058 450.975 491.254 449.838 491.91C448.961 492.416 448.522 493.002 448.522 493.666C448.522 494.33 449.018 494.949 450.011 495.522C451.004 496.095 452.075 496.382 453.226 496.382C454.377 496.382 455.391 496.128 456.268 495.622C457.419 494.957 457.757 494.148 457.283 493.193L461.318 492.508C461.821 493.28 461.871 494.081 461.469 494.912C461.08 495.734 460.275 496.498 459.052 497.204ZM472.948 483.9L471.2 484.909L475.602 487.45L472.236 489.393L460.627 482.692L463.993 480.748L468.503 483.352L470.316 482.305L468.956 477.883L472.538 475.815L474.048 481.371L484.427 482.355L480.457 484.647L472.948 483.9ZM485.449 468.362L492.526 478.502C493.332 479.582 493.612 480.508 493.368 481.28C493.137 482.044 492.468 482.746 491.361 483.385C490.757 483.734 490.066 484.025 489.289 484.257C488.513 484.49 487.772 484.618 487.067 484.643L485.902 482.55C486.391 482.534 486.865 482.467 487.326 482.351C487.8 482.227 488.203 482.069 488.534 481.878C488.994 481.612 489.253 481.33 489.311 481.031C489.383 480.74 489.275 480.379 488.987 479.947L488.923 479.86L472.2 476.011L475.674 474.005L486.808 476.671L482.212 470.231L485.449 468.362ZM493.74 463.376C494.819 462.753 496.049 462.334 497.43 462.118C498.811 461.886 500.206 461.886 501.616 462.118C503.011 462.342 504.306 462.799 505.5 463.488C506.694 464.178 507.492 464.929 507.895 465.743C508.283 466.549 508.283 467.354 507.895 468.16C507.506 468.949 506.773 469.654 505.694 470.277C504.212 471.133 502.58 471.535 500.796 471.486L506.212 474.612L502.846 476.556L487.051 467.437L490.266 465.581L491.604 466.353C491.431 465.29 492.143 464.298 493.74 463.376ZM502.349 469.019C503.213 468.521 503.63 467.948 503.601 467.3C503.572 466.636 503.069 466.021 502.09 465.457C501.112 464.892 500.055 464.605 498.919 464.597C497.782 464.572 496.782 464.809 495.919 465.307C495.056 465.805 494.639 466.387 494.668 467.051C494.697 467.699 495.2 468.305 496.178 468.87C497.156 469.434 498.214 469.729 499.35 469.754C500.487 469.762 501.486 469.517 502.349 469.019ZM519.36 462.388C518.123 463.102 516.756 463.6 515.26 463.883C513.764 464.149 512.282 464.182 510.815 463.982C509.362 463.775 508.06 463.339 506.91 462.674C505.759 462.01 505.004 461.259 504.644 460.42C504.299 459.573 504.363 458.722 504.838 457.866C505.313 456.994 506.169 456.201 507.406 455.487C508.629 454.781 509.952 454.316 511.376 454.092C512.8 453.851 514.196 453.884 515.562 454.191L514.354 456.508C512.685 456.243 511.283 456.438 510.146 457.094C509.269 457.6 508.83 458.186 508.83 458.85C508.83 459.515 509.326 460.133 510.319 460.706C511.311 461.279 512.383 461.566 513.534 461.566C514.685 461.566 515.699 461.313 516.576 460.806C517.727 460.142 518.065 459.332 517.59 458.377L521.625 457.692C522.129 458.464 522.179 459.265 521.777 460.096C521.388 460.918 520.583 461.682 519.36 462.388Z" fill="#C2C2C2"/>
<g filter="url(#filter8_i_3338_12)">
<path d="M430.923 424.291L430.269 417.12C430.256 416.967 430.353 416.821 430.539 416.714L434.461 414.449C434.719 414.3 435.105 414.253 435.446 414.327C435.787 414.404 436.02 414.588 436.038 414.798L436.649 421.49L448.24 421.842C448.605 421.853 448.925 421.987 449.055 422.184C449.185 422.381 449.103 422.604 448.845 422.753L444.923 425.018C444.737 425.125 444.482 425.18 444.22 425.174L431.798 424.796C431.326 424.782 430.946 424.563 430.923 424.291Z" fill="url(#paint11_linear_3338_12)"/>
<path d="M439.423 419.384L438.769 412.213C438.756 412.06 438.853 411.914 439.038 411.807L442.961 409.542C443.219 409.393 443.605 409.346 443.946 409.42C444.287 409.497 444.52 409.681 444.538 409.891L445.149 416.583L456.74 416.935C457.105 416.946 457.425 417.08 457.555 417.277C457.685 417.474 457.603 417.697 457.345 417.846L453.422 420.111C453.237 420.218 452.982 420.273 452.72 420.267L440.298 419.889C439.826 419.875 439.446 419.656 439.423 419.384Z" fill="url(#paint12_linear_3338_12)"/>
</g>
<g filter="url(#filter9_i_3338_12)">
<path d="M330.923 482.291L330.269 475.12C330.256 474.967 330.353 474.821 330.539 474.714L334.461 472.449C334.719 472.3 335.105 472.253 335.446 472.327C335.787 472.404 336.02 472.588 336.038 472.798L336.649 479.49L348.24 479.842C348.605 479.853 348.925 479.987 349.055 480.184C349.185 480.381 349.103 480.604 348.845 480.753L344.923 483.018C344.737 483.125 344.482 483.18 344.22 483.174L331.798 482.796C331.326 482.782 330.946 482.563 330.923 482.291Z" fill="url(#paint13_linear_3338_12)"/>
<path d="M339.423 477.384L338.769 470.213C338.756 470.06 338.853 469.914 339.038 469.807L342.961 467.542C343.219 467.393 343.605 467.346 343.946 467.42C344.287 467.497 344.52 467.681 344.538 467.891L345.149 474.583L356.74 474.935C357.105 474.946 357.425 475.08 357.555 475.277C357.685 475.474 357.603 475.697 357.345 475.846L353.422 478.111C353.237 478.218 352.982 478.273 352.72 478.267L340.298 477.889C339.826 477.875 339.446 477.656 339.423 477.384Z" fill="url(#paint14_linear_3338_12)"/>
</g>
<g filter="url(#filter10_i_3338_12)">
<path d="M223.975 335.257L211.187 335.646C210.915 335.653 210.654 335.596 210.462 335.485L206.424 333.154C206.159 333.001 206.074 332.772 206.207 332.569C206.343 332.366 206.672 332.228 207.046 332.217L218.979 331.854L219.607 324.966C219.627 324.749 219.865 324.558 220.216 324.482C220.569 324.404 220.966 324.453 221.231 324.606L225.27 326.937C225.461 327.048 225.559 327.199 225.548 327.355L224.875 334.737C224.85 335.018 224.459 335.243 223.975 335.257Z" fill="url(#paint15_linear_3338_12)"/>
<path d="M215.225 330.205L202.437 330.594C202.165 330.602 201.904 330.544 201.713 330.434L197.674 328.102C197.409 327.949 197.324 327.72 197.458 327.517C197.594 327.314 197.922 327.176 198.296 327.165L210.23 326.802L210.857 319.914C210.877 319.697 211.115 319.507 211.467 319.43C211.819 319.352 212.216 319.401 212.482 319.554L216.52 321.885C216.711 321.996 216.809 322.147 216.799 322.303L216.126 329.685C216.1 329.966 215.71 330.191 215.225 330.205Z" fill="url(#paint16_linear_3338_12)"/>
</g>
<path id="suitable89" fill-rule="evenodd" clip-rule="evenodd" d="M432.657 551.381C431.986 549.997 430.707 548.689 428.82 547.6C422.962 544.218 413.464 544.218 407.607 547.6C401.749 550.982 401.749 556.465 407.607 559.847C413.464 563.228 422.962 563.228 428.82 559.847C429.943 559.198 430.851 558.473 431.543 557.699L422.536 557.699C419.396 558.839 415.199 558.62 412.465 557.042C409.29 555.209 409.29 552.238 412.465 550.405C415.639 548.572 420.787 548.572 423.962 550.405C424.479 550.703 424.912 551.032 425.261 551.381H432.657Z" fill="#FC6652"/>
<rect id="suitable90" width="15.5131" height="5.03656" rx="2.51828" transform="matrix(-1.22477 0 0 0.707061 438.884 552.76)" fill="#C2C2C2"/>
<path id="suitable91" d="M444.948 542.085C443.693 542.809 442.33 543.438 440.859 543.971C439.388 544.487 438.033 544.828 436.792 544.995L434.715 541.897C435.855 541.723 437.001 541.452 438.155 541.086C439.295 540.711 440.275 540.286 441.097 539.812C441.804 539.404 442.244 539.075 442.417 538.825C442.576 538.567 442.518 538.359 442.244 538.201C441.927 538.017 441.487 537.997 440.924 538.138C440.376 538.271 439.554 538.546 438.458 538.962C437.045 539.495 435.812 539.907 434.759 540.199C433.691 540.482 432.552 540.607 431.341 540.574C430.115 540.532 428.954 540.195 427.858 539.562C426.906 539.012 426.307 538.359 426.062 537.601C425.817 536.843 425.997 536.032 426.603 535.166C427.223 534.292 428.29 533.417 429.805 532.543C430.843 531.944 431.975 531.423 433.201 530.982C434.427 530.524 435.638 530.199 436.836 530.008L438.999 533.03C436.763 533.455 434.982 534.05 433.655 534.816C432.343 535.574 432.004 536.136 432.639 536.502C432.941 536.677 433.367 536.698 433.915 536.565C434.449 536.423 435.249 536.144 436.316 535.728C437.686 535.187 438.912 534.77 439.994 534.479C441.061 534.179 442.201 534.046 443.412 534.079C444.638 534.104 445.799 534.433 446.895 535.066C447.847 535.615 448.446 536.269 448.691 537.027C448.922 537.776 448.734 538.592 448.128 539.474C447.523 540.34 446.462 541.21 444.948 542.085ZM459.491 533.539C458.178 534.297 456.736 534.83 455.164 535.138C453.592 535.429 452.049 535.479 450.535 535.288C449.006 535.088 447.65 534.647 446.467 533.964C445.285 533.281 444.528 532.503 444.196 531.628C443.85 530.746 443.936 529.855 444.455 528.956C444.989 528.048 445.912 527.216 447.225 526.458C448.551 525.692 449.994 525.159 451.551 524.859C453.123 524.551 454.667 524.501 456.181 524.71C457.695 524.901 459.044 525.338 460.226 526.021C461.409 526.704 462.173 527.486 462.52 528.369C462.866 529.235 462.779 530.126 462.26 531.042C461.741 531.941 460.818 532.773 459.491 533.539ZM455.683 531.341C456.246 531.017 456.505 530.634 456.462 530.192C456.404 529.743 456.008 529.306 455.272 528.881C454.537 528.456 453.787 528.231 453.022 528.206C452.258 528.182 451.595 528.331 451.032 528.656C450.47 528.981 450.21 529.364 450.253 529.805C450.297 530.246 450.686 530.679 451.421 531.104C452.157 531.529 452.914 531.758 453.693 531.791C454.457 531.816 455.121 531.666 455.683 531.341ZM451.632 519.293L456.521 516.47L472.573 525.737L467.684 528.559L451.632 519.293ZM475.844 510.186L487.677 517.017L483.026 519.703L481.901 519.053C481.916 519.561 481.75 520.048 481.404 520.514C481.043 520.972 480.538 521.389 479.889 521.763C478.389 522.629 476.731 523.062 474.914 523.062C473.082 523.054 471.243 522.517 469.397 521.451L462.864 517.679L467.753 514.857L473.443 518.141C474.25 518.608 474.957 518.866 475.563 518.916C476.168 518.966 476.724 518.845 477.228 518.554C477.704 518.279 477.913 517.942 477.856 517.542C477.784 517.134 477.337 516.693 476.514 516.218L470.955 513.008L475.844 510.186ZM498.153 510.495C497.836 511.161 497.043 511.861 495.774 512.593C494.115 513.551 492.442 514.059 490.755 514.117C489.053 514.167 487.401 513.73 485.801 512.806L482.772 511.057L481.149 511.994L477.58 509.933L479.202 508.996L475.892 507.086L480.782 504.263L484.091 506.174L486.514 504.775L490.084 506.836L487.661 508.235L490.646 509.958C491.007 510.166 491.382 510.274 491.771 510.283C492.161 510.291 492.507 510.208 492.81 510.033C493.228 509.792 493.488 509.517 493.589 509.209L498.153 510.495ZM487.963 503.189L492.852 500.367L504.686 507.198L499.797 510.021L487.963 503.189ZM489.456 501.229C488.576 501.737 487.631 502.015 486.622 502.065C485.612 502.099 484.747 501.907 484.026 501.491C483.305 501.075 482.98 500.579 483.052 500.005C483.124 499.414 483.6 498.864 484.48 498.356C485.374 497.84 486.312 497.557 487.292 497.507C488.273 497.457 489.117 497.636 489.824 498.044C490.574 498.477 490.927 498.989 490.884 499.58C490.826 500.163 490.35 500.712 489.456 501.229ZM513.321 502.463C512.009 503.221 510.567 503.753 508.995 504.062C507.423 504.353 505.879 504.403 504.365 504.211C502.836 504.012 501.481 503.57 500.298 502.888C499.115 502.205 498.358 501.426 498.026 500.552C497.68 499.67 497.767 498.779 498.286 497.879C498.82 496.972 499.743 496.139 501.055 495.382C502.382 494.616 503.824 494.083 505.382 493.783C506.954 493.475 508.497 493.425 510.011 493.633C511.526 493.825 512.874 494.262 514.057 494.944C515.24 495.627 516.004 496.41 516.35 497.292C516.696 498.158 516.61 499.049 516.091 499.965C515.571 500.864 514.648 501.697 513.321 502.463ZM509.514 500.265C510.076 499.94 510.336 499.557 510.293 499.116C510.235 498.666 509.838 498.229 509.103 497.804C508.367 497.38 507.617 497.155 506.853 497.13C506.089 497.105 505.425 497.255 504.863 497.58C504.3 497.904 504.041 498.287 504.084 498.729C504.127 499.17 504.517 499.603 505.252 500.028C505.988 500.452 506.745 500.681 507.524 500.714C508.288 500.739 508.951 500.59 509.514 500.265ZM517.686 485.781C519.142 484.94 520.75 484.519 522.51 484.519C524.284 484.511 526.058 485.019 527.832 486.043L534.582 489.94L529.692 492.762L523.786 489.353C522.431 488.57 521.27 488.458 520.303 489.015C519.755 489.332 519.503 489.702 519.546 490.127C519.589 490.535 520.022 490.976 520.844 491.451L526.404 494.661L521.515 497.483L509.681 490.652L514.332 487.966L515.501 488.641C515.501 488.108 515.688 487.6 516.063 487.117C516.438 486.634 516.979 486.189 517.686 485.781ZM541.551 486.166C540.541 486.749 539.438 487.261 538.241 487.702C537.044 488.144 535.969 488.439 535.017 488.589L533.135 485.954C534.015 485.829 534.924 485.604 535.861 485.279C536.799 484.955 537.621 484.588 538.327 484.18C538.89 483.856 539.236 483.606 539.366 483.431C539.496 483.24 539.467 483.09 539.279 482.981C539.092 482.873 538.818 482.881 538.457 483.006C538.111 483.123 537.585 483.344 536.878 483.668C535.796 484.16 534.83 484.551 533.979 484.842C533.114 485.125 532.162 485.267 531.123 485.267C530.099 485.259 529.104 484.975 528.138 484.418C527.374 483.976 526.919 483.448 526.775 482.832C526.631 482.215 526.833 481.541 527.381 480.808C527.943 480.067 528.866 479.326 530.15 478.585C531.044 478.069 532.003 477.615 533.027 477.224C534.051 476.816 535.025 476.529 535.948 476.362L537.83 478.997C536.214 479.264 534.787 479.755 533.546 480.471C532.479 481.087 532.133 481.504 532.508 481.72C532.695 481.828 532.977 481.824 533.352 481.708C533.712 481.583 534.239 481.362 534.931 481.046C536.013 480.554 536.979 480.171 537.83 479.897C538.695 479.614 539.64 479.476 540.664 479.484C541.702 479.484 542.705 479.763 543.671 480.321C544.406 480.746 544.846 481.266 544.991 481.882C545.135 482.498 544.926 483.177 544.363 483.918C543.801 484.659 542.863 485.408 541.551 486.166Z" fill="#C2C2C2"/>
<defs>
<filter id="filter0_d_3338_12" x="152.617" y="418.869" width="157.682" height="100.419" filterUnits="userSpaceOnUse" color-interpolation-filters="sRGB">
<feFlood flood-opacity="0" result="BackgroundImageFix"/>
<feColorMatrix in="SourceAlpha" type="matrix" values="0 0 0 0 0 0 0 0 0 0 0 0 0 0 0 0 0 0 127 0" result="hardAlpha"/>
<feOffset dy="10"/>
<feGaussianBlur stdDeviation="2"/>
<feColorMatrix type="matrix" values="0 0 0 0 0 0 0 0 0 0 0 0 0 0 0 0 0 0 0.21 0"/>
<feBlend mode="normal" in2="BackgroundImageFix" result="effect1_dropShadow_3338_12"/>
<feBlend mode="normal" in="SourceGraphic" in2="effect1_dropShadow_3338_12" result="shape"/>
</filter>
<filter id="filter1_d_3338_12" x="99.3594" y="185.129" width="157.242" height="100.158" filterUnits="userSpaceOnUse" color-interpolation-filters="sRGB">
<feFlood flood-opacity="0" result="BackgroundImageFix"/>
<feColorMatrix in="SourceAlpha" type="matrix" values="0 0 0 0 0 0 0 0 0 0 0 0 0 0 0 0 0 0 127 0" result="hardAlpha"/>
<feOffset dy="10"/>
<feGaussianBlur stdDeviation="2"/>
<feColorMatrix type="matrix" values="0 0 0 0 0 0 0 0 0 0 0 0 0 0 0 0 0 0 0.21 0"/>
<feBlend mode="normal" in2="BackgroundImageFix" result="effect1_dropShadow_3338_12"/>
<feBlend mode="normal" in="SourceGraphic" in2="effect1_dropShadow_3338_12" result="shape"/>
</filter>
<filter id="filter2_d_3338_12" x="291.517" y="134.241" width="260.344" height="127.697" filterUnits="userSpaceOnUse" color-interpolation-filters="sRGB">
<feFlood flood-opacity="0" result="BackgroundImageFix"/>
<feColorMatrix in="SourceAlpha" type="matrix" values="0 0 0 0 0 0 0 0 0 0 0 0 0 0 0 0 0 0 127 0" result="hardAlpha"/>
<feOffset/>
<feGaussianBlur stdDeviation="6.96932"/>
<feColorMatrix type="matrix" values="0 0 0 0 0 0 0 0 0 0 0 0 0 0 0 0 0 0 0.25 0"/>
<feBlend mode="normal" in2="BackgroundImageFix" result="effect1_dropShadow_3338_12"/>
<feBlend mode="normal" in="SourceGraphic" in2="effect1_dropShadow_3338_12" result="shape"/>
</filter>
<filter id="filter3_d_3338_12" x="58.1483" y="62.0614" width="239.681" height="128.081" filterUnits="userSpaceOnUse" color-interpolation-filters="sRGB">
<feFlood flood-opacity="0" result="BackgroundImageFix"/>
<feColorMatrix in="SourceAlpha" type="matrix" values="0 0 0 0 0 0 0 0 0 0 0 0 0 0 0 0 0 0 127 0" result="hardAlpha"/>
<feOffset/>
<feGaussianBlur stdDeviation="6.96932"/>
<feColorMatrix type="matrix" values="0 0 0 0 0 0 0 0 0 0 0 0 0 0 0 0 0 0 0.25 0"/>
<feBlend mode="normal" in2="BackgroundImageFix" result="effect1_dropShadow_3338_12"/>
<feBlend mode="normal" in="SourceGraphic" in2="effect1_dropShadow_3338_12" result="shape"/>
</filter>
<filter id="filter4_d_3338_12" x="343.235" y="258.527" width="157.242" height="100.158" filterUnits="userSpaceOnUse" color-interpolation-filters="sRGB">
<feFlood flood-opacity="0" result="BackgroundImageFix"/>
<feColorMatrix in="SourceAlpha" type="matrix" values="0 0 0 0 0 0 0 0 0 0 0 0 0 0 0 0 0 0 127 0" result="hardAlpha"/>
<feOffset dy="10"/>
<feGaussianBlur stdDeviation="2"/>
<feColorMatrix type="matrix" values="0 0 0 0 0 0 0 0 0 0 0 0 0 0 0 0 0 0 0.21 0"/>
<feBlend mode="normal" in2="BackgroundImageFix" result="effect1_dropShadow_3338_12"/>
<feBlend mode="normal" in="SourceGraphic" in2="effect1_dropShadow_3338_12" result="shape"/>
</filter>
<filter id="filter5_d_3338_12" x="413.129" y="285.131" width="65.2645" height="40.4997" filterUnits="userSpaceOnUse" color-interpolation-filters="sRGB">
<feFlood flood-opacity="0" result="BackgroundImageFix"/>
<feColorMatrix in="SourceAlpha" type="matrix" values="0 0 0 0 0 0 0 0 0 0 0 0 0 0 0 0 0 0 127 0" result="hardAlpha"/>
<feOffset dy="3.33859"/>
<feGaussianBlur stdDeviation="1.66929"/>
<feColorMatrix type="matrix" values="0 0 0 0 0.366667 0 0 0 0 0.322178 0 0 0 0 0.281111 0 0 0 0.25 0"/>
<feBlend mode="normal" in2="BackgroundImageFix" result="effect1_dropShadow_3338_12"/>
<feBlend mode="normal" in="SourceGraphic" in2="effect1_dropShadow_3338_12" result="shape"/>
</filter>
<filter id="filter6_d_3338_12" x="459.939" y="299.021" width="18.5546" height="10.7531" filterUnits="userSpaceOnUse" color-interpolation-filters="sRGB">
<feFlood flood-opacity="0" result="BackgroundImageFix"/>
<feColorMatrix in="SourceAlpha" type="matrix" values="0 0 0 0 0 0 0 0 0 0 0 0 0 0 0 0 0 0 127 0" result="hardAlpha"/>
<feOffset dy="1.85309"/>
<feGaussianBlur stdDeviation="0.926545"/>
<feColorMatrix type="matrix" values="0 0 0 0 0 0 0 0 0 0 0 0 0 0 0 0 0 0 0.25 0"/>
<feBlend mode="normal" in2="BackgroundImageFix" result="effect1_dropShadow_3338_12"/>
<feBlend mode="normal" in="SourceGraphic" in2="effect1_dropShadow_3338_12" result="shape"/>
</filter>
<filter id="filter7_d_3338_12" x="161.435" y="196.22" width="38" height="25.3191" filterUnits="userSpaceOnUse" color-interpolation-filters="sRGB">
<feFlood flood-opacity="0" result="BackgroundImageFix"/>
<feColorMatrix in="SourceAlpha" type="matrix" values="0 0 0 0 0 0 0 0 0 0 0 0 0 0 0 0 0 0 127 0" result="hardAlpha"/>
<feOffset dy="4"/>
<feGaussianBlur stdDeviation="2"/>
<feColorMatrix type="matrix" values="0 0 0 0 0 0 0 0 0 0 0 0 0 0 0 0 0 0 0.25 0"/>
<feBlend mode="normal" in2="BackgroundImageFix" result="effect1_dropShadow_3338_12"/>
<feBlend mode="normal" in="SourceGraphic" in2="effect1_dropShadow_3338_12" result="shape"/>
</filter>
<filter id="filter8_i_3338_12" x="430.268" y="409.385" width="27.3479" height="19.7888" filterUnits="userSpaceOnUse" color-interpolation-filters="sRGB">
<feFlood flood-opacity="0" result="BackgroundImageFix"/>
<feBlend mode="normal" in="SourceGraphic" in2="BackgroundImageFix" result="shape"/>
<feColorMatrix in="SourceAlpha" type="matrix" values="0 0 0 0 0 0 0 0 0 0 0 0 0 0 0 0 0 0 127 0" result="hardAlpha"/>
<feOffset dy="4"/>
<feGaussianBlur stdDeviation="2"/>
<feComposite in2="hardAlpha" operator="arithmetic" k2="-1" k3="1"/>
<feColorMatrix type="matrix" values="0 0 0 0 0 0 0 0 0 0 0 0 0 0 0 0 0 0 0.25 0"/>
<feBlend mode="normal" in2="shape" result="effect1_innerShadow_3338_12"/>
</filter>
<filter id="filter9_i_3338_12" x="330.268" y="467.385" width="27.3479" height="19.7888" filterUnits="userSpaceOnUse" color-interpolation-filters="sRGB">
<feFlood flood-opacity="0" result="BackgroundImageFix"/>
<feBlend mode="normal" in="SourceGraphic" in2="BackgroundImageFix" result="shape"/>
<feColorMatrix in="SourceAlpha" type="matrix" values="0 0 0 0 0 0 0 0 0 0 0 0 0 0 0 0 0 0 127 0" result="hardAlpha"/>
<feOffset dy="4"/>
<feGaussianBlur stdDeviation="2"/>
<feComposite in2="hardAlpha" operator="arithmetic" k2="-1" k3="1"/>
<feColorMatrix type="matrix" values="0 0 0 0 0 0 0 0 0 0 0 0 0 0 0 0 0 0 0.25 0"/>
<feBlend mode="normal" in2="shape" result="effect1_innerShadow_3338_12"/>
</filter>
<filter id="filter10_i_3338_12" x="197.395" y="319.393" width="28.1537" height="20.2529" filterUnits="userSpaceOnUse" color-interpolation-filters="sRGB">
<feFlood flood-opacity="0" result="BackgroundImageFix"/>
<feBlend mode="normal" in="SourceGraphic" in2="BackgroundImageFix" result="shape"/>
<feColorMatrix in="SourceAlpha" type="matrix" values="0 0 0 0 0 0 0 0 0 0 0 0 0 0 0 0 0 0 127 0" result="hardAlpha"/>
<feOffset dy="4"/>
<feGaussianBlur stdDeviation="2"/>
<feComposite in2="hardAlpha" operator="arithmetic" k2="-1" k3="1"/>
<feColorMatrix type="matrix" values="0 0 0 0 0 0 0 0 0 0 0 0 0 0 0 0 0 0 0.25 0"/>
<feBlend mode="normal" in2="shape" result="effect1_innerShadow_3338_12"/>
</filter>
<linearGradient id="paint0_linear_3338_12" x1="493.942" y1="21.1184" x2="440.364" y2="113.901" gradientUnits="userSpaceOnUse">
<stop stop-color="#C7C4C4"/>
<stop offset="1" stop-color="#C7C4C4" stop-opacity="0"/>
</linearGradient>
<linearGradient id="paint1_linear_3338_12" x1="468.866" y1="24.0197" x2="468.866" y2="168.465" gradientUnits="userSpaceOnUse">
<stop stop-color="#E1DEDE"/>
<stop offset="1" stop-color="#E1DEDE" stop-opacity="0"/>
</linearGradient>
<radialGradient id="paint2_radial_3338_12" cx="0" cy="0" r="1" gradientUnits="userSpaceOnUse" gradientTransform="translate(312.608 383.223) rotate(151.036) scale(376.064 410.231)">
<stop stop-color="#E38E83" stop-opacity="0.31"/>
<stop offset="1" stop-color="#A5A5A5" stop-opacity="0"/>
</radialGradient>
<linearGradient id="paint3_linear_3338_12" x1="53.2661" y1="194.741" x2="186.879" y2="25.4814" gradientUnits="userSpaceOnUse">
<stop stop-color="#FC6652"/>
<stop offset="1" stop-color="#FC6652" stop-opacity="0"/>
</linearGradient>
<linearGradient id="paint4_linear_3338_12" x1="63.6864" y1="0" x2="63.6864" y2="127.373" gradientUnits="userSpaceOnUse">
<stop stop-color="#FC6652"/>
<stop offset="1" stop-color="#FC6652" stop-opacity="0"/>
</linearGradient>
<linearGradient id="paint5_linear_3338_12" x1="428.969" y1="377.571" x2="335.129" y2="533.37" gradientUnits="userSpaceOnUse">
<stop stop-color="#FC6652" stop-opacity="0.21"/>
<stop offset="0.509062" stop-color="#FC6652" stop-opacity="0.90806"/>
<stop offset="1" stop-color="#FC6652" stop-opacity="0"/>
</linearGradient>
<linearGradient id="paint6_linear_3338_12" x1="361.689" y1="307.061" x2="189.866" y2="302.548" gradientUnits="userSpaceOnUse">
<stop stop-color="#ACACAC" stop-opacity="0.21"/>
<stop offset="0.47222" stop-color="#7C6969" stop-opacity="0.90806"/>
<stop offset="0.739409" stop-color="#D1D1D1" stop-opacity="0.93"/>
<stop offset="1" stop-color="#989898" stop-opacity="0"/>
</linearGradient>
<linearGradient id="paint7_linear_3338_12" x1="130.581" y1="376.35" x2="86.5638" y2="452.577" gradientUnits="userSpaceOnUse">
<stop stop-color="#C7C4C4"/>
<stop offset="1" stop-color="#C7C4C4" stop-opacity="0"/>
</linearGradient>
<linearGradient id="paint8_linear_3338_12" x1="109.98" y1="378.734" x2="109.98" y2="497.405" gradientUnits="userSpaceOnUse">
<stop stop-color="#E1DEDE"/>
<stop offset="1" stop-color="#E1DEDE" stop-opacity="0"/>
</linearGradient>
<linearGradient id="paint9_linear_3338_12" x1="607.912" y1="274.71" x2="550.3" y2="374.48" gradientUnits="userSpaceOnUse">
<stop stop-color="#C7C4C4"/>
<stop offset="1" stop-color="#C7C4C4" stop-opacity="0"/>
</linearGradient>
<linearGradient id="paint10_linear_3338_12" x1="580.948" y1="277.829" x2="580.948" y2="433.153" gradientUnits="userSpaceOnUse">
<stop stop-color="#E1DEDE"/>
<stop offset="1" stop-color="#E1DEDE" stop-opacity="0"/>
</linearGradient>
<linearGradient id="paint11_linear_3338_12" x1="429.787" y1="426.887" x2="455.709" y2="425.218" gradientUnits="userSpaceOnUse">
<stop stop-color="#FC6652"/>
<stop offset="1" stop-color="#FC6652" stop-opacity="0.47"/>
</linearGradient>
<linearGradient id="paint12_linear_3338_12" x1="438.287" y1="421.98" x2="464.209" y2="420.311" gradientUnits="userSpaceOnUse">
<stop stop-color="#FC6652"/>
<stop offset="1" stop-color="#FC6652" stop-opacity="0.47"/>
</linearGradient>
<linearGradient id="paint13_linear_3338_12" x1="329.787" y1="484.887" x2="355.709" y2="483.218" gradientUnits="userSpaceOnUse">
<stop stop-color="#FC6652"/>
<stop offset="1" stop-color="#FC6652" stop-opacity="0.47"/>
</linearGradient>
<linearGradient id="paint14_linear_3338_12" x1="338.287" y1="479.98" x2="364.209" y2="478.311" gradientUnits="userSpaceOnUse">
<stop stop-color="#FC6652"/>
<stop offset="1" stop-color="#FC6652" stop-opacity="0.47"/>
</linearGradient>
<linearGradient id="paint15_linear_3338_12" x1="228.604" y1="335.932" x2="228.272" y2="320.47" gradientUnits="userSpaceOnUse">
<stop stop-color="#CBBCBA"/>
<stop offset="1" stop-color="#AFADAD" stop-opacity="0.47"/>
</linearGradient>
<linearGradient id="paint16_linear_3338_12" x1="219.854" y1="330.88" x2="219.522" y2="315.419" gradientUnits="userSpaceOnUse">
<stop stop-color="#CBBCBA"/>
<stop offset="1" stop-color="#AFADAD" stop-opacity="0.47"/>
</linearGradient>
</defs>
<animate
	href="#questions"
	attributeType="CSS" 
	attributeName="opacity" 
  from="0" 
	to="1" 
	dur="5s" 
	repeatCount="indefinite"
/>
<animate
	href="#questions37"
	attributeType="CSS" 
	attributeName="opacity" 
  from="0" 
	to="1" 
	dur="5s" 
	repeatCount="indefinite"
/>
<animate
	href="#questions39"
	attributeType="CSS" 
	attributeName="opacity" 
  from="0" 
	to="1" 
	dur="5s" 
	repeatCount="indefinite"
/>
<animate
	href="#questions64"
	attributeType="CSS" 
	attributeName="opacity" 
  from="0" 
	to="1" 
	dur="5s" 
	repeatCount="indefinite"
/>
<animate
	href="#questions68"
	attributeType="CSS" 
	attributeName="opacity" 
  from="0" 
	to="1" 
	dur="5s" 
	repeatCount="indefinite"
/>
</svg>
