<svg width="477" height="42" viewBox="0 0 477 42" fill="none" xmlns="http://www.w3.org/2000/svg">
<path class="cls-1" d="M-51.5 20.6648H165.5M219.05 3.34746V38.3475H209.15V24.6975H195.65V38.3475H185.75V3.34746H195.65V16.4975H209.15V3.34746H219.05ZM243.77 39.0475C240.07 39.0475 236.737 38.2641 233.77 36.6975C230.837 35.1308 228.52 32.9641 226.82 30.1975C225.154 27.4308 224.32 24.3141 224.32 20.8475C224.32 17.3808 225.154 14.2641 226.82 11.4975C228.52 8.7308 230.837 6.56413 233.77 4.99746C236.737 3.43079 240.07 2.64746 243.77 2.64746C247.47 2.64746 250.787 3.43079 253.72 4.99746C256.687 6.56413 259.004 8.7308 260.67 11.4975C262.37 14.2641 263.22 17.3808 263.22 20.8475C263.22 24.3141 262.37 27.4308 260.67 30.1975C259.004 32.9641 256.687 35.1308 253.72 36.6975C250.787 38.2641 247.47 39.0475 243.77 39.0475ZM243.77 30.8475C245.537 30.8475 247.137 30.4308 248.57 29.5975C250.004 28.7641 251.137 27.5975 251.97 26.0975C252.804 24.5641 253.22 22.8141 253.22 20.8475C253.22 18.8808 252.804 17.1475 251.97 15.6475C251.137 14.1141 250.004 12.9308 248.57 12.0975C247.137 11.2641 245.537 10.8475 243.77 10.8475C242.004 10.8475 240.404 11.2641 238.97 12.0975C237.537 12.9308 236.404 14.1141 235.57 15.6475C234.737 17.1475 234.32 18.8808 234.32 20.8475C234.32 22.8141 234.737 24.5641 235.57 26.0975C236.404 27.5975 237.537 28.7641 238.97 29.5975C240.404 30.4308 242.004 30.8475 243.77 30.8475ZM294.014 20.0475C296.08 20.7141 297.647 21.7475 298.714 23.1475C299.814 24.5475 300.364 26.2808 300.364 28.3475C300.364 31.4475 299.147 33.8975 296.714 35.6975C294.314 37.4641 290.897 38.3475 286.464 38.3475H268.514V3.34746H285.514C289.714 3.34746 292.964 4.14746 295.264 5.74746C297.597 7.31413 298.764 9.54746 298.764 12.4475C298.764 14.1475 298.347 15.6475 297.514 16.9475C296.714 18.2475 295.547 19.2808 294.014 20.0475ZM278.264 17.3475H284.564C287.364 17.3475 288.764 16.1975 288.764 13.8975C288.764 11.5975 287.364 10.4475 284.564 10.4475H278.264V17.3475ZM286.064 31.2475C288.93 31.2475 290.364 30.0308 290.364 27.5975C290.364 25.2308 288.93 24.0475 286.064 24.0475H278.264V31.2475H286.064ZM305.721 3.34746H315.471V23.8975L329.921 3.34746H339.221V38.3475H329.471V17.8475L315.071 38.3475H305.721V3.34746ZM380.036 3.34746V38.3475H370.136V24.6975H356.636V38.3475H346.736V3.34746H356.636V16.4975H370.136V3.34746H380.036ZM401.707 24.9475H397.207V38.3475H387.357V3.34746H397.207V16.9475H401.957L410.307 3.34746H420.707L409.757 20.2475L420.807 38.3475H409.657L401.707 24.9475ZM447.302 31.5475H432.502L429.752 38.3475H419.652L435.102 3.34746H444.852L460.352 38.3475H450.052L447.302 31.5475ZM444.402 24.2475L439.902 13.0475L435.402 24.2475H444.402ZM462.513 3.34746H473.813L471.913 25.5975H464.363L462.513 3.34746ZM468.163 38.7975C466.497 38.7975 465.13 38.2975 464.063 37.2975C462.997 36.2641 462.463 35.0141 462.463 33.5475C462.463 32.0475 462.997 30.8141 464.063 29.8475C465.13 28.8808 466.497 28.3975 468.163 28.3975C469.83 28.3975 471.18 28.8808 472.213 29.8475C473.28 30.8141 473.813 32.0475 473.813 33.5475C473.813 35.0141 473.28 36.2641 472.213 37.2975C471.147 38.2975 469.797 38.7975 468.163 38.7975Z" stroke="url(#paint0_linear_3355_2)" stroke-width="5" stroke-linecap="round" stroke-linejoin="round" />
<defs>
<linearGradient id="paint0_linear_3355_2" x1="-24.5" y1="23.1652" x2="168" y2="23.1652" gradientUnits="userSpaceOnUse">
<stop offset="0%" stop-color="#FC6652" stop-opacity="0">
<animate 
	dur="4s" 
	attributeName="offset" 
	from="0" to="0"
	values="0; 0.4; 0.8; 1.0; 0.8; 0.4; 0.2; 0"
	begin="0s"
  repeatCount="indefinite"
	calcMode="paced"
	id="title-anim"
	/>
</stop>
<stop offset="0" stop-color="#FC6652">
</stop>
<stop offset="50%" stop-color="#FC6652" stop-opacity="0.5"/>
<stop offset="100%" stop-color="#FC6652" stop-opacity="1.0"/>
</linearGradient>
</defs>
</svg>
