<svg width="240" height="129" viewBox="0 0 240 129" fill="none" xmlns="http://www.w3.org/2000/svg">
<g filter="url(#filter0_d_401_496)">
<path d="M14.0869 27.9386C14.0869 20.2405 20.3275 14 28.0256 14H211.952C219.65 14 225.891 20.2405 225.891 27.9386V89.6453C225.891 97.3434 219.65 103.584 211.952 103.584H132.638C128.7 103.584 125.054 105.661 123.046 109.048L119.989 114.204L116.932 109.048C114.923 105.661 111.278 103.584 107.34 103.584H28.0256C20.3275 103.584 14.0869 97.3434 14.0869 89.6453V27.9386Z" fill="#494947" fill-opacity="0.5"/>
</g>
<path d="M88.6781 35.8537V50.5537H85.9901V38.1637H78.3671V50.5537H75.6791V35.8537H88.6781ZM92.5291 39.3397H95.1541V46.7317L101.349 39.3397H103.743V50.5537H101.118V43.1617L94.9441 50.5537H92.5291V39.3397ZM112.377 50.7007C111.215 50.7007 110.172 50.4557 109.248 49.9657C108.324 49.4757 107.603 48.7967 107.085 47.9287C106.567 47.0467 106.308 46.0527 106.308 44.9467C106.308 43.8407 106.567 42.8537 107.085 41.9857C107.603 41.1177 108.317 40.4387 109.227 39.9487C110.151 39.4587 111.201 39.2137 112.377 39.2137C113.483 39.2137 114.449 39.4377 115.275 39.8857C116.115 40.3337 116.745 40.9777 117.165 41.8177L115.149 42.9937C114.827 42.4757 114.421 42.0907 113.931 41.8387C113.455 41.5727 112.93 41.4397 112.356 41.4397C111.376 41.4397 110.564 41.7617 109.92 42.4057C109.276 43.0357 108.954 43.8827 108.954 44.9467C108.954 46.0107 109.269 46.8647 109.899 47.5087C110.543 48.1387 111.362 48.4537 112.356 48.4537C112.93 48.4537 113.455 48.3277 113.931 48.0757C114.421 47.8097 114.827 47.4177 115.149 46.8997L117.165 48.0757C116.731 48.9157 116.094 49.5667 115.254 50.0287C114.428 50.4767 113.469 50.7007 112.377 50.7007ZM125.104 43.0357C126.532 43.0357 127.624 43.3577 128.38 44.0017C129.15 44.6457 129.535 45.5557 129.535 46.7317C129.535 47.9637 129.115 48.9157 128.275 49.5877C127.435 50.2597 126.252 50.5887 124.726 50.5747L119.476 50.5537V39.3397H122.101V43.0147L125.104 43.0357ZM124.495 48.6427C125.265 48.6567 125.853 48.4957 126.259 48.1597C126.665 47.8237 126.868 47.3337 126.868 46.6897C126.868 46.0597 126.672 45.5977 126.28 45.3037C125.888 45.0097 125.293 44.8557 124.495 44.8417L122.101 44.8207V48.6217L124.495 48.6427ZM142.868 50.5537V43.1197L139.088 49.3777H137.954L134.237 43.0987V50.5537H131.843V39.3397H134.594L138.584 46.3537L142.763 39.3397H145.22L145.241 50.5537H142.868ZM153.76 50.7007C152.626 50.7007 151.604 50.4557 150.694 49.9657C149.784 49.4757 149.07 48.7967 148.552 47.9287C148.048 47.0467 147.796 46.0527 147.796 44.9467C147.796 43.8407 148.048 42.8537 148.552 41.9857C149.07 41.1177 149.784 40.4387 150.694 39.9487C151.604 39.4587 152.626 39.2137 153.76 39.2137C154.908 39.2137 155.937 39.4587 156.847 39.9487C157.757 40.4387 158.464 41.1177 158.968 41.9857C159.486 42.8537 159.745 43.8407 159.745 44.9467C159.745 46.0527 159.486 47.0467 158.968 47.9287C158.464 48.7967 157.757 49.4757 156.847 49.9657C155.937 50.4557 154.908 50.7007 153.76 50.7007ZM153.76 48.4537C154.726 48.4537 155.524 48.1317 156.154 47.4877C156.784 46.8437 157.099 45.9967 157.099 44.9467C157.099 43.8967 156.784 43.0497 156.154 42.4057C155.524 41.7617 154.726 41.4397 153.76 41.4397C152.794 41.4397 151.996 41.7617 151.366 42.4057C150.75 43.0497 150.442 43.8967 150.442 44.9467C150.442 45.9967 150.75 46.8437 151.366 47.4877C151.996 48.1317 152.794 48.4537 153.76 48.4537ZM34.6399 76.7007C33.5059 76.7007 32.4839 76.4557 31.5739 75.9657C30.6639 75.4757 29.9499 74.7967 29.4319 73.9287C28.9279 73.0467 28.6759 72.0527 28.6759 70.9467C28.6759 69.8407 28.9279 68.8537 29.4319 67.9857C29.9499 67.1177 30.6639 66.4387 31.5739 65.9487C32.4839 65.4587 33.5059 65.2137 34.6399 65.2137C35.7879 65.2137 36.8169 65.4587 37.7269 65.9487C38.6369 66.4387 39.3439 67.1177 39.8479 67.9857C40.3659 68.8537 40.6249 69.8407 40.6249 70.9467C40.6249 72.0527 40.3659 73.0467 39.8479 73.9287C39.3439 74.7967 38.6369 75.4757 37.7269 75.9657C36.8169 76.4557 35.7879 76.7007 34.6399 76.7007ZM34.6399 74.4537C35.6059 74.4537 36.4039 74.1317 37.0339 73.4877C37.6639 72.8437 37.9789 71.9967 37.9789 70.9467C37.9789 69.8967 37.6639 69.0497 37.0339 68.4057C36.4039 67.7617 35.6059 67.4397 34.6399 67.4397C33.6739 67.4397 32.8759 67.7617 32.2459 68.4057C31.6299 69.0497 31.3219 69.8967 31.3219 70.9467C31.3219 71.9967 31.6299 72.8437 32.2459 73.4877C32.8759 74.1317 33.6739 74.4537 34.6399 74.4537ZM51.6909 67.5657H47.7639V76.5537H45.1389V67.5657H41.1909V65.3397H51.6909V67.5657ZM65.6148 65.2137C66.7068 65.2137 67.6798 65.4517 68.5338 65.9277C69.4018 66.4037 70.0808 67.0757 70.5708 67.9437C71.0608 68.8117 71.3058 69.8127 71.3058 70.9467C71.3058 72.0807 71.0608 73.0887 70.5708 73.9707C70.0808 74.8387 69.4018 75.5107 68.5338 75.9867C67.6798 76.4627 66.7068 76.7007 65.6148 76.7007C64.1028 76.7007 62.9058 76.1967 62.0238 75.1887V80.6277H59.3988V65.3397H61.8978V66.8097C62.3318 66.2777 62.8638 65.8787 63.4938 65.6127C64.1378 65.3467 64.8448 65.2137 65.6148 65.2137ZM65.3208 74.4537C66.2868 74.4537 67.0778 74.1317 67.6938 73.4877C68.3238 72.8437 68.6388 71.9967 68.6388 70.9467C68.6388 69.8967 68.3238 69.0497 67.6938 68.4057C67.0778 67.7617 66.2868 67.4397 65.3208 67.4397C64.6908 67.4397 64.1238 67.5867 63.6198 67.8807C63.1158 68.1607 62.7168 68.5667 62.4228 69.0987C62.1288 69.6307 61.9818 70.2467 61.9818 70.9467C61.9818 71.6467 62.1288 72.2627 62.4228 72.7947C62.7168 73.3267 63.1158 73.7397 63.6198 74.0337C64.1238 74.3137 64.6908 74.4537 65.3208 74.4537ZM77.9537 65.2137C79.6057 65.2137 80.8657 65.6127 81.7337 66.4107C82.6157 67.1947 83.0567 68.3847 83.0567 69.9807V76.5537H80.5787V75.1887C80.2567 75.6787 79.7947 76.0567 79.1927 76.3227C78.6047 76.5747 77.8907 76.7007 77.0507 76.7007C76.2107 76.7007 75.4757 76.5607 74.8457 76.2807C74.2157 75.9867 73.7257 75.5877 73.3757 75.0837C73.0397 74.5657 72.8717 73.9847 72.8717 73.3407C72.8717 72.3327 73.2427 71.5277 73.9847 70.9257C74.7407 70.3097 75.9237 70.0017 77.5337 70.0017H80.4317V69.8337C80.4317 69.0497 80.1937 68.4477 79.7177 68.0277C79.2557 67.6077 78.5627 67.3977 77.6387 67.3977C77.0087 67.3977 76.3857 67.4957 75.7697 67.6917C75.1677 67.8877 74.6567 68.1607 74.2367 68.5107L73.2077 66.5997C73.7957 66.1517 74.5027 65.8087 75.3287 65.5707C76.1547 65.3327 77.0297 65.2137 77.9537 65.2137ZM77.5967 74.7897C78.2547 74.7897 78.8357 74.6427 79.3397 74.3487C79.8577 74.0407 80.2217 73.6067 80.4317 73.0467V71.7447H77.7227C76.2107 71.7447 75.4547 72.2417 75.4547 73.2357C75.4547 73.7117 75.6437 74.0897 76.0217 74.3697C76.3997 74.6497 76.9247 74.7897 77.5967 74.7897ZM92.374 65.8857C93.438 65.8857 94.376 66.1167 95.188 66.5787C96 67.0267 96.63 67.6567 97.078 68.4687C97.54 69.2807 97.771 70.2117 97.771 71.2617C97.771 72.3397 97.519 73.2987 97.015 74.1387C96.511 74.9647 95.804 75.6087 94.894 76.0707C93.984 76.5327 92.948 76.7637 91.786 76.7637C89.84 76.7637 88.335 76.1197 87.271 74.8317C86.207 73.5437 85.675 71.6887 85.675 69.2667C85.675 67.0127 86.158 65.2277 87.124 63.9117C88.09 62.5957 89.567 61.7277 91.555 61.3077L96.763 60.1947L97.141 62.5467L92.416 63.5127C91.058 63.7927 90.043 64.2687 89.371 64.9407C88.699 65.6127 88.307 66.5577 88.195 67.7757C88.699 67.1737 89.308 66.7117 90.022 66.3897C90.736 66.0537 91.52 65.8857 92.374 65.8857ZM91.849 74.6427C92.815 74.6427 93.592 74.3347 94.18 73.7187C94.782 73.0887 95.083 72.2907 95.083 71.3247C95.083 70.3587 94.782 69.5817 94.18 68.9937C93.592 68.4057 92.815 68.1117 91.849 68.1117C90.869 68.1117 90.078 68.4057 89.476 68.9937C88.874 69.5817 88.573 70.3587 88.573 71.3247C88.573 72.3047 88.874 73.1027 89.476 73.7187C90.092 74.3347 90.883 74.6427 91.849 74.6427ZM105.31 76.7007C104.176 76.7007 103.154 76.4557 102.244 75.9657C101.334 75.4757 100.62 74.7967 100.102 73.9287C99.5979 73.0467 99.3459 72.0527 99.3459 70.9467C99.3459 69.8407 99.5979 68.8537 100.102 67.9857C100.62 67.1177 101.334 66.4387 102.244 65.9487C103.154 65.4587 104.176 65.2137 105.31 65.2137C106.458 65.2137 107.487 65.4587 108.397 65.9487C109.307 66.4387 110.014 67.1177 110.518 67.9857C111.036 68.8537 111.295 69.8407 111.295 70.9467C111.295 72.0527 111.036 73.0467 110.518 73.9287C110.014 74.7967 109.307 75.4757 108.397 75.9657C107.487 76.4557 106.458 76.7007 105.31 76.7007ZM105.31 74.4537C106.276 74.4537 107.074 74.1317 107.704 73.4877C108.334 72.8437 108.649 71.9967 108.649 70.9467C108.649 69.8967 108.334 69.0497 107.704 68.4057C107.074 67.7617 106.276 67.4397 105.31 67.4397C104.344 67.4397 103.546 67.7617 102.916 68.4057C102.3 69.0497 101.992 69.8967 101.992 70.9467C101.992 71.9967 102.3 72.8437 102.916 73.4877C103.546 74.1317 104.344 74.4537 105.31 74.4537ZM122.361 67.5657H118.434V76.5537H115.809V67.5657H111.861V65.3397H122.361V67.5657ZM128.444 65.2137C130.096 65.2137 131.356 65.6127 132.224 66.4107C133.106 67.1947 133.547 68.3847 133.547 69.9807V76.5537H131.069V75.1887C130.747 75.6787 130.285 76.0567 129.683 76.3227C129.095 76.5747 128.381 76.7007 127.541 76.7007C126.701 76.7007 125.966 76.5607 125.336 76.2807C124.706 75.9867 124.216 75.5877 123.866 75.0837C123.53 74.5657 123.362 73.9847 123.362 73.3407C123.362 72.3327 123.733 71.5277 124.475 70.9257C125.231 70.3097 126.414 70.0017 128.024 70.0017H130.922V69.8337C130.922 69.0497 130.684 68.4477 130.208 68.0277C129.746 67.6077 129.053 67.3977 128.129 67.3977C127.499 67.3977 126.876 67.4957 126.26 67.6917C125.658 67.8877 125.147 68.1607 124.727 68.5107L123.698 66.5997C124.286 66.1517 124.993 65.8087 125.819 65.5707C126.645 65.3327 127.52 65.2137 128.444 65.2137ZM128.087 74.7897C128.745 74.7897 129.326 74.6427 129.83 74.3487C130.348 74.0407 130.712 73.6067 130.922 73.0467V71.7447H128.213C126.701 71.7447 125.945 72.2417 125.945 73.2357C125.945 73.7117 126.134 74.0897 126.512 74.3697C126.89 74.6497 127.415 74.7897 128.087 74.7897ZM148.765 74.3277V79.0527H146.308V76.5537H137.656V79.0527H135.22V74.3277H135.745C136.459 74.2997 136.942 73.8447 137.194 72.9627C137.46 72.0667 137.635 70.8067 137.719 69.1827L137.866 65.3397H147.106V74.3277H148.765ZM140.113 69.3717C140.057 70.6597 139.952 71.7097 139.798 72.5217C139.644 73.3337 139.364 73.9357 138.958 74.3277H144.481V67.5657H140.176L140.113 69.3717ZM155.289 65.2137C156.941 65.2137 158.201 65.6127 159.069 66.4107C159.951 67.1947 160.392 68.3847 160.392 69.9807V76.5537H157.914V75.1887C157.592 75.6787 157.13 76.0567 156.528 76.3227C155.94 76.5747 155.226 76.7007 154.386 76.7007C153.546 76.7007 152.811 76.5607 152.181 76.2807C151.551 75.9867 151.061 75.5877 150.711 75.0837C150.375 74.5657 150.207 73.9847 150.207 73.3407C150.207 72.3327 150.578 71.5277 151.32 70.9257C152.076 70.3097 153.259 70.0017 154.869 70.0017H157.767V69.8337C157.767 69.0497 157.529 68.4477 157.053 68.0277C156.591 67.6077 155.898 67.3977 154.974 67.3977C154.344 67.3977 153.721 67.4957 153.105 67.6917C152.503 67.8877 151.992 68.1607 151.572 68.5107L150.543 66.5997C151.131 66.1517 151.838 65.8087 152.664 65.5707C153.49 65.3327 154.365 65.2137 155.289 65.2137ZM154.932 74.7897C155.59 74.7897 156.171 74.6427 156.675 74.3487C157.193 74.0407 157.557 73.6067 157.767 73.0467V71.7447H155.058C153.546 71.7447 152.79 72.2417 152.79 73.2357C152.79 73.7117 152.979 74.0897 153.357 74.3697C153.735 74.6497 154.26 74.7897 154.932 74.7897ZM172.523 67.5657H168.596V76.5537H165.971V67.5657H162.023V65.3397H172.523V67.5657ZM184.435 71.0097C184.435 71.1917 184.421 71.4507 184.393 71.7867H175.594C175.748 72.6127 176.147 73.2707 176.791 73.7607C177.449 74.2367 178.261 74.4747 179.227 74.4747C180.459 74.4747 181.474 74.0687 182.272 73.2567L183.679 74.8737C183.175 75.4757 182.538 75.9307 181.768 76.2387C180.998 76.5467 180.13 76.7007 179.164 76.7007C177.932 76.7007 176.847 76.4557 175.909 75.9657C174.971 75.4757 174.243 74.7967 173.725 73.9287C173.221 73.0467 172.969 72.0527 172.969 70.9467C172.969 69.8547 173.214 68.8747 173.704 68.0067C174.208 67.1247 174.901 66.4387 175.783 65.9487C176.665 65.4587 177.659 65.2137 178.765 65.2137C179.857 65.2137 180.83 65.4587 181.684 65.9487C182.552 66.4247 183.224 67.1037 183.7 67.9857C184.19 68.8537 184.435 69.8617 184.435 71.0097ZM178.765 67.3137C177.925 67.3137 177.211 67.5657 176.623 68.0697C176.049 68.5597 175.699 69.2177 175.573 70.0437H181.936C181.824 69.2317 181.481 68.5737 180.907 68.0697C180.333 67.5657 179.619 67.3137 178.765 67.3137ZM197.326 65.3397V76.5537H194.701V67.5657H190.501L190.396 69.7917C190.326 71.2757 190.186 72.5217 189.976 73.5297C189.78 74.5237 189.437 75.3147 188.947 75.9027C188.471 76.4767 187.813 76.7637 186.973 76.7637C186.581 76.7637 186.098 76.6867 185.524 76.5327L185.65 74.3277C185.846 74.3697 186.014 74.3907 186.154 74.3907C186.686 74.3907 187.085 74.1807 187.351 73.7607C187.617 73.3267 187.785 72.8157 187.855 72.2277C187.939 71.6257 188.009 70.7717 188.065 69.6657L188.254 65.3397H197.326ZM210.333 65.3397V76.5537H207.981V73.1727H205.02L202.731 76.5537H199.917L202.563 72.8157C201.751 72.5357 201.128 72.1087 200.694 71.5347C200.274 70.9467 200.064 70.2257 200.064 69.3717C200.064 68.0837 200.519 67.0897 201.429 66.3897C202.339 65.6897 203.592 65.3397 205.188 65.3397H210.333ZM205.272 67.5447C203.578 67.5447 202.731 68.1817 202.731 69.4557C202.731 70.7157 203.55 71.3457 205.188 71.3457H207.981V67.5447H205.272Z" fill="white"/>
<defs>
<filter id="filter0_d_401_496" x="0.14831" y="0.0613651" width="239.681" height="128.081" filterUnits="userSpaceOnUse" color-interpolation-filters="sRGB">
<feFlood flood-opacity="0" result="BackgroundImageFix"/>
<feColorMatrix in="SourceAlpha" type="matrix" values="0 0 0 0 0 0 0 0 0 0 0 0 0 0 0 0 0 0 127 0" result="hardAlpha"/>
<feOffset/>
<feGaussianBlur stdDeviation="6.96932"/>
<feColorMatrix type="matrix" values="0 0 0 0 0 0 0 0 0 0 0 0 0 0 0 0 0 0 0.25 0"/>
<feBlend mode="normal" in2="BackgroundImageFix" result="effect1_dropShadow_401_496"/>
<feBlend mode="normal" in="SourceGraphic" in2="effect1_dropShadow_401_496" result="shape"/>
</filter>
</defs>
</svg>
