<svg width="261" height="128" viewBox="0 0 261 128" fill="none" xmlns="http://www.w3.org/2000/svg">
<g filter="url(#filter0_d_401_493)">
<path d="M14.4561 28.1183C14.4561 20.4202 20.6966 14.1797 28.3947 14.1797H232.984C240.683 14.1797 246.923 20.4202 246.923 28.1183V89.825C246.923 97.5231 240.683 103.764 232.984 103.764H143.526C139.821 103.764 136.358 105.604 134.285 108.675L130.69 113.999L127.094 108.675C125.021 105.604 121.558 103.764 117.853 103.764H28.3947C20.6966 103.764 14.4561 97.5231 14.4561 89.825V28.1183Z" fill="#494947" fill-opacity="0.5"/>
</g>
<path d="M56.7574 47.0318C57.6954 47.2838 58.4094 47.7178 58.8994 48.3338C59.3894 48.9358 59.6344 49.6918 59.6344 50.6018C59.6344 51.8898 59.1584 52.8908 58.2064 53.6048C57.2544 54.3188 55.8754 54.6758 54.0694 54.6758H47.0974V39.9758H53.6704C55.3224 39.9758 56.6104 40.3048 57.5344 40.9628C58.4584 41.6208 58.9204 42.5518 58.9204 43.7558C58.9204 44.5258 58.7314 45.1908 58.3534 45.7508C57.9894 46.3108 57.4574 46.7378 56.7574 47.0318ZM49.7854 46.2548H53.4394C54.3214 46.2548 54.9934 46.0798 55.4554 45.7298C55.9174 45.3798 56.1484 44.8618 56.1484 44.1758C56.1484 43.4898 55.9174 42.9718 55.4554 42.6218C54.9934 42.2578 54.3214 42.0758 53.4394 42.0758H49.7854V46.2548ZM53.9854 52.5758C55.9174 52.5758 56.8834 51.8478 56.8834 50.3918C56.8834 48.9638 55.9174 48.2498 53.9854 48.2498H49.7854V52.5758H53.9854ZM67.4484 54.8228C66.3144 54.8228 65.2924 54.5778 64.3824 54.0878C63.4724 53.5978 62.7584 52.9188 62.2404 52.0508C61.7364 51.1688 61.4844 50.1748 61.4844 49.0688C61.4844 47.9628 61.7364 46.9758 62.2404 46.1078C62.7584 45.2398 63.4724 44.5608 64.3824 44.0708C65.2924 43.5808 66.3144 43.3358 67.4484 43.3358C68.5964 43.3358 69.6254 43.5808 70.5354 44.0708C71.4454 44.5608 72.1524 45.2398 72.6564 46.1078C73.1744 46.9758 73.4334 47.9628 73.4334 49.0688C73.4334 50.1748 73.1744 51.1688 72.6564 52.0508C72.1524 52.9188 71.4454 53.5978 70.5354 54.0878C69.6254 54.5778 68.5964 54.8228 67.4484 54.8228ZM67.4484 52.5758C68.4144 52.5758 69.2124 52.2538 69.8424 51.6098C70.4724 50.9658 70.7874 50.1188 70.7874 49.0688C70.7874 48.0188 70.4724 47.1718 69.8424 46.5278C69.2124 45.8838 68.4144 45.5618 67.4484 45.5618C66.4824 45.5618 65.6844 45.8838 65.0544 46.5278C64.4384 47.1718 64.1304 48.0188 64.1304 49.0688C64.1304 50.1188 64.4384 50.9658 65.0544 51.6098C65.6844 52.2538 66.4824 52.5758 67.4484 52.5758ZM86.7786 43.4618V54.6758H84.1746V45.6878H78.6516V54.6758H76.0266V43.4618H86.7786ZM96.5365 43.3358C97.6285 43.3358 98.6015 43.5738 99.4555 44.0498C100.324 44.5258 101.003 45.1978 101.493 46.0658C101.983 46.9338 102.228 47.9348 102.228 49.0688C102.228 50.2028 101.983 51.2108 101.493 52.0928C101.003 52.9608 100.324 53.6328 99.4555 54.1088C98.6015 54.5848 97.6285 54.8228 96.5365 54.8228C95.0245 54.8228 93.8275 54.3188 92.9455 53.3108V58.7498H90.3205V43.4618H92.8195V44.9318C93.2535 44.3998 93.7855 44.0008 94.4155 43.7348C95.0595 43.4688 95.7665 43.3358 96.5365 43.3358ZM96.2425 52.5758C97.2085 52.5758 97.9995 52.2538 98.6155 51.6098C99.2455 50.9658 99.5605 50.1188 99.5605 49.0688C99.5605 48.0188 99.2455 47.1718 98.6155 46.5278C97.9995 45.8838 97.2085 45.5618 96.2425 45.5618C95.6125 45.5618 95.0455 45.7088 94.5415 46.0028C94.0375 46.2828 93.6385 46.6888 93.3445 47.2208C93.0505 47.7528 92.9035 48.3688 92.9035 49.0688C92.9035 49.7688 93.0505 50.3848 93.3445 50.9168C93.6385 51.4488 94.0375 51.8618 94.5415 52.1558C95.0455 52.4358 95.6125 52.5758 96.2425 52.5758ZM109.838 54.8228C108.704 54.8228 107.682 54.5778 106.772 54.0878C105.862 53.5978 105.148 52.9188 104.63 52.0508C104.126 51.1688 103.874 50.1748 103.874 49.0688C103.874 47.9628 104.126 46.9758 104.63 46.1078C105.148 45.2398 105.862 44.5608 106.772 44.0708C107.682 43.5808 108.704 43.3358 109.838 43.3358C110.986 43.3358 112.015 43.5808 112.925 44.0708C113.835 44.5608 114.542 45.2398 115.046 46.1078C115.564 46.9758 115.823 47.9628 115.823 49.0688C115.823 50.1748 115.564 51.1688 115.046 52.0508C114.542 52.9188 113.835 53.5978 112.925 54.0878C112.015 54.5778 110.986 54.8228 109.838 54.8228ZM109.838 52.5758C110.804 52.5758 111.602 52.2538 112.232 51.6098C112.862 50.9658 113.177 50.1188 113.177 49.0688C113.177 48.0188 112.862 47.1718 112.232 46.5278C111.602 45.8838 110.804 45.5618 109.838 45.5618C108.872 45.5618 108.074 45.8838 107.444 46.5278C106.828 47.1718 106.52 48.0188 106.52 49.0688C106.52 50.1188 106.828 50.9658 107.444 51.6098C108.074 52.2538 108.872 52.5758 109.838 52.5758ZM123.519 54.8228C122.357 54.8228 121.314 54.5778 120.39 54.0878C119.466 53.5978 118.745 52.9188 118.227 52.0508C117.709 51.1688 117.45 50.1748 117.45 49.0688C117.45 47.9628 117.709 46.9758 118.227 46.1078C118.745 45.2398 119.459 44.5608 120.369 44.0708C121.293 43.5808 122.343 43.3358 123.519 43.3358C124.625 43.3358 125.591 43.5598 126.417 44.0078C127.257 44.4558 127.887 45.0998 128.307 45.9398L126.291 47.1158C125.969 46.5978 125.563 46.2128 125.073 45.9608C124.597 45.6948 124.072 45.5618 123.498 45.5618C122.518 45.5618 121.706 45.8838 121.062 46.5278C120.418 47.1578 120.096 48.0048 120.096 49.0688C120.096 50.1328 120.411 50.9868 121.041 51.6308C121.685 52.2608 122.504 52.5758 123.498 52.5758C124.072 52.5758 124.597 52.4498 125.073 52.1978C125.563 51.9318 125.969 51.5398 126.291 51.0218L128.307 52.1978C127.873 53.0378 127.236 53.6888 126.396 54.1508C125.57 54.5988 124.611 54.8228 123.519 54.8228ZM136.078 47.1578C137.506 47.1578 138.598 47.4798 139.354 48.1238C140.11 48.7678 140.488 49.6778 140.488 50.8538C140.488 52.0858 140.068 53.0378 139.228 53.7098C138.402 54.3818 137.226 54.7108 135.7 54.6968L130.618 54.6758V43.4618H133.243V47.1368L136.078 47.1578ZM141.937 43.4618H144.562V54.6758H141.937V43.4618ZM135.469 52.7648C136.239 52.7788 136.827 52.6178 137.233 52.2818C137.639 51.9458 137.842 51.4558 137.842 50.8118C137.842 50.1818 137.646 49.7198 137.254 49.4258C136.862 49.1318 136.267 48.9778 135.469 48.9638L133.243 48.9428V52.7438L135.469 52.7648ZM162.778 45.6878H158.851V54.6758H156.226V45.6878H152.278V43.4618H162.778V45.6878ZM174.69 49.1318C174.69 49.3138 174.676 49.5728 174.648 49.9088H165.849C166.003 50.7348 166.402 51.3928 167.046 51.8828C167.704 52.3588 168.516 52.5968 169.482 52.5968C170.714 52.5968 171.729 52.1908 172.527 51.3788L173.934 52.9958C173.43 53.5978 172.793 54.0528 172.023 54.3608C171.253 54.6688 170.385 54.8228 169.419 54.8228C168.187 54.8228 167.102 54.5778 166.164 54.0878C165.226 53.5978 164.498 52.9188 163.98 52.0508C163.476 51.1688 163.224 50.1748 163.224 49.0688C163.224 47.9768 163.469 46.9968 163.959 46.1288C164.463 45.2468 165.156 44.5608 166.038 44.0708C166.92 43.5808 167.914 43.3358 169.02 43.3358C170.112 43.3358 171.085 43.5808 171.939 44.0708C172.807 44.5468 173.479 45.2258 173.955 46.1078C174.445 46.9758 174.69 47.9838 174.69 49.1318ZM169.02 45.4358C168.18 45.4358 167.466 45.6878 166.878 46.1918C166.304 46.6818 165.954 47.3398 165.828 48.1658H172.191C172.079 47.3538 171.736 46.6958 171.162 46.1918C170.588 45.6878 169.874 45.4358 169.02 45.4358ZM182.664 54.8228C181.502 54.8228 180.459 54.5778 179.535 54.0878C178.611 53.5978 177.89 52.9188 177.372 52.0508C176.854 51.1688 176.595 50.1748 176.595 49.0688C176.595 47.9628 176.854 46.9758 177.372 46.1078C177.89 45.2398 178.604 44.5608 179.514 44.0708C180.438 43.5808 181.488 43.3358 182.664 43.3358C183.77 43.3358 184.736 43.5598 185.562 44.0078C186.402 44.4558 187.032 45.0998 187.452 45.9398L185.436 47.1158C185.114 46.5978 184.708 46.2128 184.218 45.9608C183.742 45.6948 183.217 45.5618 182.643 45.5618C181.663 45.5618 180.851 45.8838 180.207 46.5278C179.563 47.1578 179.241 48.0048 179.241 49.0688C179.241 50.1328 179.556 50.9868 180.186 51.6308C180.83 52.2608 181.649 52.5758 182.643 52.5758C183.217 52.5758 183.742 52.4498 184.218 52.1978C184.708 51.9318 185.114 51.5398 185.436 51.0218L187.452 52.1978C187.018 53.0378 186.381 53.6888 185.541 54.1508C184.715 54.5988 183.756 54.8228 182.664 54.8228ZM198.543 45.6878H194.616V54.6758H191.991V45.6878H188.043V43.4618H198.543V45.6878ZM204.626 43.3358C206.278 43.3358 207.538 43.7348 208.406 44.5328C209.288 45.3168 209.729 46.5068 209.729 48.1028V54.6758H207.251V53.3108C206.929 53.8008 206.467 54.1788 205.865 54.4448C205.277 54.6968 204.563 54.8228 203.723 54.8228C202.883 54.8228 202.148 54.6828 201.518 54.4028C200.888 54.1088 200.398 53.7098 200.048 53.2058C199.712 52.6878 199.544 52.1068 199.544 51.4628C199.544 50.4548 199.915 49.6498 200.657 49.0478C201.413 48.4318 202.596 48.1238 204.206 48.1238H207.104V47.9558C207.104 47.1718 206.866 46.5698 206.39 46.1498C205.928 45.7298 205.235 45.5198 204.311 45.5198C203.681 45.5198 203.058 45.6178 202.442 45.8138C201.84 46.0098 201.329 46.2828 200.909 46.6328L199.88 44.7218C200.468 44.2738 201.175 43.9308 202.001 43.6928C202.827 43.4548 203.702 43.3358 204.626 43.3358ZM204.269 52.9118C204.927 52.9118 205.508 52.7648 206.012 52.4708C206.53 52.1628 206.894 51.7288 207.104 51.1688V49.8668H204.395C202.883 49.8668 202.127 50.3638 202.127 51.3578C202.127 51.8338 202.316 52.2118 202.694 52.4918C203.072 52.7718 203.597 52.9118 204.269 52.9118ZM29.4226 69.4618H32.0476V76.8538L38.2426 69.4618H40.6366V80.6758H38.0116V73.2838L31.8376 80.6758H29.4226V69.4618ZM54.6334 76.1818H52.5964V80.6758H49.9714V69.4618H52.5964V73.9978H54.6964L58.0144 69.4618H60.8284L56.7544 74.8588L61.1014 80.6758H58.0144L54.6334 76.1818ZM73.1168 69.4618V80.6758H70.4918V71.6878H66.2918L66.1868 73.9138C66.1168 75.3978 65.9768 76.6438 65.7668 77.6518C65.5708 78.6458 65.2278 79.4368 64.7378 80.0248C64.2618 80.5988 63.6038 80.8858 62.7638 80.8858C62.3718 80.8858 61.8888 80.8088 61.3148 80.6548L61.4408 78.4498C61.6368 78.4918 61.8048 78.5128 61.9448 78.5128C62.4768 78.5128 62.8758 78.3028 63.1418 77.8828C63.4078 77.4488 63.5758 76.9378 63.6458 76.3498C63.7298 75.7478 63.7998 74.8938 63.8558 73.7878L64.0448 69.4618H73.1168ZM86.9 69.3358C88.02 69.3358 89.021 69.5808 89.903 70.0708C90.785 70.5468 91.478 71.2258 91.982 72.1078C92.486 72.9758 92.738 73.9628 92.738 75.0688C92.738 76.1748 92.486 77.1688 91.982 78.0508C91.478 78.9188 90.785 79.5978 89.903 80.0878C89.021 80.5778 88.02 80.8228 86.9 80.8228C85.92 80.8228 85.024 80.6338 84.212 80.2558C83.4 79.8638 82.728 79.3178 82.196 78.6178C81.664 77.9038 81.321 77.0918 81.167 76.1818H79.277V80.6758H76.652V69.4618H79.277V73.8088H81.209C81.377 72.9268 81.727 72.1498 82.259 71.4778C82.791 70.7918 83.456 70.2668 84.254 69.9028C85.052 69.5248 85.934 69.3358 86.9 69.3358ZM86.9 78.5968C87.516 78.5968 88.069 78.4568 88.559 78.1768C89.049 77.8828 89.434 77.4698 89.714 76.9378C89.994 76.3918 90.134 75.7688 90.134 75.0688C90.134 74.0048 89.826 73.1578 89.21 72.5278C88.608 71.8838 87.838 71.5618 86.9 71.5618C85.962 71.5618 85.192 71.8838 84.59 72.5278C83.988 73.1578 83.687 74.0048 83.687 75.0688C83.687 76.1328 83.988 76.9868 84.59 77.6308C85.206 78.2748 85.976 78.5968 86.9 78.5968ZM104.827 69.4618V80.6758H102.202V76.3288C101.124 76.8468 99.9972 77.1058 98.8212 77.1058C97.3792 77.1058 96.2732 76.7768 95.5032 76.1188C94.7332 75.4468 94.3482 74.4248 94.3482 73.0528V69.4618H96.9732V72.8848C96.9732 73.5988 97.1832 74.1308 97.6032 74.4808C98.0232 74.8308 98.6182 75.0058 99.3882 75.0058C100.368 75.0058 101.306 74.7958 102.202 74.3758V69.4618H104.827ZM118.857 75.1318C118.857 75.3138 118.843 75.5728 118.815 75.9088H110.016C110.17 76.7348 110.569 77.3928 111.213 77.8828C111.871 78.3588 112.683 78.5968 113.649 78.5968C114.881 78.5968 115.896 78.1908 116.694 77.3788L118.101 78.9958C117.597 79.5978 116.96 80.0528 116.19 80.3608C115.42 80.6688 114.552 80.8228 113.586 80.8228C112.354 80.8228 111.269 80.5778 110.331 80.0878C109.393 79.5978 108.665 78.9188 108.147 78.0508C107.643 77.1688 107.391 76.1748 107.391 75.0688C107.391 73.9768 107.636 72.9968 108.126 72.1288C108.63 71.2468 109.323 70.5608 110.205 70.0708C111.087 69.5808 112.081 69.3358 113.187 69.3358C114.279 69.3358 115.252 69.5808 116.106 70.0708C116.974 70.5468 117.646 71.2258 118.122 72.1078C118.612 72.9758 118.857 73.9838 118.857 75.1318ZM113.187 71.4358C112.347 71.4358 111.633 71.6878 111.045 72.1918C110.471 72.6818 110.121 73.3398 109.995 74.1658H116.358C116.246 73.3538 115.903 72.6958 115.329 72.1918C114.755 71.6878 114.041 71.4358 113.187 71.4358ZM129.855 74.8378C131.241 75.2578 131.934 76.1538 131.934 77.5258C131.934 78.5338 131.556 79.3108 130.8 79.8568C130.044 80.4028 128.924 80.6758 127.44 80.6758H121.728V69.4618H127.209C128.581 69.4618 129.652 69.7138 130.422 70.2178C131.192 70.7218 131.577 71.4358 131.577 72.3598C131.577 72.9338 131.423 73.4308 131.115 73.8508C130.821 74.2708 130.401 74.5998 129.855 74.8378ZM124.227 74.1448H126.978C128.336 74.1448 129.015 73.6758 129.015 72.7378C129.015 71.8278 128.336 71.3728 126.978 71.3728H124.227V74.1448ZM127.23 78.7648C128.672 78.7648 129.393 78.2958 129.393 77.3578C129.393 76.8678 129.225 76.5038 128.889 76.2658C128.553 76.0138 128.028 75.8878 127.314 75.8878H124.227V78.7648H127.23ZM140.19 73.1578C141.618 73.1578 142.71 73.4798 143.466 74.1238C144.222 74.7678 144.6 75.6778 144.6 76.8538C144.6 78.0858 144.18 79.0378 143.34 79.7098C142.514 80.3818 141.338 80.7108 139.812 80.6968L134.73 80.6758V69.4618H137.355V73.1368L140.19 73.1578ZM146.049 69.4618H148.674V80.6758H146.049V69.4618ZM139.581 78.7648C140.351 78.7788 140.939 78.6178 141.345 78.2818C141.751 77.9458 141.954 77.4558 141.954 76.8118C141.954 76.1818 141.758 75.7198 141.366 75.4258C140.974 75.1318 140.379 74.9778 139.581 74.9638L137.355 74.9428V78.7438L139.581 78.7648ZM162.703 75.1318C162.703 75.3138 162.689 75.5728 162.661 75.9088H153.862C154.016 76.7348 154.415 77.3928 155.059 77.8828C155.717 78.3588 156.529 78.5968 157.495 78.5968C158.727 78.5968 159.742 78.1908 160.54 77.3788L161.947 78.9958C161.443 79.5978 160.806 80.0528 160.036 80.3608C159.266 80.6688 158.398 80.8228 157.432 80.8228C156.2 80.8228 155.115 80.5778 154.177 80.0878C153.239 79.5978 152.511 78.9188 151.993 78.0508C151.489 77.1688 151.237 76.1748 151.237 75.0688C151.237 73.9768 151.482 72.9968 151.972 72.1288C152.476 71.2468 153.169 70.5608 154.051 70.0708C154.933 69.5808 155.927 69.3358 157.033 69.3358C158.125 69.3358 159.098 69.5808 159.952 70.0708C160.82 70.5468 161.492 71.2258 161.968 72.1078C162.458 72.9758 162.703 73.9838 162.703 75.1318ZM157.033 71.4358C156.193 71.4358 155.479 71.6878 154.891 72.1918C154.317 72.6818 153.967 73.3398 153.841 74.1658H160.204C160.092 73.3538 159.749 72.6958 159.175 72.1918C158.601 71.6878 157.887 71.4358 157.033 71.4358ZM176.481 80.8228C175.319 80.8228 174.276 80.5778 173.352 80.0878C172.428 79.5978 171.707 78.9188 171.189 78.0508C170.671 77.1688 170.412 76.1748 170.412 75.0688C170.412 73.9628 170.671 72.9758 171.189 72.1078C171.707 71.2398 172.421 70.5608 173.331 70.0708C174.255 69.5808 175.305 69.3358 176.481 69.3358C177.587 69.3358 178.553 69.5598 179.379 70.0078C180.219 70.4558 180.849 71.0998 181.269 71.9398L179.253 73.1158C178.931 72.5978 178.525 72.2128 178.035 71.9608C177.559 71.6948 177.034 71.5618 176.46 71.5618C175.48 71.5618 174.668 71.8838 174.024 72.5278C173.38 73.1578 173.058 74.0048 173.058 75.0688C173.058 76.1328 173.373 76.9868 174.003 77.6308C174.647 78.2608 175.466 78.5758 176.46 78.5758C177.034 78.5758 177.559 78.4498 178.035 78.1978C178.525 77.9318 178.931 77.5398 179.253 77.0218L181.269 78.1978C180.835 79.0378 180.198 79.6888 179.358 80.1508C178.532 80.5988 177.573 80.8228 176.481 80.8228ZM193.498 69.4618V80.6758H190.873V71.6878H186.673L186.568 73.9138C186.498 75.3978 186.358 76.6438 186.148 77.6518C185.952 78.6458 185.609 79.4368 185.119 80.0248C184.643 80.5988 183.985 80.8858 183.145 80.8858C182.753 80.8858 182.27 80.8088 181.696 80.6548L181.822 78.4498C182.018 78.4918 182.186 78.5128 182.326 78.5128C182.858 78.5128 183.257 78.3028 183.523 77.8828C183.789 77.4488 183.957 76.9378 184.027 76.3498C184.111 75.7478 184.181 74.8938 184.237 73.7878L184.426 69.4618H193.498ZM202.031 80.8228C200.897 80.8228 199.875 80.5778 198.965 80.0878C198.055 79.5978 197.341 78.9188 196.823 78.0508C196.319 77.1688 196.067 76.1748 196.067 75.0688C196.067 73.9628 196.319 72.9758 196.823 72.1078C197.341 71.2398 198.055 70.5608 198.965 70.0708C199.875 69.5808 200.897 69.3358 202.031 69.3358C203.179 69.3358 204.208 69.5808 205.118 70.0708C206.028 70.5608 206.735 71.2398 207.239 72.1078C207.757 72.9758 208.016 73.9628 208.016 75.0688C208.016 76.1748 207.757 77.1688 207.239 78.0508C206.735 78.9188 206.028 79.5978 205.118 80.0878C204.208 80.5778 203.179 80.8228 202.031 80.8228ZM202.031 78.5758C202.997 78.5758 203.795 78.2538 204.425 77.6098C205.055 76.9658 205.37 76.1188 205.37 75.0688C205.37 74.0188 205.055 73.1718 204.425 72.5278C203.795 71.8838 202.997 71.5618 202.031 71.5618C201.065 71.5618 200.267 71.8838 199.637 72.5278C199.021 73.1718 198.713 74.0188 198.713 75.0688C198.713 76.1188 199.021 76.9658 199.637 77.6098C200.267 78.2538 201.065 78.5758 202.031 78.5758ZM218.736 74.8378C220.122 75.2578 220.815 76.1538 220.815 77.5258C220.815 78.5338 220.437 79.3108 219.681 79.8568C218.925 80.4028 217.805 80.6758 216.321 80.6758H210.609V69.4618H216.09C217.462 69.4618 218.533 69.7138 219.303 70.2178C220.073 70.7218 220.458 71.4358 220.458 72.3598C220.458 72.9338 220.304 73.4308 219.996 73.8508C219.702 74.2708 219.282 74.5998 218.736 74.8378ZM213.108 74.1448H215.859C217.217 74.1448 217.896 73.6758 217.896 72.7378C217.896 71.8278 217.217 71.3728 215.859 71.3728H213.108V74.1448ZM216.111 78.7648C217.553 78.7648 218.274 78.2958 218.274 77.3578C218.274 76.8678 218.106 76.5038 217.77 76.2658C217.434 76.0138 216.909 75.8878 216.195 75.8878H213.108V78.7648H216.111ZM227.79 69.3358C229.442 69.3358 230.702 69.7348 231.57 70.5328C232.452 71.3168 232.893 72.5068 232.893 74.1028V80.6758H230.415V79.3108C230.093 79.8008 229.631 80.1788 229.029 80.4448C228.441 80.6968 227.727 80.8228 226.887 80.8228C226.047 80.8228 225.312 80.6828 224.682 80.4028C224.052 80.1088 223.562 79.7098 223.212 79.2058C222.876 78.6878 222.708 78.1068 222.708 77.4628C222.708 76.4548 223.079 75.6498 223.821 75.0478C224.577 74.4318 225.76 74.1238 227.37 74.1238H230.268V73.9558C230.268 73.1718 230.03 72.5698 229.554 72.1498C229.092 71.7298 228.399 71.5198 227.475 71.5198C226.845 71.5198 226.222 71.6178 225.606 71.8138C225.004 72.0098 224.493 72.2828 224.073 72.6328L223.044 70.7218C223.632 70.2738 224.339 69.9308 225.165 69.6928C225.991 69.4548 226.866 69.3358 227.79 69.3358ZM227.433 78.9118C228.091 78.9118 228.672 78.7648 229.176 78.4708C229.694 78.1628 230.058 77.7288 230.268 77.1688V75.8668H227.559C226.047 75.8668 225.291 76.3638 225.291 77.3578C225.291 77.8338 225.48 78.2118 225.858 78.4918C226.236 78.7718 226.761 78.9118 227.433 78.9118Z" fill="white"/>
<defs>
<filter id="filter0_d_401_493" x="0.51742" y="0.241053" width="260.344" height="127.697" filterUnits="userSpaceOnUse" color-interpolation-filters="sRGB">
<feFlood flood-opacity="0" result="BackgroundImageFix"/>
<feColorMatrix in="SourceAlpha" type="matrix" values="0 0 0 0 0 0 0 0 0 0 0 0 0 0 0 0 0 0 127 0" result="hardAlpha"/>
<feOffset/>
<feGaussianBlur stdDeviation="6.96932"/>
<feColorMatrix type="matrix" values="0 0 0 0 0 0 0 0 0 0 0 0 0 0 0 0 0 0 0.25 0"/>
<feBlend mode="normal" in2="BackgroundImageFix" result="effect1_dropShadow_401_493"/>
<feBlend mode="normal" in="SourceGraphic" in2="effect1_dropShadow_401_493" result="shape"/>
</filter>
</defs>
</svg>
