<svg width="243" height="142" viewBox="0 0 243 142" fill="none" xmlns="http://www.w3.org/2000/svg">
<path d="M23.7704 87.6964L38.8747 96.4162L35.4007 98.4217L23.1446 91.3463L16.3261 95.2826L28.5822 102.358L25.1082 104.364L10.0038 95.6439L23.7704 87.6964ZM47.9702 91.3647C46.7475 92.0705 45.3953 92.5605 43.9136 92.8346C42.432 93.092 40.9647 93.1169 39.5118 92.9093C38.0589 92.7017 36.757 92.2657 35.6062 91.6013C34.4554 90.937 33.7002 90.1854 33.3406 89.3467C32.9809 88.5079 33.0313 87.665 33.4916 86.8179C33.9519 85.9543 34.7935 85.1695 36.0162 84.4636C37.2389 83.7577 38.5911 83.2761 40.0728 83.0186C41.5401 82.7529 43.0002 82.7238 44.4531 82.9314C45.906 83.139 47.2078 83.575 48.3586 84.2394C49.5094 84.9037 50.2646 85.6553 50.6243 86.4941C50.9839 87.3328 50.9407 88.1799 50.4948 89.0352C50.0345 89.8823 49.193 90.6588 47.9702 91.3647ZM45.2083 89.7702C46.0714 89.2719 46.4886 88.6989 46.4598 88.0512C46.431 87.3868 45.9275 86.7723 44.9493 86.2076C43.9712 85.6428 42.9139 85.3563 41.7774 85.348C40.641 85.3231 39.6412 85.5598 38.7781 86.0581C37.915 86.5563 37.4979 87.1377 37.5266 87.802C37.541 88.4581 38.0373 89.0685 39.0155 89.6332C39.9937 90.1979 41.0582 90.4885 42.209 90.5051C43.3454 90.5134 44.3452 90.2685 45.2083 89.7702ZM66.559 77.2451L71.824 80.2845L68.6952 82.0908L66.1922 80.6458L58.0359 85.3545L60.5389 86.7994L57.4101 88.6057L52.1452 85.5662L52.6199 85.2922C53.3247 84.8686 53.3967 84.3372 52.8356 83.6977C52.2746 83.0583 51.2605 82.2735 49.7932 81.3434L45.9308 78.9392L56.0507 73.097L64.8976 78.2043L66.559 77.2451ZM53.073 79.724C54.2094 80.4299 55.0797 81.0403 55.6839 81.5551C56.3025 82.0617 56.6189 82.5351 56.6333 82.9752L61.5314 80.1475L55.4465 76.6347L51.6489 78.8271L53.073 79.724ZM78.7325 73.4063L72.6261 72.8208L73.5539 76.3959L69.8857 78.5135L68.5047 72.5592L58.428 71.7246L62.2041 69.5447L68.0516 70.0803L67.1885 66.6671L70.7704 64.5993L72.1298 70.3668L82.5518 71.2014L78.7325 73.4063ZM89.4609 67.4121C88.2381 68.118 86.8859 68.608 85.4043 68.882C83.9226 69.1395 82.4553 69.1644 81.0024 68.9568C79.5495 68.7491 78.2477 68.3132 77.0969 67.6488C75.946 66.9844 75.1908 66.2329 74.8312 65.3941C74.4716 64.5554 74.5219 63.7125 74.9822 62.8654C75.4426 62.0017 76.2841 61.2169 77.5068 60.5111C78.7296 59.8052 80.0818 59.3235 81.5634 59.0661C83.0307 58.8003 84.4908 58.7713 85.9437 58.9789C87.3966 59.1865 88.6984 59.6225 89.8493 60.2868C91.0001 60.9512 91.7553 61.7028 92.1149 62.5415C92.4745 63.3803 92.4314 64.2273 91.9854 65.0827C91.5251 65.9298 90.6836 66.7062 89.4609 67.4121ZM86.6989 65.8177C87.562 65.3194 87.9792 64.7464 87.9504 64.0986C87.9216 63.4343 87.4182 62.8197 86.44 62.255C85.4618 61.6903 84.4045 61.4038 83.2681 61.3955C82.1316 61.3706 81.1319 61.6073 80.2688 62.1055C79.4057 62.6038 78.9885 63.1851 79.0173 63.8495C79.0317 64.5055 79.5279 65.1159 80.5061 65.6806C81.4843 66.2453 82.5488 66.536 83.6996 66.5526C84.836 66.5609 85.8358 66.3159 86.6989 65.8177ZM108.05 53.2925L113.315 56.332L110.186 58.1382L107.683 56.6933L99.5265 61.4019L102.03 62.8469L98.9007 64.6531L93.6358 61.6137L94.1105 61.3396C94.8154 60.9161 94.8873 60.3846 94.3263 59.7452C93.7653 59.1057 92.7511 58.3209 91.2838 57.3908L87.4214 54.9867L97.5414 49.1444L106.388 54.2517L108.05 53.2925ZM94.5636 55.7714C95.7001 56.4773 96.5704 57.0877 97.1745 57.6026C97.7931 58.1092 98.1096 58.5825 98.124 59.0227L103.022 56.195L96.9372 52.6822L93.1395 54.8746L94.5636 55.7714ZM111.635 41.008L123.244 47.7098L120.245 49.4413L116.922 47.5229L114.44 48.9555L115.562 52.1444L111.981 54.2122L110.837 50.4876C109.715 50.77 108.643 50.8655 107.622 50.7741C106.6 50.6662 105.665 50.3672 104.817 49.8773C103.45 49.0883 102.889 48.1997 103.134 47.2115C103.378 46.2067 104.364 45.206 106.09 44.2094L111.635 41.008ZM108.895 45.7541C108.176 46.1693 107.758 46.5596 107.643 46.925C107.543 47.2821 107.78 47.6267 108.355 47.9589C108.931 48.2911 109.528 48.4364 110.146 48.3949C110.765 48.3368 111.434 48.1001 112.153 47.6849L114.678 46.2274L111.376 44.3215L108.895 45.7541ZM132.586 28.9134L144.194 35.6151L126.479 45.8421L114.87 39.1404L118.215 37.2096L127.062 42.3169L130.924 40.0871L122.077 34.9798L125.422 33.049L134.269 38.1563L138.088 35.9514L129.241 30.8442L132.586 28.9134ZM143.051 33.0864L148.122 36.0137L144.993 37.82L142.684 36.4871L140.764 37.5957L138.002 36.0013L143.051 33.0864ZM135.816 27.0485L139.16 25.1177L146.065 29.1039L144.814 21.8541L147.899 20.0727L159.508 26.7745L156.164 28.7053L149.259 24.7191L150.532 31.9565L147.425 33.7503L135.816 27.0485ZM151.135 18.2047L154.48 16.2739L161.385 20.2601L160.133 13.0102L163.219 11.2289L174.827 17.9307L171.483 19.8615L164.578 15.8753L165.851 23.1127L162.744 24.9065L151.135 18.2047ZM155.71 14.1189C153.178 15.5805 150.79 15.6718 148.546 14.3929L150.747 13.1223C151.265 13.4047 151.797 13.5542 152.344 13.5708C152.89 13.5708 153.422 13.4213 153.94 13.1223C154.458 12.8234 154.717 12.5161 154.717 12.2005C154.717 11.8684 154.465 11.5569 153.962 11.2663L156.206 9.97078C158.421 11.2663 158.256 12.649 155.71 14.1189ZM68.9988 108.834L74.2637 111.874L71.135 113.68L68.6319 112.235L60.4756 116.944L62.9786 118.389L59.8498 120.195L54.5849 117.156L55.0596 116.882C55.7645 116.458 55.8364 115.927 55.2754 115.287C54.7144 114.648 53.7002 113.863 52.2329 112.933L48.3705 110.529L58.4904 104.686L67.3373 109.794L68.9988 108.834ZM55.5127 111.313C56.6492 112.019 57.5195 112.63 58.1236 113.145C58.7422 113.651 59.0587 114.124 59.073 114.565L63.9712 111.737L57.8863 108.224L54.0886 110.416L55.5127 111.313ZM73.4043 96.0766L85.0131 102.778L81.647 104.722L72.8001 99.6143L69.1319 101.732L71.0739 102.978C72.5412 103.891 73.6632 104.705 74.44 105.419C75.2168 106.133 75.634 106.806 75.6915 107.437C75.7491 108.068 75.3175 108.65 74.3969 109.181C73.9078 109.463 73.2389 109.75 72.3902 110.041L69.8008 108.347C70.0598 108.23 70.2396 108.143 70.3403 108.085C70.8438 107.794 71.038 107.475 70.9229 107.126C70.8078 106.76 70.5129 106.391 70.0382 106.017C69.5491 105.635 68.8586 105.162 67.9667 104.597L63.4786 101.807L73.4043 96.0766ZM86.9554 88.2535L98.5642 94.9553L95.5649 96.6868L92.242 94.7684L89.7605 96.201L90.8826 99.3899L87.3007 101.458L86.1571 97.7332C85.035 98.0155 83.9633 98.111 82.942 98.0197C81.9206 97.9117 80.9856 97.6127 80.1369 97.1228C78.7703 96.3338 78.2093 95.4453 78.4538 94.457C78.6984 93.4522 79.6838 92.4515 81.41 91.4549L86.9554 88.2535ZM84.2151 92.9996C83.4958 93.4148 83.0786 93.8051 82.9636 94.1705C82.8629 94.5276 83.1002 94.8722 83.6756 95.2044C84.251 95.5366 84.848 95.6819 85.4666 95.6404C86.0851 95.5823 86.754 95.3456 87.4733 94.9304L89.9979 93.4729L86.6965 91.567L84.2151 92.9996ZM110.715 80.9398C112.542 80.4166 114.146 80.5536 115.527 81.3508C116.577 81.9571 116.994 82.6546 116.779 83.4436C116.563 84.2325 115.671 85.0796 114.103 85.9848L107.91 89.5598L96.3014 82.8581L102.235 79.4325C103.688 78.5937 105.091 78.0913 106.443 77.9252C107.781 77.7508 108.924 77.9377 109.874 78.4858C110.449 78.818 110.809 79.2 110.953 79.6318C111.097 80.047 111.017 80.483 110.715 80.9398ZM104.156 83.8297L106.702 82.3598C107.881 81.6789 108.054 81.0975 107.22 80.6159C106.4 80.1425 105.4 80.2463 104.22 80.9273L101.674 82.3972L104.156 83.8297ZM111.535 84.8263C112.772 84.1121 112.967 83.51 112.118 83.02C111.672 82.7626 111.204 82.6588 110.715 82.7086C110.212 82.7501 109.651 82.9495 109.032 83.3065L106.141 84.9758L108.709 86.4581L111.535 84.8263ZM114.061 72.406C115.859 71.3679 117.672 70.8198 119.499 70.7617C121.311 70.6953 123.081 71.1603 124.807 72.1569L131.431 75.9811L128.281 77.7998L126.835 76.9652C127.281 77.9534 126.641 78.9458 124.915 79.9423C124.023 80.4572 123.095 80.8185 122.131 81.0261C121.182 81.2254 120.269 81.2711 119.391 81.1631C118.514 81.0551 117.737 80.806 117.061 80.4157C115.982 79.7929 115.536 79.0704 115.723 78.2482C115.924 77.4178 116.874 76.5126 118.571 75.5326L121.247 73.988C120.513 73.5645 119.729 73.3693 118.895 73.4025C118.046 73.4274 117.176 73.6973 116.284 74.2122C115.665 74.5693 115.155 74.9804 114.752 75.4454C114.349 75.8939 114.104 76.334 114.018 76.7659L110.458 76.1057C110.645 75.4828 111.055 74.8475 111.688 74.1998C112.335 73.5437 113.126 72.9458 114.061 72.406ZM123.491 78.1486C124.066 77.8164 124.447 77.4468 124.634 77.0399C124.807 76.6247 124.728 76.2136 124.397 75.8067L123.21 75.1216L120.901 76.4544C119.52 77.2517 119.283 77.9119 120.189 78.4351C120.621 78.6842 121.132 78.788 121.721 78.7465C122.311 78.6884 122.901 78.4891 123.491 78.1486ZM140.052 71.2037C138.815 71.9179 137.448 72.4162 135.952 72.6985C134.456 72.9643 132.975 72.9975 131.507 72.7982C130.054 72.5906 128.752 72.1546 127.602 71.4902C126.451 70.8259 125.696 70.0743 125.336 69.2355C124.991 68.3885 125.056 67.5373 125.53 66.6819C126.005 65.8099 126.861 65.0168 128.098 64.3027C129.321 63.5968 130.644 63.1317 132.068 62.9075C133.492 62.6667 134.888 62.6999 136.254 63.0071L135.046 65.3241C133.377 65.0584 131.975 65.2535 130.838 65.9096C129.961 66.4162 129.522 67.0016 129.522 67.666C129.522 68.3303 130.018 68.949 131.011 69.522C132.004 70.0951 133.075 70.3816 134.226 70.3816C135.377 70.3816 136.391 70.1283 137.268 69.6217C138.419 68.9573 138.757 68.1476 138.283 67.1926L142.318 66.5075C142.821 67.2798 142.871 68.0812 142.469 68.9117C142.08 69.7338 141.275 70.4978 140.052 71.2037ZM153.948 57.8999L152.2 58.9089L156.602 61.4501L153.236 63.3933L141.627 56.6916L144.993 54.7483L149.503 57.3518L151.316 56.3054L149.956 51.8832L153.538 49.8154L155.048 55.3711L165.427 56.3552L161.457 58.6473L153.948 57.8999ZM166.449 42.3622L173.526 52.502C174.332 53.5816 174.612 54.5075 174.368 55.2799C174.137 56.0439 173.468 56.7456 172.361 57.3851C171.757 57.7338 171.066 58.0245 170.289 58.257C169.513 58.4896 168.772 58.6183 168.067 58.6432L166.902 56.5505C167.391 56.5338 167.865 56.4674 168.326 56.3511C168.8 56.2266 169.203 56.0688 169.534 55.8778C169.994 55.612 170.253 55.3297 170.311 55.0307C170.383 54.7401 170.275 54.3788 169.987 53.947L169.923 53.8598L153.2 50.0106L156.674 48.0051L167.808 50.6709L163.212 44.2307L166.449 42.3622ZM174.74 37.3762C175.819 36.7534 177.049 36.334 178.43 36.1181C179.811 35.8856 181.206 35.8856 182.616 36.1181C184.011 36.3423 185.306 36.7991 186.5 37.4884C187.694 38.1776 188.492 38.9292 188.895 39.743C189.283 40.5486 189.283 41.3541 188.895 42.1597C188.506 42.9486 187.773 43.6545 186.694 44.2773C185.212 45.1327 183.58 45.5354 181.796 45.4856L187.212 48.6123L183.846 50.5555L168.051 41.4372L171.266 39.5811L172.604 40.3534C172.431 39.2904 173.143 38.298 174.74 37.3762ZM183.349 43.0192C184.213 42.5209 184.63 41.9479 184.601 41.3001C184.572 40.6358 184.069 40.0212 183.09 39.4565C182.112 38.8918 181.055 38.6053 179.919 38.597C178.782 38.5721 177.782 38.8088 176.919 39.307C176.056 39.8053 175.639 40.3866 175.668 41.051C175.697 41.6988 176.2 42.305 177.178 42.8697C178.156 43.4344 179.214 43.7292 180.35 43.7541C181.487 43.7624 182.486 43.5174 183.349 43.0192ZM200.36 36.388C199.123 37.1022 197.756 37.6004 196.26 37.8828C194.764 38.1485 193.282 38.1818 191.815 37.9825C190.362 37.7748 189.06 37.3389 187.91 36.6745C186.759 36.0101 186.004 35.2586 185.644 34.4198C185.299 33.5728 185.363 32.7215 185.838 31.8662C186.313 30.9942 187.169 30.2011 188.406 29.4869C189.629 28.781 190.952 28.316 192.376 28.0918C193.8 27.8509 195.196 27.8842 196.562 28.1914L195.354 30.5084C193.685 30.2426 192.283 30.4378 191.146 31.0939C190.269 31.6004 189.83 32.1859 189.83 32.8503C189.83 33.5146 190.326 34.1333 191.319 34.7063C192.311 35.2793 193.383 35.5658 194.534 35.5658C195.685 35.5658 196.699 35.3125 197.576 34.806C198.727 34.1416 199.065 33.3319 198.59 32.3769L202.625 31.6918C203.129 32.4641 203.179 33.2655 202.777 34.0959C202.388 34.9181 201.583 35.6821 200.36 36.388Z" fill="#C2C2C2"/>
<path fill-rule="evenodd" clip-rule="evenodd" d="M113.657 125.381C112.986 123.997 111.707 122.689 109.82 121.6C103.962 118.218 94.4644 118.218 88.6065 121.6C82.7487 124.982 82.7487 130.465 88.6065 133.847C94.4644 137.228 103.962 137.228 109.82 133.847C110.943 133.198 111.851 132.473 112.543 131.699L103.536 131.699C100.396 132.839 96.1988 132.62 93.4646 131.042C90.2898 129.209 90.2898 126.238 93.4646 124.405C96.6395 122.572 101.787 122.572 104.962 124.405C105.479 124.703 105.912 125.032 106.261 125.381H113.657Z" fill="#FC6652"/>
<rect width="15.5131" height="5.03656" rx="2.51828" transform="matrix(-1.22477 0 0 0.707061 119.884 126.76)" fill="#C2C2C2"/>
<path d="M125.948 116.085C124.693 116.809 123.33 117.438 121.859 117.971C120.388 118.487 119.033 118.828 117.792 118.995L115.715 115.897C116.855 115.723 118.001 115.452 119.155 115.086C120.295 114.711 121.275 114.286 122.097 113.812C122.804 113.404 123.244 113.075 123.417 112.825C123.576 112.567 123.518 112.359 123.244 112.201C122.927 112.017 122.487 111.997 121.924 112.138C121.376 112.271 120.554 112.546 119.458 112.962C118.045 113.495 116.812 113.907 115.759 114.199C114.691 114.482 113.552 114.607 112.341 114.574C111.115 114.532 109.954 114.195 108.858 113.562C107.906 113.012 107.307 112.359 107.062 111.601C106.817 110.843 106.997 110.032 107.603 109.166C108.223 108.292 109.29 107.417 110.805 106.543C111.843 105.944 112.975 105.423 114.201 104.982C115.427 104.524 116.638 104.199 117.836 104.008L119.999 107.03C117.763 107.455 115.982 108.05 114.655 108.816C113.343 109.574 113.004 110.136 113.639 110.502C113.941 110.677 114.367 110.698 114.915 110.565C115.449 110.423 116.249 110.144 117.316 109.728C118.686 109.187 119.912 108.77 120.994 108.479C122.061 108.179 123.201 108.046 124.412 108.079C125.638 108.104 126.799 108.433 127.895 109.066C128.847 109.615 129.446 110.269 129.691 111.027C129.922 111.776 129.734 112.592 129.128 113.474C128.523 114.34 127.462 115.21 125.948 116.085ZM140.491 107.539C139.178 108.297 137.736 108.83 136.164 109.138C134.592 109.429 133.049 109.479 131.535 109.288C130.006 109.088 128.65 108.647 127.467 107.964C126.285 107.281 125.528 106.503 125.196 105.628C124.85 104.746 124.936 103.855 125.455 102.956C125.989 102.048 126.912 101.216 128.225 100.458C129.551 99.692 130.994 99.1591 132.551 98.8594C134.123 98.5513 135.667 98.5014 137.181 98.7095C138.695 98.901 140.044 99.3382 141.226 100.021C142.409 100.704 143.173 101.486 143.52 102.369C143.866 103.235 143.779 104.126 143.26 105.042C142.741 105.941 141.818 106.773 140.491 107.539ZM136.683 105.341C137.246 105.017 137.505 104.634 137.462 104.192C137.404 103.743 137.008 103.306 136.272 102.881C135.537 102.456 134.787 102.231 134.022 102.206C133.258 102.182 132.595 102.331 132.032 102.656C131.47 102.981 131.21 103.364 131.253 103.805C131.297 104.246 131.686 104.679 132.421 105.104C133.157 105.529 133.914 105.758 134.693 105.791C135.457 105.816 136.121 105.666 136.683 105.341ZM132.632 93.2926L137.521 90.47L153.573 99.737L148.684 102.559L132.632 93.2926ZM156.844 84.1859L168.677 91.0174L164.026 93.7026L162.901 93.0531C162.916 93.561 162.75 94.0481 162.404 94.5144C162.043 94.9723 161.538 95.3886 160.889 95.7633C159.389 96.6292 157.731 97.0621 155.914 97.0621C154.082 97.0538 152.243 96.5168 150.397 95.451L143.864 91.6793L148.753 88.8568L154.443 92.1414C155.25 92.6077 155.957 92.8658 156.563 92.9158C157.168 92.9657 157.724 92.845 158.228 92.5536C158.704 92.2788 158.913 91.9416 158.856 91.542C158.784 91.134 158.337 90.6927 157.514 90.2181L151.955 87.0084L156.844 84.1859ZM179.153 84.4951C178.836 85.1612 178.043 85.8606 176.774 86.5933C175.115 87.5507 173.442 88.0586 171.755 88.1169C170.053 88.1669 168.401 87.7298 166.801 86.8056L163.772 85.0571L162.149 85.9938L158.58 83.9331L160.202 82.9964L156.892 81.0856L161.782 78.263L165.091 80.1739L167.514 78.7751L171.084 80.8358L168.661 82.2346L171.646 83.9581C172.007 84.1662 172.382 84.2744 172.771 84.2828C173.161 84.2911 173.507 84.2078 173.81 84.033C174.228 83.7915 174.488 83.5168 174.589 83.2087L179.153 84.4951ZM168.963 77.1894L173.852 74.3669L185.686 81.1984L180.797 84.021L168.963 77.1894ZM170.456 75.2287C169.576 75.7365 168.631 76.0155 167.622 76.0654C166.612 76.0987 165.747 75.9072 165.026 75.4909C164.305 75.0746 163.98 74.5792 164.052 74.0047C164.124 73.4136 164.6 72.8641 165.48 72.3562C166.374 71.8399 167.312 71.5569 168.292 71.5069C169.273 71.4569 170.117 71.636 170.824 72.0439C171.574 72.4769 171.927 72.9889 171.884 73.5801C171.826 74.1629 171.35 74.7124 170.456 75.2287ZM194.321 76.4629C193.009 77.2206 191.567 77.7535 189.995 78.0615C188.423 78.3529 186.879 78.4029 185.365 78.2114C183.836 78.0116 182.481 77.5703 181.298 76.8876C180.115 76.2048 179.358 75.4263 179.026 74.5521C178.68 73.6695 178.767 72.7786 179.286 71.8794C179.82 70.9719 180.743 70.1393 182.055 69.3816C183.382 68.6156 184.824 68.0827 186.382 67.783C187.954 67.4749 189.497 67.425 191.011 67.6331C192.526 67.8246 193.874 68.2618 195.057 68.9445C196.24 69.6272 197.004 70.4099 197.35 71.2924C197.696 72.1584 197.61 73.0492 197.091 73.9651C196.571 74.8643 195.648 75.6969 194.321 76.4629ZM190.514 74.2648C191.076 73.9401 191.336 73.5571 191.293 73.1159C191.235 72.6662 190.838 72.2291 190.103 71.8045C189.367 71.3799 188.617 71.1551 187.853 71.1301C187.089 71.1051 186.425 71.255 185.863 71.5797C185.3 71.9044 185.041 72.2874 185.084 72.7287C185.127 73.17 185.517 73.6029 186.252 74.0276C186.988 74.4522 187.745 74.6812 188.524 74.7145C189.288 74.7394 189.951 74.5896 190.514 74.2648ZM198.686 59.7808C200.142 58.9399 201.75 58.5194 203.51 58.5194C205.284 58.5111 207.058 59.019 208.832 60.0431L215.582 63.9397L210.692 66.7622L204.786 63.3527C203.431 62.57 202.27 62.4576 201.303 63.0155C200.755 63.3319 200.503 63.7024 200.546 64.127C200.589 64.535 201.022 64.9763 201.844 65.4509L207.404 68.6606L202.515 71.4831L190.681 64.6516L195.332 61.9664L196.501 62.6408C196.501 62.1079 196.688 61.6001 197.063 61.1171C197.438 60.6342 197.979 60.1888 198.686 59.7808ZM222.551 60.1661C221.541 60.7489 220.438 61.261 219.241 61.7023C218.044 62.1436 216.969 62.4391 216.017 62.589L214.135 59.9538C215.015 59.8289 215.924 59.6041 216.861 59.2794C217.799 58.9547 218.621 58.5883 219.327 58.1804C219.89 57.8556 220.236 57.6059 220.366 57.431C220.496 57.2395 220.467 57.0896 220.279 56.9814C220.092 56.8732 219.818 56.8815 219.457 57.0064C219.111 57.1229 218.585 57.3436 217.878 57.6683C216.796 58.1595 215.83 58.5509 214.979 58.8423C214.114 59.1254 213.162 59.2669 212.123 59.2669C211.099 59.2586 210.104 58.9755 209.138 58.4176C208.374 57.9764 207.919 57.4477 207.775 56.8315C207.631 56.2154 207.833 55.541 208.381 54.8083C208.943 54.0673 209.866 53.3263 211.15 52.5852C212.044 52.069 213.003 51.6152 214.027 51.2239C215.051 50.8159 216.025 50.5287 216.948 50.3622L218.83 52.9974C217.214 53.2638 215.787 53.755 214.546 54.4711C213.479 55.0872 213.133 55.5035 213.508 55.72C213.695 55.8282 213.977 55.8241 214.352 55.7075C214.712 55.5826 215.239 55.362 215.931 55.0456C217.013 54.5543 217.979 54.1713 218.83 53.8966C219.695 53.6135 220.64 53.4761 221.664 53.4844C222.702 53.4844 223.705 53.7634 224.671 54.3212C225.406 54.7458 225.846 55.2662 225.991 55.8824C226.135 56.4985 225.926 57.1771 225.363 57.9181C224.801 58.6591 223.863 59.4084 222.551 60.1661Z" fill="#C2C2C2"/>
</svg>
