<svg width="445" height="507" viewBox="0 0 445 507" fill="none" xmlns="http://www.w3.org/2000/svg">
<path opacity="0.5" d="M24.9261 28.1211L1.6958 14.8467L24.9261 1.57227L48.1563 14.8467M24.9261 28.1211L1.6958 41.3956L24.9261 54.67M24.9261 28.1211L48.1563 41.3956M24.9261 28.1211L48.1563 14.8467M48.1563 41.3956L24.9261 54.67M48.1563 41.3956L71.3866 28.1211M48.1563 41.3956L71.3866 54.67M24.9261 54.67L1.6958 67.9445L24.9261 81.2189M24.9261 54.67L48.1563 67.9445M48.1563 14.8467L71.3866 28.1211M48.1563 14.8467L71.3866 1.57227L94.6169 14.8467M71.3866 28.1211L94.6169 41.3956M71.3866 28.1211L94.6169 14.8467M71.3866 54.67L48.1563 67.9445M71.3866 54.67L94.6169 41.3956M71.3866 54.67L94.6169 67.9445M48.1563 67.9445L24.9261 81.2189M48.1563 67.9445L71.3866 81.2185M24.9261 81.2189L1.6958 94.493L24.9261 107.767M24.9261 81.2189L48.1563 94.493M48.1563 94.493L24.9261 107.767M48.1563 94.493L71.3866 81.2185M48.1563 94.493L71.3866 107.767M24.9261 107.767L1.6958 121.042L24.9261 134.316M24.9261 107.767L48.1563 121.042M71.3866 81.2185L94.6169 67.9445M71.3866 81.2185L94.6169 94.493M71.3866 107.767L48.1563 121.042M71.3866 107.767L94.6169 94.493M71.3866 107.767L94.6169 121.042M48.1563 121.042L24.9261 134.316M48.1563 121.042L71.3866 134.316M24.9261 134.316L1.6958 147.59L24.9261 160.865M24.9261 134.316L48.1563 147.59M48.1563 147.59L24.9261 160.865M48.1563 147.59L71.3866 134.316M48.1563 147.59L71.3866 160.865M24.9261 160.865L1.6958 174.139L24.9261 187.414M24.9261 160.865L48.1563 174.139M71.3866 134.316L94.6169 121.042M71.3866 134.316L94.6169 147.59M71.3866 160.865L48.1563 174.139M71.3866 160.865L94.6169 147.59M71.3866 160.865L94.6169 174.139M48.1563 174.139L24.9261 187.414M48.1563 174.139L71.3866 187.414M24.9261 187.414L1.6958 200.689L24.9261 213.963M24.9261 187.414L48.1563 200.689M48.1563 200.689L24.9261 213.963M48.1563 200.689L71.3866 187.414M48.1563 200.689L71.3866 213.963M24.9261 213.963L1.6958 227.238L24.9261 240.512M24.9261 213.963L48.1563 227.238M71.3866 187.414L94.6169 174.139M71.3866 187.414L94.6169 200.689M71.3866 213.963L48.1563 227.238M71.3866 213.963L94.6169 200.689M71.3866 213.963L94.6169 227.238M48.1563 227.238L24.9261 240.512M48.1563 227.238L71.3866 240.512M24.9261 240.512L1.6958 253.786L24.9261 267.061M24.9261 240.512L48.1563 253.786M48.1563 253.786L24.9261 267.061M48.1563 253.786L71.3866 240.512M48.1563 253.786L71.3866 267.061M24.9261 267.061L1.6958 280.335L24.9261 293.61M24.9261 267.061L48.1563 280.335M71.3866 240.512L94.6169 227.238M71.3866 240.512L94.6169 253.786M71.3866 267.061L48.1563 280.335M71.3866 267.061L94.6169 253.786M71.3866 267.061L94.6169 280.335M48.1563 280.335L24.9261 293.61M48.1563 280.335L71.3866 293.609M24.9261 293.61L1.6958 306.884L24.9261 320.158M24.9261 293.61L48.1563 306.884M48.1563 306.884L24.9261 320.158M48.1563 306.884L71.3866 293.609M48.1563 306.884L71.3866 320.158M24.9261 320.158L1.6958 333.433L24.9261 346.707M24.9261 320.158L48.1563 333.433M71.3866 293.609L94.6169 280.335M71.3866 293.609L94.6169 306.884M71.3866 320.158L48.1563 333.433M71.3866 320.158L94.6169 306.884M71.3866 320.158L94.6169 333.433M48.1563 333.433L24.9261 346.707M48.1563 333.433L71.3866 346.708M24.9261 346.707L1.6958 359.982L24.9261 373.257M24.9261 346.707L48.1563 359.982M48.1563 359.982L24.9261 373.257M48.1563 359.982L71.3866 346.708M48.1563 359.982L71.3866 373.257M24.9261 373.257L1.6958 386.531L24.9261 399.806M24.9261 373.257L48.1563 386.531M71.3866 346.708L94.6169 333.433M71.3866 346.708L94.6169 359.982M71.3866 373.257L48.1563 386.531M71.3866 373.257L94.6169 359.982M71.3866 373.257L94.6169 386.531M48.1563 386.531L24.9261 399.806M48.1563 386.531L71.3866 399.805M24.9261 399.806L1.6958 413.08L24.9261 426.354M24.9261 399.806L48.1563 413.08M48.1563 413.08L24.9261 426.354M48.1563 413.08L71.3866 399.805M48.1563 413.08L71.3866 426.354M24.9261 426.354L1.6958 439.628L24.9261 452.903M24.9261 426.354L48.1563 439.628M71.3866 399.805L94.6169 386.531M71.3866 399.805L94.6169 413.08M71.3866 426.354L48.1563 439.628M71.3866 426.354L94.6169 413.08M71.3866 426.354L94.6169 439.628M48.1563 439.628L24.9261 452.903M48.1563 439.628L71.3866 452.903M24.9261 452.903L1.6958 466.177L24.9261 479.451M24.9261 452.903L48.1563 466.177M48.1563 466.177L24.9261 479.451M48.1563 466.177L71.3866 452.903M48.1563 466.177L71.3866 479.451M24.9261 479.451L1.6958 492.726L24.9261 506L48.1563 492.726M24.9261 479.451L48.1563 492.726M71.3866 452.903L94.6169 439.628M71.3866 452.903L94.6169 466.177M71.3866 479.451L48.1563 492.726M71.3866 479.451L94.6169 466.177M71.3866 479.451L94.6169 492.726M48.1563 492.726L71.3866 506L94.6169 492.726M94.6169 41.3956L117.847 28.1211M94.6169 41.3956L117.847 54.67M94.6169 14.8467L117.847 28.1211M94.6169 14.8467L117.847 1.57227L141.077 14.8467M117.847 28.1211L141.077 41.3956M117.847 28.1211L141.077 14.8467M141.077 41.3956L117.847 54.67M141.077 41.3956L164.308 28.1211M141.077 41.3956L164.308 54.67M117.847 54.67L94.6169 67.9445M117.847 54.67L141.077 67.9445M94.6169 67.9445L117.847 81.2189M141.077 14.8467L164.308 28.1211M141.077 14.8467L164.308 1.57227L187.538 14.8467M164.308 28.1211L187.538 41.3956M164.308 28.1211L187.538 14.8467M164.308 54.67L141.077 67.9445M164.308 54.67L187.538 41.3956M164.308 54.67L187.538 67.9445M141.077 67.9445L117.847 81.2189M141.077 67.9445L164.308 81.2185M117.847 81.2189L94.6169 94.493M117.847 81.2189L141.077 94.493M94.6169 94.493L117.847 107.767M141.077 94.493L117.847 107.767M141.077 94.493L164.308 81.2185M141.077 94.493L164.308 107.767M117.847 107.767L94.6169 121.042M117.847 107.767L141.077 121.042M94.6169 121.042L117.847 134.316M164.308 81.2185L187.538 67.9445M164.308 81.2185L187.538 94.493M164.308 107.767L141.077 121.042M164.308 107.767L187.538 94.493M164.308 107.767L187.538 121.042M141.077 121.042L117.847 134.316M141.077 121.042L164.308 134.316M117.847 134.316L94.6169 147.59M117.847 134.316L141.077 147.59M94.6169 147.59L117.847 160.865M141.077 147.59L117.847 160.865M141.077 147.59L164.308 134.316M141.077 147.59L164.308 160.865M117.847 160.865L94.6169 174.139M117.847 160.865L141.077 174.139M94.6169 174.139L117.847 187.414M164.308 134.316L187.538 121.042M164.308 134.316L187.538 147.59M164.308 160.865L141.077 174.139M164.308 160.865L187.538 147.59M164.308 160.865L187.538 174.139M141.077 174.139L117.847 187.414M141.077 174.139L164.308 187.414M117.847 187.414L94.6169 200.689M117.847 187.414L141.077 200.689M94.6169 200.689L117.847 213.963M141.077 200.689L117.847 213.963M141.077 200.689L164.308 187.414M141.077 200.689L164.308 213.963M117.847 213.963L94.6169 227.238M117.847 213.963L141.077 227.238M94.6169 227.238L117.847 240.512M164.308 187.414L187.538 174.139M164.308 187.414L187.538 200.689M164.308 213.963L141.077 227.238M164.308 213.963L187.538 200.689M164.308 213.963L187.538 227.238M141.077 227.238L117.847 240.512M141.077 227.238L164.308 240.512M117.847 240.512L94.6169 253.786M117.847 240.512L141.077 253.786M94.6169 253.786L117.847 267.061M141.077 253.786L117.847 267.061M141.077 253.786L164.308 240.512M141.077 253.786L164.308 267.061M117.847 267.061L94.6169 280.335M117.847 267.061L141.077 280.335M94.6169 280.335L117.847 293.61M164.308 240.512L187.538 227.238M164.308 240.512L187.538 253.786M164.308 267.061L141.077 280.335M164.308 267.061L187.538 253.786M164.308 267.061L187.538 280.335M141.077 280.335L117.847 293.61M141.077 280.335L164.308 293.609M117.847 293.61L94.6169 306.884M117.847 293.61L141.077 306.884M94.6169 306.884L117.847 320.158M141.077 306.884L117.847 320.158M141.077 306.884L164.308 293.609M141.077 306.884L164.308 320.158M117.847 320.158L94.6169 333.433M117.847 320.158L141.077 333.433M94.6169 333.433L117.847 346.707M164.308 293.609L187.538 280.335M164.308 293.609L187.538 306.884M164.308 320.158L141.077 333.433M164.308 320.158L187.538 306.884M164.308 320.158L187.538 333.433M141.077 333.433L117.847 346.707M141.077 333.433L164.308 346.708M117.847 346.707L94.6169 359.982M117.847 346.707L141.077 359.982M94.6169 359.982L117.847 373.257M141.077 359.982L117.847 373.257M141.077 359.982L164.308 346.708M141.077 359.982L164.308 373.257M117.847 373.257L94.6169 386.531M117.847 373.257L141.077 386.531M94.6169 386.531L117.847 399.806M164.308 346.708L187.538 333.433M164.308 346.708L187.538 359.982M164.308 373.257L141.077 386.531M164.308 373.257L187.538 359.982M164.308 373.257L187.538 386.531M141.077 386.531L117.847 399.806M141.077 386.531L164.308 399.805M117.847 399.806L94.6169 413.08M117.847 399.806L141.077 413.08M94.6169 413.08L117.847 426.354M141.077 413.08L117.847 426.354M141.077 413.08L164.308 399.805M141.077 413.08L164.308 426.354M117.847 426.354L94.6169 439.628M117.847 426.354L141.077 439.628M94.6169 439.628L117.847 452.903M164.308 399.805L187.538 386.531M164.308 399.805L187.538 413.08M164.308 426.354L141.077 439.628M164.308 426.354L187.538 413.08M164.308 426.354L187.538 439.628M141.077 439.628L117.847 452.903M141.077 439.628L164.308 452.903M117.847 452.903L94.6169 466.177M117.847 452.903L141.077 466.177M94.6169 466.177L117.847 479.451M141.077 466.177L117.847 479.451M141.077 466.177L164.308 452.903M141.077 466.177L164.308 479.451M117.847 479.451L94.6169 492.726M117.847 479.451L141.077 492.726M94.6169 492.726L117.847 506L141.077 492.726M164.308 452.903L187.538 439.628M164.308 452.903L187.538 466.177M164.308 479.451L141.077 492.726M164.308 479.451L187.538 466.177M164.308 479.451L187.538 492.726M141.077 492.726L164.308 506L187.538 492.726M187.538 41.3956L210.768 28.1211M187.538 41.3956L210.768 54.67M187.538 14.8467L210.768 28.1211M187.538 14.8467L210.768 1.57227L233.998 14.8467M210.768 28.1211L233.998 41.3956M210.768 28.1211L233.998 14.8467M233.998 41.3956L210.768 54.67M233.998 41.3956L257.229 28.1211M233.998 41.3956L257.229 54.67M210.768 54.67L187.538 67.9445M210.768 54.67L233.998 67.9445M187.538 67.9445L210.768 81.2189M233.998 14.8467L257.229 28.1211M233.998 14.8467L257.229 1.57227L280.459 14.8467M257.229 28.1211L280.459 41.3956M257.229 28.1211L280.459 14.8467M257.229 54.67L233.998 67.9445M257.229 54.67L280.459 41.3956M257.229 54.67L280.459 67.9445M233.998 67.9445L210.768 81.2189M233.998 67.9445L257.229 81.2185M210.768 81.2189L187.538 94.493M210.768 81.2189L233.998 94.493M187.538 94.493L210.768 107.767M233.998 94.493L210.768 107.767M233.998 94.493L257.229 81.2185M233.998 94.493L257.229 107.767M210.768 107.767L187.538 121.042M210.768 107.767L233.998 121.042M187.538 121.042L210.768 134.316M257.229 81.2185L280.459 67.9445M257.229 81.2185L280.459 94.493M257.229 107.767L233.998 121.042M257.229 107.767L280.459 94.493M257.229 107.767L280.459 121.042M233.998 121.042L210.768 134.316M233.998 121.042L257.229 134.316M210.768 134.316L187.538 147.59M210.768 134.316L233.998 147.59M187.538 147.59L210.768 160.865M233.998 147.59L210.768 160.865M233.998 147.59L257.229 134.316M233.998 147.59L257.229 160.865M210.768 160.865L187.538 174.139M210.768 160.865L233.998 174.139M187.538 174.139L210.768 187.414M257.229 134.316L280.459 121.042M257.229 134.316L280.459 147.59M257.229 160.865L233.998 174.139M257.229 160.865L280.459 147.59M257.229 160.865L280.459 174.139M233.998 174.139L210.768 187.414M233.998 174.139L257.229 187.414M210.768 187.414L187.538 200.689M210.768 187.414L233.998 200.689M187.538 200.689L210.768 213.963M233.998 200.689L210.768 213.963M233.998 200.689L257.229 187.414M233.998 200.689L257.229 213.963M210.768 213.963L187.538 227.238M210.768 213.963L233.998 227.238M187.538 227.238L210.768 240.512M257.229 187.414L280.459 174.139M257.229 187.414L280.459 200.689M257.229 213.963L233.998 227.238M257.229 213.963L280.459 200.689M257.229 213.963L280.459 227.238M233.998 227.238L210.768 240.512M233.998 227.238L257.229 240.512M210.768 240.512L187.538 253.786M210.768 240.512L233.998 253.786M187.538 253.786L210.768 267.061M233.998 253.786L210.768 267.061M233.998 253.786L257.229 240.512M233.998 253.786L257.229 267.061M210.768 267.061L187.538 280.335M210.768 267.061L233.998 280.335M187.538 280.335L210.768 293.61M257.229 240.512L280.459 227.238M257.229 240.512L280.459 253.786M257.229 267.061L233.998 280.335M257.229 267.061L280.459 253.786M257.229 267.061L280.459 280.335M233.998 280.335L210.768 293.61M233.998 280.335L257.229 293.609M210.768 293.61L187.538 306.884M210.768 293.61L233.998 306.884M187.538 306.884L210.768 320.158M233.998 306.884L210.768 320.158M233.998 306.884L257.229 293.609M233.998 306.884L257.229 320.158M210.768 320.158L187.538 333.433M210.768 320.158L233.998 333.433M187.538 333.433L210.768 346.707M257.229 293.609L280.459 280.335M257.229 293.609L280.459 306.884M257.229 320.158L233.998 333.433M257.229 320.158L280.459 306.884M257.229 320.158L280.459 333.433M233.998 333.433L210.768 346.707M233.998 333.433L257.229 346.708M210.768 346.707L187.538 359.982M210.768 346.707L233.998 359.982M187.538 359.982L210.768 373.257M233.998 359.982L210.768 373.257M233.998 359.982L257.229 346.708M233.998 359.982L257.229 373.257M210.768 373.257L187.538 386.531M210.768 373.257L233.998 386.531M187.538 386.531L210.768 399.806M257.229 346.708L280.459 333.433M257.229 346.708L280.459 359.982M257.229 373.257L233.998 386.531M257.229 373.257L280.459 359.982M257.229 373.257L280.459 386.531M233.998 386.531L210.768 399.806M233.998 386.531L257.229 399.805M210.768 399.806L187.538 413.08M210.768 399.806L233.998 413.08M187.538 413.08L210.768 426.354M233.998 413.08L210.768 426.354M233.998 413.08L257.229 399.805M233.998 413.08L257.229 426.354M210.768 426.354L187.538 439.628M210.768 426.354L233.998 439.628M187.538 439.628L210.768 452.903M257.229 399.805L280.459 386.531M257.229 399.805L280.459 413.08M257.229 426.354L233.998 439.628M257.229 426.354L280.459 413.08M257.229 426.354L280.459 439.628M233.998 439.628L210.768 452.903M233.998 439.628L257.229 452.903M210.768 452.903L187.538 466.177M210.768 452.903L233.998 466.177M187.538 466.177L210.768 479.451M233.998 466.177L210.768 479.451M233.998 466.177L257.229 452.903M233.998 466.177L257.229 479.451M210.768 479.451L187.538 492.726M210.768 479.451L233.998 492.726M187.538 492.726L210.768 506L233.998 492.726M257.229 452.903L280.459 439.628M257.229 452.903L280.459 466.177M257.229 479.451L233.998 492.726M257.229 479.451L280.459 466.177M257.229 479.451L280.459 492.726M233.998 492.726L257.229 506L280.459 492.726M280.459 41.3956L303.689 28.1211M280.459 41.3956L303.689 54.67M280.459 14.8467L303.689 28.1211M280.459 14.8467L303.689 1.57227L326.92 14.8467M303.689 28.1211L326.92 41.3956M303.689 28.1211L326.92 14.8467M326.92 41.3956L303.689 54.67M326.92 41.3956L350.15 28.1211M326.92 41.3956L350.15 54.67M303.689 54.67L280.459 67.9445M303.689 54.67L326.92 67.9445M280.459 67.9445L303.689 81.2189M326.92 14.8467L350.15 28.1211M326.92 14.8467L350.15 1.57227L373.38 14.8467M350.15 28.1211L373.38 41.3956M350.15 28.1211L373.38 14.8467M350.15 54.67L326.92 67.9445M350.15 54.67L373.38 41.3956M350.15 54.67L373.38 67.9445M326.92 67.9445L303.689 81.2189M326.92 67.9445L350.15 81.2185M303.689 81.2189L280.459 94.493M303.689 81.2189L326.92 94.493M280.459 94.493L303.689 107.767M326.92 94.493L303.689 107.767M326.92 94.493L350.15 81.2185M326.92 94.493L350.15 107.767M303.689 107.767L280.459 121.042M303.689 107.767L326.92 121.042M280.459 121.042L303.689 134.316M350.15 81.2185L373.38 67.9445M350.15 81.2185L373.38 94.493M350.15 107.767L326.92 121.042M350.15 107.767L373.38 94.493M350.15 107.767L373.38 121.042M326.92 121.042L303.689 134.316M326.92 121.042L350.15 134.316M303.689 134.316L280.459 147.59M303.689 134.316L326.92 147.59M280.459 147.59L303.689 160.865M326.92 147.59L303.689 160.865M326.92 147.59L350.15 134.316M326.92 147.59L350.15 160.865M303.689 160.865L280.459 174.139M303.689 160.865L326.92 174.139M280.459 174.139L303.689 187.414M350.15 134.316L373.38 121.042M350.15 134.316L373.38 147.59M350.15 160.865L326.92 174.139M350.15 160.865L373.38 147.59M350.15 160.865L373.38 174.139M326.92 174.139L303.689 187.414M326.92 174.139L350.15 187.414M303.689 187.414L280.459 200.689M303.689 187.414L326.92 200.689M280.459 200.689L303.689 213.963M326.92 200.689L303.689 213.963M326.92 200.689L350.15 187.414M326.92 200.689L350.15 213.963M303.689 213.963L280.459 227.238M303.689 213.963L326.92 227.238M280.459 227.238L303.689 240.512M350.15 187.414L373.38 174.139M350.15 187.414L373.38 200.689M350.15 213.963L326.92 227.238M350.15 213.963L373.38 200.689M350.15 213.963L373.38 227.238M326.92 227.238L303.689 240.512M326.92 227.238L350.15 240.512M303.689 240.512L280.459 253.786M303.689 240.512L326.92 253.786M280.459 253.786L303.689 267.061M326.92 253.786L303.689 267.061M326.92 253.786L350.15 240.512M326.92 253.786L350.15 267.061M303.689 267.061L280.459 280.335M303.689 267.061L326.92 280.335M280.459 280.335L303.689 293.61M350.15 240.512L373.38 227.238M350.15 240.512L373.38 253.786M350.15 267.061L326.92 280.335M350.15 267.061L373.38 253.786M350.15 267.061L373.38 280.335M326.92 280.335L303.689 293.61M326.92 280.335L350.15 293.609M303.689 293.61L280.459 306.884M303.689 293.61L326.92 306.884M280.459 306.884L303.689 320.158M326.92 306.884L303.689 320.158M326.92 306.884L350.15 293.609M326.92 306.884L350.15 320.158M303.689 320.158L280.459 333.433M303.689 320.158L326.92 333.433M280.459 333.433L303.689 346.707M350.15 293.609L373.38 280.335M350.15 293.609L373.38 306.884M350.15 320.158L326.92 333.433M350.15 320.158L373.38 306.884M350.15 320.158L373.38 333.433M326.92 333.433L303.689 346.707M326.92 333.433L350.15 346.708M303.689 346.707L280.459 359.982M303.689 346.707L326.92 359.982M280.459 359.982L303.689 373.257M326.92 359.982L303.689 373.257M326.92 359.982L350.15 346.708M326.92 359.982L350.15 373.257M303.689 373.257L280.459 386.531M303.689 373.257L326.92 386.531M280.459 386.531L303.689 399.806M350.15 346.708L373.38 333.433M350.15 346.708L373.38 359.982M350.15 373.257L326.92 386.531M350.15 373.257L373.38 359.982M350.15 373.257L373.38 386.531M326.92 386.531L303.689 399.806M326.92 386.531L350.15 399.805M303.689 399.806L280.459 413.08M303.689 399.806L326.92 413.08M280.459 413.08L303.689 426.354M326.92 413.08L303.689 426.354M326.92 413.08L350.15 399.805M326.92 413.08L350.15 426.354M303.689 426.354L280.459 439.628M303.689 426.354L326.92 439.628M280.459 439.628L303.689 452.903M350.15 399.805L373.38 386.531M350.15 399.805L373.38 413.08M350.15 426.354L326.92 439.628M350.15 426.354L373.38 413.08M350.15 426.354L373.38 439.628M326.92 439.628L303.689 452.903M326.92 439.628L350.15 452.903M303.689 452.903L280.459 466.177M303.689 452.903L326.92 466.177M280.459 466.177L303.689 479.451M326.92 466.177L303.689 479.451M326.92 466.177L350.15 452.903M326.92 466.177L350.15 479.451M303.689 479.451L280.459 492.726M303.689 479.451L326.92 492.726M280.459 492.726L303.689 506L326.92 492.726M350.15 452.903L373.38 439.628M350.15 452.903L373.38 466.177M350.15 479.451L326.92 492.726M350.15 479.451L373.38 466.177M350.15 479.451L373.38 492.726M326.92 492.726L350.15 506L373.38 492.726M373.38 41.3956L396.61 28.1211M373.38 41.3956L396.61 54.67M373.38 14.8467L396.61 28.1211M373.38 14.8467L396.61 1.57227L419.841 14.8467M396.61 28.1211L419.841 41.3956M396.61 28.1211L419.841 14.8467M419.841 41.3956L396.61 54.67M419.841 41.3956L443.071 28.1211L419.841 14.8467M419.841 41.3956L443.071 54.67L419.841 67.9445M396.61 54.67L373.38 67.9445M396.61 54.67L419.841 67.9445M373.38 67.9445L396.61 81.2189M419.841 14.8467L443.071 1.57227M419.841 67.9445L396.61 81.2189M419.841 67.9445L443.071 81.2185L419.841 94.493M396.61 81.2189L373.38 94.493M396.61 81.2189L419.841 94.493M373.38 94.493L396.61 107.767M419.841 94.493L396.61 107.767M419.841 94.493L443.071 107.767L419.841 121.042M396.61 107.767L373.38 121.042M396.61 107.767L419.841 121.042M373.38 121.042L396.61 134.316M419.841 121.042L396.61 134.316M419.841 121.042L443.071 134.316L419.841 147.59M396.61 134.316L373.38 147.59M396.61 134.316L419.841 147.59M373.38 147.59L396.61 160.865M419.841 147.59L396.61 160.865M419.841 147.59L443.071 160.865L419.841 174.139M396.61 160.865L373.38 174.139M396.61 160.865L419.841 174.139M373.38 174.139L396.61 187.414M419.841 174.139L396.61 187.414M419.841 174.139L443.071 187.414L419.841 200.689M396.61 187.414L373.38 200.689M396.61 187.414L419.841 200.689M373.38 200.689L396.61 213.963M419.841 200.689L396.61 213.963M419.841 200.689L443.071 213.963L419.841 227.238M396.61 213.963L373.38 227.238M396.61 213.963L419.841 227.238M373.38 227.238L396.61 240.512M419.841 227.238L396.61 240.512M419.841 227.238L443.071 240.512L419.841 253.786M396.61 240.512L373.38 253.786M396.61 240.512L419.841 253.786M373.38 253.786L396.61 267.061M419.841 253.786L396.61 267.061M419.841 253.786L443.071 267.061L419.841 280.335M396.61 267.061L373.38 280.335M396.61 267.061L419.841 280.335M373.38 280.335L396.61 293.61M419.841 280.335L396.61 293.61M419.841 280.335L443.071 293.609L419.841 306.884M396.61 293.61L373.38 306.884M396.61 293.61L419.841 306.884M373.38 306.884L396.61 320.158M419.841 306.884L396.61 320.158M419.841 306.884L443.071 320.158L419.841 333.433M396.61 320.158L373.38 333.433M396.61 320.158L419.841 333.433M373.38 333.433L396.61 346.707M419.841 333.433L396.61 346.707M419.841 333.433L443.071 346.708L419.841 359.982M396.61 346.707L373.38 359.982M396.61 346.707L419.841 359.982M373.38 359.982L396.61 373.257M419.841 359.982L396.61 373.257M419.841 359.982L443.071 373.257L419.841 386.531M396.61 373.257L373.38 386.531M396.61 373.257L419.841 386.531M373.38 386.531L396.61 399.806M419.841 386.531L396.61 399.806M419.841 386.531L443.071 399.805L419.841 413.08M396.61 399.806L373.38 413.08M396.61 399.806L419.841 413.08M373.38 413.08L396.61 426.354M419.841 413.08L396.61 426.354M419.841 413.08L443.071 426.354L419.841 439.628M396.61 426.354L373.38 439.628M396.61 426.354L419.841 439.628M373.38 439.628L396.61 452.903M419.841 439.628L396.61 452.903M419.841 439.628L443.071 452.903L419.841 466.177M396.61 452.903L373.38 466.177M396.61 452.903L419.841 466.177M373.38 466.177L396.61 479.451M419.841 466.177L396.61 479.451M419.841 466.177L443.071 479.451L419.841 492.726M396.61 479.451L373.38 492.726M396.61 479.451L419.841 492.726M373.38 492.726L396.61 506L419.841 492.726M419.841 492.726L443.071 506" stroke="url(#paint0_radial_401_467)" stroke-width="1.6593"/>
<defs>
<radialGradient id="paint0_radial_401_467" cx="0" cy="0" r="1" gradientUnits="userSpaceOnUse" gradientTransform="translate(226.608 273.223) rotate(151.036) scale(376.064 410.231)">
<stop stop-color="#E38E83" stop-opacity="0.31"/>
<stop offset="1" stop-color="#A5A5A5" stop-opacity="0"/>
</radialGradient>
</defs>
</svg>
