<svg width="158" height="138" viewBox="0 0 158 138" fill="none" xmlns="http://www.w3.org/2000/svg">
<path opacity="0.5" d="M78.9842 21.1376L153.606 64.2166L153.606 94.3467L78.9842 137.42L78.9842 21.1376Z" fill="#C7C4C4"/>
<path opacity="0.5" d="M78.9886 21.1368L4.36703 64.2159V94.346L78.9886 137.419L78.9886 21.1368Z" fill="#E1DEDE" />
<rect opacity="0.5" width="86.1632" height="86.1632" transform="matrix(0.866044 -0.499967 0.866044 0.499967 4.35938 64.2156)" fill="#D9D9D9"/>
<g filter="url(#filter0_d_3479_2)">
<rect width="86.1632" height="86.1632" transform="matrix(0.866044 -0.499967 0.866044 0.499967 4.35938 43.2078)" fill="#F5F5F5"/>
</g>
<path d="M80.5577 20.3858L39.1781 44.2742C36.7481 45.677 36.746 47.9648 39.1781 49.3689L68.5949 66.3512C71.0188 67.7505 74.9811 67.7591 77.4199 66.3512L118.799 42.4627C121.223 41.0634 121.238 38.776 118.799 37.3681L89.3827 20.3858C86.9588 18.9864 82.9965 18.9778 80.5577 20.3858ZM82.8901 22.4358L82.8901 45.5127L42.7433 45.6125L82.8901 22.4358ZM70.9274 64.3013L42.7149 48.0142L70.9274 47.9441L70.9274 64.3013ZM75.0875 64.3012L75.0875 47.9337L84.9792 47.9091C86.1243 47.9062 87.0504 47.3695 87.0503 46.7083L87.0503 41.1162L115.249 41.1162L75.0875 64.3012ZM115.249 38.7146L87.0503 38.7146L87.0502 22.4356L115.249 38.7146Z" fill="#FC6652"/>
<g filter="url(#filter1_d_3479_2)">
<circle cx="12.2472" cy="12.2472" r="12.2472" transform="matrix(0.866044 -0.499967 0.866044 0.499967 60.2217 19.8792)" fill="white"/>
</g>
<path d="M74.27 18.168L75.9588 19.1429L77.7775 18.093L85.1821 22.3677L87.2866 21.1528L78.1932 15.9031L74.27 18.168Z" fill="#FC6652"/>
<animate
	dur="2s" 
	attributeName="opacity" 
	from="0" to="0.5"
	values="0; 0.4; 0.8; 1.0"
	begin="0s"
  repeatCount="5"
	calcMode="paced"
	id="block1-anim"
	/>
<defs>
<filter id="filter0_d_3479_2" x="0.359375" y="0.128906" width="157.242" height="100.158" filterUnits="userSpaceOnUse" color-interpolation-filters="sRGB">
<feFlood flood-opacity="0" result="BackgroundImageFix"/>
<feColorMatrix in="SourceAlpha" type="matrix" values="0 0 0 0 0 0 0 0 0 0 0 0 0 0 0 0 0 0 127 0" result="hardAlpha"/>
<feOffset dy="10"/>
<feGaussianBlur stdDeviation="2"/>
<feColorMatrix type="matrix" values="0 0 0 0 0 0 0 0 0 0 0 0 0 0 0 0 0 0 0.21 0"/>
<feBlend mode="normal" in2="BackgroundImageFix" result="effect1_dropShadow_3479_2"/>
<feBlend mode="normal" in="SourceGraphic" in2="effect1_dropShadow_3479_2" result="shape"/>
</filter>
<filter id="filter1_d_3479_2" x="62.4349" y="11.2196" width="38" height="25.3191" filterUnits="userSpaceOnUse" color-interpolation-filters="sRGB">
<feFlood flood-opacity="0" result="BackgroundImageFix"/>
<feColorMatrix in="SourceAlpha" type="matrix" values="0 0 0 0 0 0 0 0 0 0 0 0 0 0 0 0 0 0 127 0" result="hardAlpha"/>
<feOffset dy="4"/>
<feGaussianBlur stdDeviation="2"/>
<feColorMatrix type="matrix" values="0 0 0 0 0 0 0 0 0 0 0 0 0 0 0 0 0 0 0.25 0"/>
<feBlend mode="normal" in2="BackgroundImageFix" result="effect1_dropShadow_3479_2"/>
<feBlend mode="normal" in="SourceGraphic" in2="effect1_dropShadow_3479_2" result="shape"/>
</filter>
</defs>
</svg>
