<svg width="462" height="277" viewBox="0 0 462 277" fill="none" xmlns="http://www.w3.org/2000/svg">
<path opacity="0.1" d="M115.388 276.58C93.2534 276.58 73.5357 271.11 56.2351 260.169C38.9344 249.229 25.3228 233.455 15.4004 212.847C5.73234 191.984 0.898322 167.178 0.898322 138.429C0.898322 109.679 5.73234 85 15.4004 64.3918C25.3228 43.5292 38.9344 27.6279 56.2351 16.6877C73.5357 5.74761 93.2534 0.277541 115.388 0.277541C137.523 0.277541 157.241 5.74761 174.541 16.6877C191.842 27.6279 205.326 43.5292 214.994 64.3918C224.917 85 229.878 109.679 229.878 138.429C229.878 167.178 224.917 191.984 214.994 212.847C205.326 233.455 191.842 249.229 174.541 260.169C157.241 271.11 137.523 276.58 115.388 276.58ZM115.388 224.296C131.671 224.296 144.392 217.299 153.551 203.306C162.965 189.313 167.672 167.687 167.672 138.429C167.672 109.17 162.965 87.5442 153.551 73.551C144.392 59.5578 131.671 52.5612 115.388 52.5612C99.3596 52.5612 86.6385 59.5578 77.2249 73.551C68.0657 87.5442 63.4861 109.17 63.4861 138.429C63.4861 167.687 68.0657 189.313 77.2249 203.306C86.6385 217.299 99.3596 224.296 115.388 224.296ZM351.508 105.227C389.163 105.227 416.895 112.732 434.704 127.743C452.768 142.754 461.8 162.853 461.8 188.041C461.8 204.324 457.73 219.207 449.588 232.692C441.447 245.922 428.98 256.607 412.188 264.749C395.651 272.636 375.17 276.58 350.745 276.58C331.918 276.58 313.345 274.163 295.027 269.329C276.963 264.24 261.57 257.116 248.849 247.957L273.274 200.635C283.451 208.267 295.154 214.246 308.384 218.571C321.614 222.642 335.225 224.678 349.219 224.678C364.738 224.678 376.951 221.624 385.855 215.518C394.76 209.412 399.212 200.889 399.212 189.949C399.212 178.5 394.506 169.85 385.092 163.998C375.933 158.146 359.904 155.22 337.006 155.22H268.694L282.433 4.85712H445.39V54.4694H333.953L329.755 105.227H351.508Z" fill="url(#paint0_linear_401_179)"/>
<defs>
<linearGradient id="paint0_linear_401_179" x1="175.478" y1="-5.09849" x2="222.088" y2="348.061" gradientUnits="userSpaceOnUse">
<stop stop-color="white"/>
<stop offset="1" stop-color="white" stop-opacity="0"/>
</linearGradient>
</defs>
</svg>
