<svg width="481" height="277" viewBox="0 0 481 277" fill="none" xmlns="http://www.w3.org/2000/svg">
<path opacity="0.1" d="M115.373 276.58C93.2388 276.58 73.5211 271.11 56.2204 260.169C38.9197 249.229 25.3082 233.455 15.3857 212.847C5.71769 191.984 0.883674 167.178 0.883674 138.429C0.883674 109.679 5.71769 85 15.3857 64.3918C25.3082 43.5292 38.9197 27.6279 56.2204 16.6877C73.5211 5.74761 93.2388 0.277541 115.373 0.277541C137.508 0.277541 157.226 5.74761 174.527 16.6877C191.827 27.6279 205.312 43.5292 214.98 64.3918C224.902 85 229.863 109.679 229.863 138.429C229.863 167.178 224.902 191.984 214.98 212.847C205.312 233.455 191.827 249.229 174.527 260.169C157.226 271.11 137.508 276.58 115.373 276.58ZM115.373 224.296C131.656 224.296 144.378 217.299 153.537 203.306C162.95 189.313 167.657 167.687 167.657 138.429C167.657 109.17 162.95 87.5442 153.537 73.551C144.378 59.5578 131.656 52.5612 115.373 52.5612C99.3449 52.5612 86.6238 59.5578 77.2102 73.551C68.051 87.5442 63.4714 109.17 63.4714 138.429C63.4714 167.687 68.051 189.313 77.2102 203.306C86.6238 217.299 99.3449 224.296 115.373 224.296ZM388.512 104.463C405.558 104.463 421.078 107.898 435.071 114.767C449.065 121.637 460.132 131.432 468.273 144.153C476.415 156.62 480.486 171.122 480.486 187.659C480.486 205.469 476.033 221.116 467.128 234.6C458.224 248.084 446.011 258.516 430.492 265.894C415.226 273.018 398.18 276.58 379.353 276.58C341.953 276.58 312.694 265.131 291.577 242.233C270.46 219.335 259.902 186.641 259.902 144.153C259.902 113.877 265.626 87.9258 277.075 66.3C288.524 44.6741 304.426 28.2639 324.779 17.0694C345.388 5.87482 369.176 0.277541 396.145 0.277541C410.392 0.277541 424.004 1.93128 436.979 5.23875C450.209 8.29182 461.404 12.7442 470.563 18.5959L447.665 64.0102C434.435 55.1054 417.771 50.653 397.671 50.653C375.028 50.653 357.091 57.268 343.861 70.498C330.631 83.7279 323.507 102.937 322.49 128.124C338.264 112.35 360.271 104.463 388.512 104.463ZM375.918 230.402C389.148 230.402 399.834 226.84 407.975 219.716C416.371 212.593 420.569 202.924 420.569 190.712C420.569 178.5 416.371 168.832 407.975 161.708C399.834 154.33 388.894 150.641 375.155 150.641C361.671 150.641 350.603 154.457 341.953 162.09C333.303 169.468 328.977 179.009 328.977 190.712C328.977 202.416 333.175 211.956 341.571 219.335C349.967 226.713 361.416 230.402 375.918 230.402Z" fill="url(#paint0_linear_401_225)"/>
<defs>
<linearGradient id="paint0_linear_401_225" x1="266.569" y1="-5.5" x2="299.829" y2="352.546" gradientUnits="userSpaceOnUse">
<stop stop-color="white"/>
<stop offset="1" stop-color="white" stop-opacity="0"/>
</linearGradient>
</defs>
</svg>
