<svg width="30" height="10" viewBox="0 0 30 10" fill="none" xmlns="http://www.w3.org/2000/svg">
<path d="M4.42738 9.144C3.73138 9.144 3.11138 8.972 2.56738 8.628C2.02338 8.284 1.59538 7.788 1.28338 7.14C0.979375 6.484 0.827375 5.704 0.827375 4.8C0.827375 3.896 0.979375 3.12 1.28338 2.472C1.59538 1.816 2.02338 1.316 2.56738 0.972C3.11138 0.628 3.73138 0.456 4.42738 0.456C5.12338 0.456 5.74338 0.628 6.28738 0.972C6.83138 1.316 7.25538 1.816 7.55938 2.472C7.87138 3.12 8.02738 3.896 8.02738 4.8C8.02738 5.704 7.87138 6.484 7.55938 7.14C7.25538 7.788 6.83138 8.284 6.28738 8.628C5.74338 8.972 5.12338 9.144 4.42738 9.144ZM4.42738 7.5C4.93938 7.5 5.33938 7.28 5.62738 6.84C5.92338 6.4 6.07138 5.72 6.07138 4.8C6.07138 3.88 5.92338 3.2 5.62738 2.76C5.33938 2.32 4.93938 2.1 4.42738 2.1C3.92338 2.1 3.52338 2.32 3.22738 2.76C2.93938 3.2 2.79538 3.88 2.79538 4.8C2.79538 5.72 2.93938 6.4 3.22738 6.84C3.52338 7.28 3.92338 7.5 4.42738 7.5ZM15.501 0.599999V1.86L12.381 9H10.269L13.281 2.184H10.497V3.552H8.76903V0.599999H15.501ZM17.2361 4.788C16.9081 4.788 16.6321 4.676 16.4081 4.452C16.1841 4.228 16.0721 3.948 16.0721 3.612C16.0721 3.268 16.1841 2.992 16.4081 2.784C16.6321 2.568 16.9081 2.46 17.2361 2.46C17.5641 2.46 17.8401 2.568 18.0641 2.784C18.2881 2.992 18.4001 3.268 18.4001 3.612C18.4001 3.948 18.2881 4.228 18.0641 4.452C17.8401 4.676 17.5641 4.788 17.2361 4.788ZM17.2361 9.096C16.9081 9.096 16.6321 8.984 16.4081 8.76C16.1841 8.536 16.0721 8.256 16.0721 7.92C16.0721 7.576 16.1841 7.3 16.4081 7.092C16.6321 6.876 16.9081 6.768 17.2361 6.768C17.5641 6.768 17.8401 6.876 18.0641 7.092C18.2881 7.3 18.4001 7.576 18.4001 7.92C18.4001 8.256 18.2881 8.536 18.0641 8.76C17.8401 8.984 17.5641 9.096 17.2361 9.096ZM22.1527 3.756C23.3367 3.756 24.2087 3.992 24.7687 4.464C25.3367 4.936 25.6207 5.568 25.6207 6.36C25.6207 6.872 25.4927 7.34 25.2367 7.764C24.9807 8.18 24.5887 8.516 24.0607 8.772C23.5407 9.02 22.8967 9.144 22.1287 9.144C21.5367 9.144 20.9527 9.068 20.3767 8.916C19.8087 8.756 19.3247 8.532 18.9247 8.244L19.6927 6.756C20.0127 6.996 20.3807 7.184 20.7967 7.32C21.2127 7.448 21.6407 7.512 22.0807 7.512C22.5687 7.512 22.9527 7.416 23.2327 7.224C23.5127 7.032 23.6527 6.764 23.6527 6.42C23.6527 6.06 23.5047 5.788 23.2087 5.604C22.9207 5.42 22.4167 5.328 21.6967 5.328H19.5487L19.9807 0.599999H25.1047V2.16H21.6007L21.4687 3.756H22.1527ZM29.6494 0.599999V9H27.7054V2.16H26.0254V0.599999H29.6494Z" fill="white"/>
</svg>
