<svg width="371" height="141" viewBox="0 0 371 141" fill="none" xmlns="http://www.w3.org/2000/svg">
<g opacity="0.5">
<circle cx="32.9048" cy="13.3334" r="1.90476" fill="#C5C5C5"/>
<circle cx="42.4286" cy="13.3334" r="1.90476" fill="#C5C5C5"/>
<circle cx="51.9524" cy="13.3334" r="1.90476" fill="#C5C5C5"/>
<circle cx="61.4762" cy="13.3334" r="1.90476" fill="#C5C5C5"/>
<circle cx="90.0476" cy="13.3334" r="1.90476" fill="#C5C5C5"/>
<circle cx="71" cy="13.3334" r="1.90476" fill="#C5C5C5"/>
<circle cx="99.5714" cy="13.3334" r="1.90476" fill="#C5C5C5"/>
<circle cx="80.5238" cy="13.3334" r="1.90476" fill="#C5C5C5"/>
<circle cx="109.095" cy="13.3334" r="1.90476" fill="#C5C5C5"/>
<circle cx="32.9048" cy="24.7619" r="1.90476" fill="#C5C5C5"/>
<circle cx="42.4286" cy="24.7619" r="1.90476" fill="#C5C5C5"/>
<circle cx="51.9524" cy="24.7619" r="1.90476" fill="#C5C5C5"/>
<circle cx="61.4762" cy="24.7619" r="1.90476" fill="#C5C5C5"/>
<circle cx="90.0476" cy="24.7619" r="1.90476" fill="#C5C5C5"/>
<circle cx="71" cy="24.7619" r="1.90476" fill="#C5C5C5"/>
<circle cx="99.5714" cy="24.7619" r="1.90476" fill="#C5C5C5"/>
<circle cx="80.5238" cy="24.7619" r="1.90476" fill="#C5C5C5"/>
<circle cx="109.095" cy="24.7619" r="1.90476" fill="#C5C5C5"/>
<circle cx="32.9048" cy="36.1905" r="1.90476" fill="#C5C5C5"/>
<circle cx="42.4286" cy="36.1905" r="1.90476" fill="#C5C5C5"/>
<circle cx="51.9524" cy="36.1905" r="1.90476" fill="#C5C5C5"/>
<circle cx="61.4762" cy="36.1905" r="1.90476" fill="#C5C5C5"/>
<circle cx="90.0476" cy="36.1905" r="1.90476" fill="#C5C5C5"/>
<circle cx="71" cy="36.1905" r="1.90476" fill="#C5C5C5"/>
<circle cx="99.5714" cy="36.1905" r="1.90476" fill="#C5C5C5"/>
<circle cx="80.5238" cy="36.1905" r="1.90476" fill="#C5C5C5"/>
<circle cx="109.095" cy="36.1905" r="1.90476" fill="#C5C5C5"/>
<circle cx="32.9048" cy="47.619" r="1.90476" fill="#C5C5C5"/>
<circle cx="42.4286" cy="47.619" r="1.90476" fill="#C5C5C5"/>
<circle cx="51.9524" cy="47.619" r="1.90476" fill="#C5C5C5"/>
<circle cx="61.4762" cy="47.619" r="1.90476" fill="#C5C5C5"/>
<circle cx="90.0476" cy="47.619" r="1.90476" fill="#C5C5C5"/>
<circle cx="71" cy="47.619" r="1.90476" fill="#C5C5C5"/>
<circle cx="99.5714" cy="47.619" r="1.90476" fill="#C5C5C5"/>
<circle cx="80.5238" cy="47.619" r="1.90476" fill="#C5C5C5"/>
<circle cx="109.095" cy="47.619" r="1.90476" fill="#C5C5C5"/>
<circle cx="32.9048" cy="59.0476" r="1.90476" fill="#C5C5C5"/>
<circle cx="42.4286" cy="59.0476" r="1.90476" fill="#C5C5C5"/>
<circle cx="51.9524" cy="59.0476" r="1.90476" fill="#C5C5C5"/>
<circle cx="61.4762" cy="59.0476" r="1.90476" fill="#C5C5C5"/>
<circle cx="90.0476" cy="59.0476" r="1.90476" fill="#C5C5C5"/>
<circle cx="71" cy="59.0476" r="1.90476" fill="#C5C5C5"/>
<circle cx="99.5714" cy="59.0476" r="1.90476" fill="#C5C5C5"/>
<circle cx="80.5238" cy="59.0476" r="1.90476" fill="#C5C5C5"/>
<circle cx="109.095" cy="59.0476" r="1.90476" fill="#C5C5C5"/>
<circle cx="32.9048" cy="1.90476" r="1.90476" fill="#C5C5C5"/>
<circle cx="42.4286" cy="1.90476" r="1.90476" fill="#C5C5C5"/>
<circle cx="51.9524" cy="1.90476" r="1.90476" fill="#C5C5C5"/>
<circle cx="61.4762" cy="1.90476" r="1.90476" fill="#C5C5C5"/>
<circle cx="90.0476" cy="1.90476" r="1.90476" fill="#C5C5C5"/>
<circle cx="71" cy="1.90476" r="1.90476" fill="#C5C5C5"/>
<circle cx="99.5714" cy="1.90476" r="1.90476" fill="#C5C5C5"/>
<circle cx="80.5238" cy="1.90476" r="1.90476" fill="#C5C5C5"/>
<circle cx="109.095" cy="1.90476" r="1.90476" fill="#C5C5C5"/>
<circle cx="32.9048" cy="70.4762" r="1.90476" fill="#C5C5C5"/>
<circle cx="42.4286" cy="70.4762" r="1.90476" fill="#C5C5C5"/>
<circle cx="51.9524" cy="70.4762" r="1.90476" fill="#C5C5C5"/>
<circle cx="61.4762" cy="70.4762" r="1.90476" fill="#C5C5C5"/>
<circle cx="90.0476" cy="70.4762" r="1.90476" fill="#C5C5C5"/>
<circle cx="71" cy="70.4762" r="1.90476" fill="#C5C5C5"/>
<circle cx="99.5714" cy="70.4762" r="1.90476" fill="#C5C5C5"/>
<circle cx="80.5238" cy="70.4762" r="1.90476" fill="#C5C5C5"/>
<circle cx="109.095" cy="70.4762" r="1.90476" fill="#C5C5C5"/>
</g>
<g filter="url(#filter0_d_3333_10)">
<path d="M62.0074 58.1426C64.7359 58.1426 67.1813 58.7475 69.3435 59.9573C71.5057 61.1414 73.1917 62.8017 74.4015 64.9382C75.6371 67.0746 76.2549 69.4943 76.2549 72.197C76.2549 74.8998 75.6371 77.3195 74.4015 79.4559C73.1917 81.5924 71.5057 83.2656 69.3435 84.4754C67.1813 85.6595 64.7359 86.2515 62.0074 86.2515C59.5105 86.2515 57.2582 85.8139 55.2504 84.9387C53.2684 84.0635 51.621 82.8022 50.3082 81.1548L55.1346 76.7532C56.9364 78.8639 59.0987 79.9193 61.6213 79.9193C63.2429 79.9193 64.62 79.4817 65.7526 78.6065C66.911 77.7056 67.7089 76.47 68.1465 74.8998H58.3779V69.2626H68.0693C67.6317 67.7696 66.8466 66.5984 65.714 65.749C64.5814 64.8995 63.2172 64.4748 61.6213 64.4748C59.0987 64.4748 56.9364 65.5302 55.1346 67.6409L50.3082 63.2393C51.621 61.5919 53.2684 60.3306 55.2504 59.4554C57.2582 58.5802 59.5105 58.1426 62.0074 58.1426ZM91.3044 75.3632H87.8294V85.7109H80.2231V58.6832H87.8294V69.1854H91.4975L97.9456 58.6832H105.977L97.5208 71.7337L106.054 85.7109H97.4436L91.3044 75.3632ZM121.522 86.2515C118.69 86.2515 116.142 85.6595 113.877 84.4754C111.637 83.2656 109.874 81.5924 108.587 79.4559C107.3 77.3195 106.657 74.8998 106.657 72.197C106.657 69.4943 107.3 67.0746 108.587 64.9382C109.874 62.8017 111.637 61.1414 113.877 59.9573C116.142 58.7475 118.69 58.1426 121.522 58.1426C123.993 58.1426 126.22 58.5802 128.202 59.4554C130.184 60.3306 131.831 61.5919 133.144 63.2393L128.279 67.6409C126.528 65.5302 124.405 64.4748 121.908 64.4748C120.441 64.4748 119.128 64.7966 117.97 65.4401C116.837 66.0836 115.949 66.9974 115.305 68.1815C114.688 69.3398 114.379 70.6783 114.379 72.197C114.379 73.7158 114.688 75.0671 115.305 76.2512C115.949 77.4095 116.837 78.3105 117.97 78.954C119.128 79.5975 120.441 79.9193 121.908 79.9193C124.405 79.9193 126.528 78.8639 128.279 76.7532L133.144 81.1548C131.831 82.8022 130.184 84.0635 128.202 84.9387C126.22 85.8139 123.993 86.2515 121.522 86.2515ZM147.524 75.3632H144.049V85.7109H136.443V58.6832H144.049V69.1854H147.717L154.165 58.6832H162.197L153.741 71.7337L162.274 85.7109H153.663L147.524 75.3632ZM190.693 58.6832V85.7109H183.164V64.7451H175.403L175.249 69.1468C175.12 73.0079 174.798 76.1483 174.284 78.5679C173.795 80.9875 172.945 82.8666 171.735 84.2051C170.525 85.5179 168.814 86.1743 166.6 86.1743C165.57 86.1743 164.412 86.0198 163.125 85.7109L163.55 79.4559C163.884 79.5332 164.232 79.5718 164.592 79.5718C165.596 79.5718 166.368 79.1728 166.909 78.3748C167.449 77.5769 167.836 76.47 168.067 75.0543C168.299 73.6128 168.453 71.7466 168.531 69.4557L168.917 58.6832H190.693ZM221.147 58.1426C223.902 58.1426 226.386 58.7475 228.599 59.9573C230.813 61.1671 232.55 62.8403 233.812 64.9768C235.073 67.1133 235.704 69.52 235.704 72.197C235.704 74.8741 235.073 77.2808 233.812 79.4173C232.55 81.5538 230.813 83.227 228.599 84.4368C226.386 85.6466 223.902 86.2515 221.147 86.2515C218.728 86.2515 216.501 85.7882 214.468 84.8615C212.46 83.9348 210.787 82.6349 209.448 80.9618C208.135 79.2886 207.26 77.3709 206.823 75.2087H204.004V85.7109H196.475V58.6832H204.004V68.7993H206.9C207.389 66.6885 208.303 64.8352 209.641 63.2393C210.98 61.6176 212.64 60.3692 214.622 59.494C216.604 58.5931 218.779 58.1426 221.147 58.1426ZM221.147 79.9193C222.434 79.9193 223.593 79.5975 224.622 78.954C225.652 78.3105 226.463 77.4095 227.055 76.2512C227.673 75.0929 227.981 73.7415 227.981 72.197C227.981 70.6526 227.673 69.3012 227.055 68.1429C226.463 66.9845 225.652 66.0836 224.622 65.4401C223.593 64.7966 222.434 64.4748 221.147 64.4748C219.86 64.4748 218.689 64.7966 217.634 65.4401C216.604 66.0579 215.78 66.9588 215.163 68.1429C214.571 69.3012 214.275 70.6526 214.275 72.197C214.275 73.7415 214.571 75.1058 215.163 76.2898C215.78 77.4482 216.604 78.3491 217.634 78.9926C218.689 79.6104 219.86 79.9193 221.147 79.9193ZM255.801 71.6565C257.294 72.2228 258.466 73.0722 259.315 74.2048C260.164 75.3374 260.589 76.6373 260.589 78.1045C260.589 79.7777 260.023 81.232 258.89 82.4676C257.758 83.7032 256.226 84.6556 254.296 85.3248C252.365 85.9683 250.241 86.2901 247.925 86.2901C246.097 86.2901 244.231 86.0713 242.326 85.6337C240.447 85.1961 238.645 84.5397 236.921 83.6645L239.199 78.3362C240.408 78.954 241.695 79.4302 243.06 79.7648C244.45 80.0737 245.788 80.2282 247.075 80.2282C248.774 80.2282 250.164 79.9579 251.245 79.4173C252.326 78.851 252.867 78.0659 252.867 77.062C252.867 76.2641 252.532 75.672 251.863 75.2859C251.194 74.8998 250.293 74.7068 249.16 74.7068H242.249V69.1082H248.542C249.572 69.1082 250.37 68.9022 250.936 68.4904C251.503 68.0785 251.786 67.5251 251.786 66.8301C251.786 65.9549 251.348 65.2857 250.473 64.8223C249.598 64.3333 248.465 64.0887 247.075 64.0887C245.943 64.0887 244.746 64.256 243.484 64.5907C242.223 64.8995 241.026 65.35 239.894 65.942L237.654 60.1504C240.537 58.7604 243.703 58.0654 247.152 58.0654C249.366 58.0654 251.413 58.3871 253.292 59.0307C255.196 59.6484 256.702 60.5494 257.809 61.7334C258.942 62.9175 259.508 64.3204 259.508 65.942C259.508 67.2033 259.173 68.3359 258.504 69.3398C257.861 70.318 256.96 71.0902 255.801 71.6565ZM264.723 58.6832H272.252V74.5523L283.411 58.6832H290.592V85.7109H283.063V69.8804L271.943 85.7109H264.723V58.6832ZM316.088 71.5793C317.684 72.0941 318.894 72.892 319.717 73.9732C320.567 75.0543 320.991 76.3928 320.991 77.9887C320.991 80.3826 320.052 82.2745 318.173 83.6645C316.319 85.0288 313.681 85.7109 310.257 85.7109H296.396V58.6832H309.524C312.767 58.6832 315.277 59.3009 317.053 60.5365C318.855 61.7463 319.756 63.4709 319.756 65.7104C319.756 67.0232 319.434 68.1815 318.791 69.1854C318.173 70.1893 317.272 70.9872 316.088 71.5793ZM303.925 69.4943H308.79C310.952 69.4943 312.034 68.6062 312.034 66.8301C312.034 65.054 310.952 64.1659 308.79 64.1659H303.925V69.4943ZM309.949 80.2282C312.162 80.2282 313.269 79.2886 313.269 77.4095C313.269 75.582 312.162 74.6682 309.949 74.6682H303.925V80.2282H309.949Z" fill="#FC6652"/>
</g>
<defs>
<filter id="filter0_d_3333_10" x="0.308197" y="12.0654" width="370.683" height="128.225" filterUnits="userSpaceOnUse" color-interpolation-filters="sRGB">
<feFlood flood-opacity="0" result="BackgroundImageFix"/>
<feColorMatrix in="SourceAlpha" type="matrix" values="0 0 0 0 0 0 0 0 0 0 0 0 0 0 0 0 0 0 127 0" result="hardAlpha"/>
<feOffset dy="4"/>
<feGaussianBlur stdDeviation="25"/>
<feColorMatrix type="matrix" values="0 0 0 0 0.988235 0 0 0 0 0.4 0 0 0 0 0.321569 0 0 0 0.53 0"/>
<feBlend mode="normal" in2="BackgroundImageFix" result="effect1_dropShadow_3333_10"/>
<feBlend mode="normal" in="SourceGraphic" in2="effect1_dropShadow_3333_10" result="shape"/>
</filter>
</defs>
</svg>
