<svg width="361" height="336" viewBox="0 0 361 336" fill="none" xmlns="http://www.w3.org/2000/svg">
<g filter="url(#filter0_bd_401_335)">
<path d="M25 66.3024C25 59.5074 30.5084 53.999 37.3034 53.999H212.011C218.806 53.999 224.315 59.5074 224.315 66.3024V260.696C224.315 267.491 218.806 272.999 212.011 272.999H37.3034C30.5084 272.999 25 267.491 25 260.696V66.3024Z" fill="#FBFBFB"/>
</g>
<g filter="url(#filter1_bd_401_335)">
<path d="M36 58.2574C36 50.935 41.936 44.999 49.2584 44.999H237.528C244.851 44.999 250.787 50.935 250.787 58.2575V267.741C250.787 275.063 244.851 280.999 237.528 280.999H49.2584C41.936 280.999 36 275.063 36 267.741V58.2574Z" fill="#FBFBFB"/>
</g>
<g filter="url(#filter2_bd_401_335)">
<path d="M46 46.0921C46 37.7095 52.7955 30.9141 61.1781 30.9141H276.707C285.089 30.9141 291.885 37.7095 291.885 46.0921V285.906C291.885 294.288 285.089 301.084 276.707 301.084H61.1781C52.7955 301.084 46 294.288 46 285.906V46.0921Z" fill="#FBFBFB"/>
</g>
<circle cx="109.369" cy="80.6227" r="12.9014" stroke="#CECECE" stroke-width="2.27671"/>
<path d="M122.27 80.6227C122.27 82.7519 121.743 84.848 120.736 86.724C119.729 88.6001 118.274 90.1977 116.499 91.3745C114.725 92.5513 112.687 93.2706 110.567 93.4684C108.447 93.6661 106.311 93.336 104.349 92.5077" stroke="#FC6652" stroke-width="2.27671" stroke-linecap="round" stroke-linejoin="round"/>
<path d="M46 65.8232H79.3918V301.084H61.1781C52.7955 301.084 46 294.288 46 285.905V65.8232Z" fill="#FC6652"/>
<path d="M68.9519 84.5749C68.9515 84.5746 68.9512 84.5742 68.9509 84.5739L63.4651 79.0883C63.2313 78.8544 62.9204 78.7256 62.5897 78.7256C62.259 78.7256 61.9481 78.8544 61.7142 79.0883L56.2313 84.5711C56.2294 84.573 56.2275 84.5749 56.2257 84.5767C55.7456 85.0597 55.7464 85.8433 56.2281 86.325C56.4482 86.5452 56.7387 86.6726 57.0495 86.686C57.0623 86.6873 57.075 86.6879 57.0878 86.6879H57.3063V90.7248C57.3063 91.5238 57.9564 92.1738 58.7554 92.1738H60.9016C61.1192 92.1738 61.2956 91.9973 61.2956 91.7798V88.6147C61.2956 88.2502 61.5922 87.9537 61.9568 87.9537H63.2227C63.5872 87.9537 63.8837 88.2502 63.8837 88.6147V91.7798C63.8837 91.9973 64.0601 92.1738 64.2777 92.1738H66.4239C67.223 92.1738 67.873 91.5238 67.873 90.7248V86.6879H68.0757C68.4063 86.6879 68.7172 86.5591 68.9512 86.3251C69.4334 85.8426 69.4336 85.0576 68.9519 84.5749ZM68.394 85.768C68.3089 85.853 68.1959 85.8999 68.0757 85.8999H67.479C67.2614 85.8999 67.085 86.0763 67.085 86.2939V90.7248C67.085 91.0893 66.7885 91.3858 66.4239 91.3858H64.6717V88.6147C64.6717 87.8158 64.0217 87.1657 63.2227 87.1657H61.9568C61.1577 87.1657 60.5076 87.8158 60.5076 88.6147V91.3858H58.7554C58.3909 91.3858 58.0943 91.0893 58.0943 90.7248V86.2939C58.0943 86.0763 57.9179 85.8999 57.7003 85.8999H57.1139C57.1077 85.8995 57.1017 85.8992 57.0954 85.8991C56.978 85.897 56.8679 85.8504 56.7854 85.7678C56.61 85.5924 56.61 85.3069 56.7854 85.1313C56.7855 85.1313 56.7855 85.1312 56.7856 85.1311L56.7859 85.1308L62.2715 79.6454C62.3565 79.5604 62.4695 79.5136 62.5897 79.5136C62.7099 79.5136 62.8228 79.5604 62.9079 79.6454L68.3922 85.1297C68.3931 85.1305 68.394 85.1313 68.3948 85.1321C68.5693 85.3079 68.569 85.5928 68.394 85.768Z" fill="white" fill-opacity="0.7"/>
<path d="M69.5255 128.146H55.8652V128.601H69.5255V128.146Z" fill="white" fill-opacity="0.7"/>
<path d="M69.5755 128.146V128.096H69.5255H55.8652H55.8152V128.146V128.601V128.651H55.8652H69.5255H69.5755V128.601V128.146Z" stroke="white" stroke-opacity="0.7" stroke-width="0.1"/>
<path d="M56.7762 127.69H59.0529C59.1787 127.69 59.2806 127.588 59.2806 127.462V123.364C59.2806 123.238 59.1787 123.136 59.0529 123.136H56.7762C56.6505 123.136 56.5485 123.238 56.5485 123.364V127.462C56.5485 127.588 56.6505 127.69 56.7762 127.69ZM57.0039 123.592H58.8253V127.235H57.0039V123.592Z" fill="white" fill-opacity="0.7"/>
<path d="M56.7762 127.74H59.0529C59.2063 127.74 59.3306 127.616 59.3306 127.462V123.364C59.3306 123.211 59.2063 123.086 59.0529 123.086H56.7762C56.6229 123.086 56.4985 123.211 56.4985 123.364V127.462C56.4985 127.616 56.6229 127.74 56.7762 127.74ZM57.0539 123.642H58.7753V127.185H57.0539V123.642Z" stroke="white" stroke-opacity="0.7" stroke-width="0.1"/>
<path d="M63.1513 127.69H65.428C65.5538 127.69 65.6557 127.588 65.6557 127.462V120.632C65.6557 120.507 65.5538 120.405 65.428 120.405H63.1513C63.0256 120.405 62.9236 120.507 62.9236 120.632V127.462C62.9236 127.588 63.0256 127.69 63.1513 127.69ZM63.379 120.86H65.2003V127.235H63.379V120.86Z" fill="white" fill-opacity="0.7"/>
<path d="M63.1513 127.74H65.428C65.5814 127.74 65.7057 127.616 65.7057 127.462V120.632C65.7057 120.479 65.5814 120.355 65.428 120.355H63.1513C62.998 120.355 62.8736 120.479 62.8736 120.632V127.462C62.8736 127.616 62.998 127.74 63.1513 127.74ZM63.429 120.91H65.1503V127.185H63.429V120.91Z" stroke="white" stroke-opacity="0.7" stroke-width="0.1"/>
<path d="M59.963 127.69H62.2397C62.3655 127.69 62.4674 127.588 62.4674 127.462V117.9C62.4674 117.774 62.3655 117.672 62.2397 117.672H59.963C59.8373 117.672 59.7354 117.774 59.7354 117.9V127.462C59.7354 127.588 59.8373 127.69 59.963 127.69ZM60.1907 118.128H62.0121V127.234H60.1907V118.128Z" fill="white" fill-opacity="0.7"/>
<path d="M59.963 127.74H62.2397C62.3931 127.74 62.5174 127.615 62.5174 127.462V117.9C62.5174 117.747 62.3931 117.622 62.2397 117.622H59.963C59.8097 117.622 59.6854 117.747 59.6854 117.9V127.462C59.6854 127.615 59.8097 127.74 59.963 127.74ZM60.2407 118.178H61.9621V127.184H60.2407V118.178Z" stroke="white" stroke-opacity="0.7" stroke-width="0.1"/>
<path d="M66.3381 127.69H68.6148C68.7406 127.69 68.8425 127.588 68.8425 127.462V115.168C68.8425 115.042 68.7406 114.94 68.6148 114.94H66.3381C66.2124 114.94 66.1104 115.042 66.1104 115.168V127.462C66.1104 127.588 66.2124 127.69 66.3381 127.69ZM66.5658 115.396H68.3872V127.235H66.5658V115.396Z" fill="white" fill-opacity="0.7"/>
<path d="M66.3381 127.74H68.6148C68.7682 127.74 68.8925 127.616 68.8925 127.462V115.168C68.8925 115.015 68.7682 114.89 68.6148 114.89H66.3381C66.1848 114.89 66.0604 115.015 66.0604 115.168V127.462C66.0604 127.616 66.1848 127.74 66.3381 127.74ZM66.6158 115.446H68.3372V127.185H66.6158V115.446Z" stroke="white" stroke-opacity="0.7" stroke-width="0.1"/>
<path d="M66.0586 194.389V193.186C66.0586 191.431 64.8919 189.943 63.2933 189.457V188.912C63.2933 188.289 62.7858 187.781 62.1621 187.781C61.5383 187.781 61.0308 188.289 61.0308 188.912V189.457C59.4323 189.943 58.2656 191.431 58.2656 193.186V194.389C58.2656 195.931 57.6779 197.393 56.6108 198.506C56.5062 198.615 56.4768 198.776 56.5361 198.915C56.5954 199.054 56.7319 199.144 56.883 199.144H60.3146C60.4898 200.003 61.2516 200.652 62.1621 200.652C63.0726 200.652 63.8343 200.003 64.0095 199.144H67.4412C67.5923 199.144 67.7288 199.054 67.788 198.915C67.8473 198.776 67.8179 198.615 67.7134 198.506C66.6463 197.393 66.0586 195.931 66.0586 194.389ZM61.785 188.912C61.785 188.705 61.9542 188.535 62.1621 188.535C62.37 188.535 62.5392 188.705 62.5392 188.912V189.308C62.415 189.296 62.2893 189.29 62.1621 189.29C62.0349 189.29 61.9091 189.296 61.785 189.308V188.912ZM62.1621 199.898C61.6705 199.898 61.2514 199.583 61.0957 199.144H63.2285C63.0728 199.583 62.6537 199.898 62.1621 199.898ZM57.6957 198.39C58.5545 197.239 59.0198 195.846 59.0198 194.389V193.186C59.0198 191.453 60.4294 190.044 62.1621 190.044C63.8948 190.044 65.3044 191.453 65.3044 193.186V194.389C65.3044 195.846 65.7697 197.239 66.6285 198.39H57.6957Z" fill="white" fill-opacity="0.7"/>
<path d="M67.0643 193.186C67.0643 193.394 67.2331 193.563 67.4414 193.563C67.6496 193.563 67.8184 193.394 67.8184 193.186C67.8184 191.675 67.2301 190.255 66.1618 189.186C66.0145 189.039 65.7758 189.039 65.6285 189.186C65.4813 189.334 65.4813 189.572 65.6285 189.72C66.5544 190.646 67.0643 191.877 67.0643 193.186Z" fill="white" fill-opacity="0.7"/>
<path d="M56.8832 193.563C57.0914 193.563 57.2602 193.394 57.2602 193.186C57.2602 191.877 57.7702 190.646 58.696 189.72C58.8433 189.572 58.8433 189.334 58.696 189.186C58.5488 189.039 58.31 189.039 58.1627 189.186C57.0944 190.255 56.5061 191.675 56.5061 193.186C56.5061 193.394 56.6749 193.563 56.8832 193.563Z" fill="white" fill-opacity="0.7"/>
<path d="M69.4312 156.269L67.905 152.301C67.6158 151.55 66.7733 151.177 66.0232 151.466C66.0123 151.47 66.0014 151.475 65.9906 151.479L58.364 154.64C57.6378 154.938 57.2809 155.76 57.5591 156.494L57.7688 157.054H57.2877C56.503 157.055 55.8671 157.691 55.8662 158.476V163.593C55.8671 164.378 56.503 165.014 57.2877 165.015H66.9541C67.7388 165.014 68.3747 164.378 68.3756 163.593V158.476C68.3752 158.398 68.3683 158.321 68.3551 158.245L68.6192 158.139C69.3519 157.838 69.712 157.009 69.4312 156.269ZM57.2877 157.509H66.9541C67.4646 157.51 67.8857 157.909 67.915 158.419H56.3268C56.3561 157.909 56.7772 157.51 57.2877 157.509ZM59.5738 156.139L61.094 155.379L61.4065 156.16L59.8863 156.92L59.5738 156.139ZM67.9207 163.593C67.9201 164.127 67.4877 164.559 66.9541 164.56H57.2877C56.7541 164.559 56.3217 164.127 56.3211 163.593V160.693H67.9207V163.593ZM67.9207 160.238H56.3211V158.874H67.9207V160.238ZM68.4486 157.718L68.2109 157.814C67.9654 157.348 67.4816 157.055 66.9541 157.054H60.6362L61.7973 156.473C61.9031 156.421 61.9508 156.295 61.9069 156.186L61.4245 154.98C61.3778 154.863 61.2455 154.807 61.1289 154.853C61.123 154.856 61.1172 154.858 61.1115 154.861L59.183 155.826C59.0773 155.879 59.0297 156.004 59.0736 156.114L59.4498 157.054H58.2544L57.9851 156.336C57.7942 155.832 58.0394 155.267 58.5382 155.062L66.1646 151.901C66.6745 151.689 67.2592 151.931 67.4706 152.441C67.4739 152.449 67.4771 152.457 67.4802 152.465L69.0063 156.433C69.1994 156.942 68.9521 157.512 68.4486 157.718Z" fill="white" fill-opacity="0.7"/>
<path d="M66.9541 157.004H66.9542C67.4851 157.005 67.9733 157.291 68.2335 157.751L68.4296 157.672C68.4297 157.672 68.4297 157.672 68.4298 157.672C68.9081 157.476 69.143 156.934 68.9596 156.451L67.4335 152.483L67.4335 152.483C67.4306 152.475 67.4276 152.468 67.4244 152.46L67.4244 152.46C67.2236 151.976 66.6681 151.746 66.1838 151.947L66.1646 151.901L66.1838 151.947L58.5574 155.108L58.5572 155.108C58.0834 155.303 57.8505 155.839 58.0318 156.318L58.0319 156.318L58.289 157.004H59.376L59.0272 156.132C58.9736 155.998 59.0316 155.846 59.1607 155.781L59.1607 155.781L61.0891 154.816L66.9541 157.004ZM66.9541 157.004H60.8479M66.9541 157.004L60.7479 157.054L60.8479 157.004M61.9533 156.167L61.9533 156.167C62.0069 156.301 61.9487 156.454 61.8196 156.518M61.9533 156.167L60.7361 157.004H60.8479M61.9533 156.167L61.4709 154.961M61.9533 156.167L61.1102 154.807M61.8196 156.518L61.7973 156.473L61.8196 156.518L61.8196 156.518ZM61.8196 156.518L60.8479 157.004M61.1102 154.807L61.1103 154.807C61.2526 154.75 61.414 154.819 61.4709 154.961M61.1102 154.807C61.1032 154.81 61.0961 154.813 61.0892 154.816L61.1102 154.807ZM61.4709 154.961L61.4245 154.98L61.4709 154.961L61.4709 154.961ZM66.9539 157.559H57.2879L57.2877 157.559M66.9539 157.559L57.2877 157.509V157.559M66.9539 157.559C66.954 157.559 66.954 157.559 66.9541 157.559C67.4203 157.56 67.8078 157.911 67.8606 158.369M66.9539 157.559L66.9541 157.509L67.8606 158.369M57.2877 157.559C56.8215 157.56 56.434 157.911 56.3813 158.369M57.2877 157.559L56.3813 158.369M56.3813 158.369H67.8606M56.3813 158.369H67.8606M66.954 164.51C67.4601 164.509 67.8701 164.099 67.8707 163.593V160.743H56.3711L56.3711 163.593L56.3711 163.593M66.954 164.51L56.3211 163.593H56.3711M66.954 164.51H57.2878M66.954 164.51H57.2878M56.3711 163.593C56.3717 164.099 56.7818 164.509 57.2878 164.51M56.3711 163.593L57.2878 164.51M69.4779 156.251L69.4778 156.251L67.9517 152.283L67.9517 152.283C67.6526 151.507 66.7811 151.12 66.0052 151.419L66.0052 151.419C65.994 151.424 65.9827 151.428 65.9715 151.433L65.9715 151.433L58.345 154.594C58.345 154.594 58.345 154.594 58.3449 154.594C57.5938 154.902 57.2246 155.753 57.5123 156.512C57.5123 156.512 57.5123 156.512 57.5123 156.512L57.6967 157.004H57.2877H57.2877C56.4754 157.005 55.8171 157.663 55.8162 158.476V158.476L55.8162 163.593L55.8162 163.593C55.8171 164.405 56.4754 165.064 57.2877 165.065H57.2877H66.9541H66.9541C67.7664 165.064 68.4247 164.405 68.4256 163.593V163.593L68.4256 158.476L68.4256 158.475C68.4252 158.409 68.4202 158.343 68.4108 158.277L68.638 158.185L68.6382 158.185C69.3959 157.874 69.7683 157.017 69.4779 156.251ZM59.9125 156.851L59.6373 156.163L61.0678 155.448L61.343 156.136L59.9125 156.851ZM67.8707 160.188H56.3711V158.924H67.8707V160.188Z" stroke="white" stroke-opacity="0.7" stroke-width="0.1"/>
<path d="M64.0467 163.92C64.4705 164.166 64.9939 164.166 65.4178 163.92C66.0694 164.299 66.9047 164.077 67.2833 163.426C67.6619 162.774 67.4405 161.939 66.7888 161.56C66.5797 161.439 66.342 161.375 66.1001 161.375C65.8603 161.376 65.6249 161.439 65.4178 161.56C64.7661 161.182 63.9309 161.403 63.5522 162.055C63.1736 162.706 63.395 163.542 64.0467 163.92ZM65.7981 161.886C65.8948 161.85 65.997 161.831 66.1001 161.83C66.6025 161.83 67.0099 162.238 67.0099 162.74C67.0099 163.243 66.6025 163.65 66.1001 163.65C65.997 163.649 65.8948 163.63 65.7981 163.594C66.2007 163.096 66.2007 162.384 65.7981 161.886ZM65.4178 162.145C65.721 162.484 65.721 162.997 65.4178 163.336C65.1145 162.997 65.1145 162.484 65.4178 162.145ZM64.7354 161.83C64.8386 161.831 64.9407 161.85 65.0375 161.886C64.6348 162.384 64.6348 163.096 65.0375 163.594C64.9407 163.63 64.8386 163.649 64.7354 163.65C64.233 163.65 63.8257 163.243 63.8257 162.74C63.8257 162.238 64.233 161.83 64.7354 161.83Z" fill="white" fill-opacity="0.7"/>
<path d="M66.1 161.325C65.8611 161.326 65.6263 161.387 65.4177 161.503C64.746 161.13 63.8966 161.362 63.509 162.029L63.509 162.029C63.1165 162.705 63.346 163.571 64.0216 163.963L64.0216 163.963C64.4526 164.214 64.983 164.219 65.4178 163.978C66.0895 164.35 66.9389 164.118 67.3265 163.451C67.719 162.775 67.4895 161.909 66.8139 161.517C66.5971 161.391 66.3508 161.325 66.1 161.325ZM66.1 161.325C66.1 161.325 66.1001 161.325 66.1001 161.325L66.1001 161.375L66.1 161.325C66.1 161.325 66.1 161.325 66.1 161.325ZM66.1004 163.6C66.026 163.599 65.9522 163.589 65.8808 163.569C66.2398 163.075 66.2398 162.405 65.8808 161.912C65.9522 161.892 66.026 161.881 66.1004 161.88C66.5751 161.881 66.9599 162.265 66.9599 162.74C66.9599 163.215 66.5751 163.6 66.1004 163.6ZM65.4178 163.258C65.1812 162.954 65.1812 162.527 65.4178 162.223C65.6544 162.527 65.6544 162.954 65.4178 163.258ZM63.8757 162.74C63.8757 162.265 64.2605 161.881 64.7352 161.88C64.8095 161.881 64.8833 161.892 64.9547 161.912C64.5957 162.405 64.5957 163.075 64.9547 163.569C64.8833 163.589 64.8095 163.599 64.7352 163.6C64.2604 163.6 63.8757 163.215 63.8757 162.74Z" stroke="white" stroke-opacity="0.7" stroke-width="0.1"/>
<path d="M65.46 156.062L65.6448 156.478L67.8146 155.513L67.6299 155.098L65.46 156.062Z" fill="white" fill-opacity="0.7"/>
<path d="M65.4397 156.017L65.394 156.037L65.4143 156.083L65.5991 156.498L65.6194 156.544L65.6651 156.524L67.8349 155.559L67.8806 155.539L67.8603 155.493L67.6755 155.077L67.6552 155.032L67.6095 155.052L65.4397 156.017Z" stroke="white" stroke-opacity="0.7" stroke-width="0.1"/>
<path d="M67.1455 154.135L64.0114 155.581L64.2019 155.994L67.3361 154.547L67.1455 154.135Z" fill="white" fill-opacity="0.7"/>
<path d="M67.1909 154.114L67.1699 154.068L67.1245 154.089L63.9904 155.536L63.945 155.557L63.966 155.602L64.1565 156.015L64.1775 156.06L64.2229 156.039L67.357 154.593L67.4024 154.572L67.3815 154.526L67.1909 154.114Z" stroke="white" stroke-opacity="0.7" stroke-width="0.1"/>
<path fill-rule="evenodd" clip-rule="evenodd" d="M69.639 53.1012C70.2707 51.9781 70.6311 50.6818 70.6311 49.3014C70.6311 45.0144 67.1558 41.5391 62.8688 41.5391C58.5817 41.5391 55.1064 45.0144 55.1064 49.3014C55.1064 53.5884 58.5817 57.0637 62.8688 57.0637C63.6911 57.0637 64.4836 56.9358 65.2274 56.6988L61.9324 53.4037C60.0596 52.9781 58.6618 51.303 58.6618 49.3014C58.6618 46.9779 60.5453 45.0944 62.8688 45.0944C65.1922 45.0944 67.0757 46.9779 67.0757 49.3014C67.0757 49.6795 67.0258 50.0459 66.9323 50.3945L69.639 53.1012Z" fill="#FC6652"/>
<rect width="9.83226" height="3.19219" rx="1.59609" transform="matrix(-0.707107 -0.707107 -0.707107 0.707107 71.0438 56.2537)" fill="#494947"/>
<rect x="95" y="46.0928" width="39.463" height="3.03562" rx="1.51781" fill="#DFDFDF"/>
<rect x="145.847" y="46.0928" width="39.463" height="3.03562" rx="1.51781" fill="#DFDFDF"/>
<rect x="196.693" y="46.0928" width="39.463" height="3.03562" rx="1.51781" fill="#DFDFDF"/>
<g filter="url(#filter3_d_401_335)">
<g filter="url(#filter4_d_401_335)">
<rect x="102.159" y="153.856" width="220.841" height="30.3562" rx="7.58904" fill="white"/>
</g>
<circle cx="121.511" cy="168.655" r="11.0041" fill="#F1F1F1"/>
<path d="M123.713 171.602H119.273L118.426 173.651H116.159L120.421 164.089H122.606L126.882 173.651H124.56L123.713 171.602ZM123.016 169.922L121.5 166.261L119.984 169.922H123.016Z" fill="#FC6652"/>
<rect x="143.14" y="160.687" width="169.995" height="3.03562" rx="1.51781" fill="#C7C7C7"/>
<rect x="143.14" y="167.517" width="169.995" height="3.03562" rx="1.51781" fill="#C7C7C7"/>
<rect x="143.14" y="174.347" width="169.995" height="3.03562" rx="1.51781" fill="#C7C7C7"/>
</g>
<g filter="url(#filter5_d_401_335)">
<g filter="url(#filter6_d_401_335)">
<rect x="102.159" y="203.186" width="220.841" height="30.3562" rx="7.58904" fill="#FC6652"/>
</g>
<circle cx="121.511" cy="217.984" r="11.0041" fill="#F0968A"/>
<path d="M124.443 218.008C124.99 218.181 125.418 218.472 125.728 218.882C126.037 219.282 126.192 219.779 126.192 220.371C126.192 221.209 125.864 221.855 125.208 222.311C124.562 222.757 123.615 222.98 122.367 222.98H117.422V213.418H122.094C123.26 213.418 124.152 213.641 124.771 214.087C125.4 214.533 125.714 215.139 125.714 215.904C125.714 216.368 125.6 216.783 125.372 217.147C125.154 217.511 124.844 217.798 124.443 218.008ZM119.621 215.084V217.338H121.821C122.367 217.338 122.781 217.243 123.064 217.051C123.346 216.86 123.487 216.578 123.487 216.204C123.487 215.831 123.346 215.553 123.064 215.371C122.781 215.18 122.367 215.084 121.821 215.084H119.621ZM122.203 221.313C122.786 221.313 123.223 221.218 123.515 221.026C123.815 220.835 123.965 220.539 123.965 220.139C123.965 219.346 123.378 218.95 122.203 218.95H119.621V221.313H122.203Z" fill="white"/>
<rect x="143.14" y="210.016" width="169.995" height="3.03562" rx="1.51781" fill="white"/>
<rect x="143.14" y="216.846" width="169.995" height="3.03562" rx="1.51781" fill="white"/>
<rect x="143.14" y="223.676" width="169.995" height="3.03562" rx="1.51781" fill="white"/>
</g>
<g filter="url(#filter7_d_401_335)">
<g filter="url(#filter8_d_401_335)">
<rect x="102.159" y="252.515" width="220.841" height="30.3562" rx="7.58904" fill="white"/>
</g>
<circle cx="121.511" cy="267.313" r="11.0041" fill="#F1F1F1"/>
<path d="M122.212 272.473C121.237 272.473 120.354 272.263 119.562 271.844C118.778 271.416 118.159 270.829 117.704 270.082C117.258 269.326 117.034 268.475 117.034 267.527C117.034 266.58 117.258 265.733 117.704 264.987C118.159 264.231 118.778 263.643 119.562 263.225C120.354 262.796 121.242 262.582 122.225 262.582C123.054 262.582 123.801 262.728 124.466 263.02C125.14 263.311 125.704 263.73 126.16 264.276L124.739 265.588C124.092 264.841 123.291 264.468 122.335 264.468C121.743 264.468 121.215 264.6 120.75 264.864C120.286 265.119 119.921 265.478 119.657 265.943C119.402 266.407 119.275 266.936 119.275 267.527C119.275 268.119 119.402 268.648 119.657 269.112C119.921 269.577 120.286 269.941 120.75 270.205C121.215 270.46 121.743 270.587 122.335 270.587C123.291 270.587 124.092 270.209 124.739 269.454L126.16 270.765C125.704 271.321 125.14 271.744 124.466 272.035C123.792 272.327 123.04 272.473 122.212 272.473Z" fill="#FC6652"/>
<rect x="143.14" y="259.345" width="169.995" height="3.03562" rx="1.51781" fill="#C7C7C7"/>
<rect x="143.14" y="266.175" width="169.995" height="3.03562" rx="1.51781" fill="#C7C7C7"/>
<rect x="143.14" y="273.005" width="169.995" height="3.03562" rx="1.51781" fill="#C7C7C7"/>
</g>
<path d="M105.964 84.7014C105.392 84.7014 104.882 84.56 104.435 84.2772C103.988 83.9944 103.636 83.5866 103.379 83.0538C103.13 82.5145 103.005 81.8732 103.005 81.13C103.005 80.3868 103.13 79.7488 103.379 79.216C103.636 78.6767 103.988 78.2656 104.435 77.9828C104.882 77.7 105.392 77.5586 105.964 77.5586C106.537 77.5586 107.046 77.7 107.494 77.9828C107.941 78.2656 108.289 78.6767 108.539 79.216C108.796 79.7488 108.924 80.3868 108.924 81.13C108.924 81.8732 108.796 82.5145 108.539 83.0538C108.289 83.5866 107.941 83.9944 107.494 84.2772C107.046 84.56 106.537 84.7014 105.964 84.7014ZM105.964 83.3498C106.385 83.3498 106.714 83.1689 106.951 82.8072C107.194 82.4454 107.316 81.8864 107.316 81.13C107.316 80.3736 107.194 79.8146 106.951 79.4528C106.714 79.0911 106.385 78.9102 105.964 78.9102C105.55 78.9102 105.221 79.0911 104.978 79.4528C104.741 79.8146 104.623 80.3736 104.623 81.13C104.623 81.8864 104.741 82.4454 104.978 82.8072C105.221 83.1689 105.55 83.3498 105.964 83.3498ZM116.025 83.1327H114.9V84.583H113.341V83.1327H109.622V82.0574L112.877 77.677H114.555L111.536 81.8305H113.39V80.538H114.9V81.8305H116.025V83.1327Z" fill="#494947"/>
<rect x="95" y="103.769" width="168.477" height="3.79452" rx="1.89726" fill="#A0A0A0"/>
<rect x="95" y="113.635" width="155.575" height="3.79452" rx="1.89726" fill="#A0A0A0"/>
<rect x="95" y="123.501" width="129.014" height="3.79452" rx="1.89726" fill="#A0A0A0"/>
<rect x="130.238" y="73.4131" width="137.362" height="5.31233" rx="2.65616" fill="#8C8C8C"/>
<rect x="130.238" y="82.5195" width="89.5507" height="5.31233" rx="2.65616" fill="#8C8C8C"/>
<defs>
<filter id="filter0_bd_401_335" x="0.393257" y="29.3923" width="248.528" height="268.213" filterUnits="userSpaceOnUse" color-interpolation-filters="sRGB">
<feFlood flood-opacity="0" result="BackgroundImageFix"/>
<feGaussianBlur in="BackgroundImageFix" stdDeviation="1.23034"/>
<feComposite in2="SourceAlpha" operator="in" result="effect1_backgroundBlur_401_335"/>
<feColorMatrix in="SourceAlpha" type="matrix" values="0 0 0 0 0 0 0 0 0 0 0 0 0 0 0 0 0 0 127 0" result="hardAlpha"/>
<feOffset/>
<feGaussianBlur stdDeviation="12.3034"/>
<feColorMatrix type="matrix" values="0 0 0 0 0.420833 0 0 0 0 0.346206 0 0 0 0 0.322639 0 0 0 0.46 0"/>
<feBlend mode="normal" in2="effect1_backgroundBlur_401_335" result="effect2_dropShadow_401_335"/>
<feBlend mode="normal" in="SourceGraphic" in2="effect2_dropShadow_401_335" result="shape"/>
</filter>
<filter id="filter1_bd_401_335" x="9.48315" y="18.4822" width="267.82" height="289.034" filterUnits="userSpaceOnUse" color-interpolation-filters="sRGB">
<feFlood flood-opacity="0" result="BackgroundImageFix"/>
<feGaussianBlur in="BackgroundImageFix" stdDeviation="1.32584"/>
<feComposite in2="SourceAlpha" operator="in" result="effect1_backgroundBlur_401_335"/>
<feColorMatrix in="SourceAlpha" type="matrix" values="0 0 0 0 0 0 0 0 0 0 0 0 0 0 0 0 0 0 127 0" result="hardAlpha"/>
<feOffset/>
<feGaussianBlur stdDeviation="13.2584"/>
<feColorMatrix type="matrix" values="0 0 0 0 0.420833 0 0 0 0 0.346206 0 0 0 0 0.322639 0 0 0 0.46 0"/>
<feBlend mode="normal" in2="effect1_backgroundBlur_401_335" result="effect2_dropShadow_401_335"/>
<feBlend mode="normal" in="SourceGraphic" in2="effect2_dropShadow_401_335" result="shape"/>
</filter>
<filter id="filter2_bd_401_335" x="15.6438" y="0.557899" width="306.597" height="330.882" filterUnits="userSpaceOnUse" color-interpolation-filters="sRGB">
<feFlood flood-opacity="0" result="BackgroundImageFix"/>
<feGaussianBlur in="BackgroundImageFix" stdDeviation="1.51781"/>
<feComposite in2="SourceAlpha" operator="in" result="effect1_backgroundBlur_401_335"/>
<feColorMatrix in="SourceAlpha" type="matrix" values="0 0 0 0 0 0 0 0 0 0 0 0 0 0 0 0 0 0 127 0" result="hardAlpha"/>
<feOffset/>
<feGaussianBlur stdDeviation="15.1781"/>
<feColorMatrix type="matrix" values="0 0 0 0 0.420833 0 0 0 0 0.346206 0 0 0 0 0.322639 0 0 0 0.46 0"/>
<feBlend mode="normal" in2="effect1_backgroundBlur_401_335" result="effect2_dropShadow_401_335"/>
<feBlend mode="normal" in="SourceGraphic" in2="effect2_dropShadow_401_335" result="shape"/>
</filter>
<filter id="filter3_d_401_335" x="92.1591" y="147.856" width="240.841" height="50.3562" filterUnits="userSpaceOnUse" color-interpolation-filters="sRGB">
<feFlood flood-opacity="0" result="BackgroundImageFix"/>
<feColorMatrix in="SourceAlpha" type="matrix" values="0 0 0 0 0 0 0 0 0 0 0 0 0 0 0 0 0 0 127 0" result="hardAlpha"/>
<feOffset dy="4"/>
<feGaussianBlur stdDeviation="5"/>
<feColorMatrix type="matrix" values="0 0 0 0 0.1875 0 0 0 0 0.151406 0 0 0 0 0.135937 0 0 0 0.19 0"/>
<feBlend mode="normal" in2="BackgroundImageFix" result="effect1_dropShadow_401_335"/>
<feBlend mode="normal" in="SourceGraphic" in2="effect1_dropShadow_401_335" result="shape"/>
</filter>
<filter id="filter4_d_401_335" x="64.2139" y="131.089" width="296.732" height="106.247" filterUnits="userSpaceOnUse" color-interpolation-filters="sRGB">
<feFlood flood-opacity="0" result="BackgroundImageFix"/>
<feColorMatrix in="SourceAlpha" type="matrix" values="0 0 0 0 0 0 0 0 0 0 0 0 0 0 0 0 0 0 127 0" result="hardAlpha"/>
<feOffset dy="15.1781"/>
<feGaussianBlur stdDeviation="18.9726"/>
<feColorMatrix type="matrix" values="0 0 0 0 0.483606 0 0 0 0 0.337125 0 0 0 0 0.290867 0 0 0 0.22 0"/>
<feBlend mode="normal" in2="BackgroundImageFix" result="effect1_dropShadow_401_335"/>
<feBlend mode="normal" in="SourceGraphic" in2="effect1_dropShadow_401_335" result="shape"/>
</filter>
<filter id="filter5_d_401_335" x="92.1591" y="197.186" width="240.841" height="50.3562" filterUnits="userSpaceOnUse" color-interpolation-filters="sRGB">
<feFlood flood-opacity="0" result="BackgroundImageFix"/>
<feColorMatrix in="SourceAlpha" type="matrix" values="0 0 0 0 0 0 0 0 0 0 0 0 0 0 0 0 0 0 127 0" result="hardAlpha"/>
<feOffset dy="4"/>
<feGaussianBlur stdDeviation="5"/>
<feColorMatrix type="matrix" values="0 0 0 0 0.1875 0 0 0 0 0.151406 0 0 0 0 0.135937 0 0 0 0.19 0"/>
<feBlend mode="normal" in2="BackgroundImageFix" result="effect1_dropShadow_401_335"/>
<feBlend mode="normal" in="SourceGraphic" in2="effect1_dropShadow_401_335" result="shape"/>
</filter>
<filter id="filter6_d_401_335" x="64.2139" y="180.418" width="296.732" height="106.247" filterUnits="userSpaceOnUse" color-interpolation-filters="sRGB">
<feFlood flood-opacity="0" result="BackgroundImageFix"/>
<feColorMatrix in="SourceAlpha" type="matrix" values="0 0 0 0 0 0 0 0 0 0 0 0 0 0 0 0 0 0 127 0" result="hardAlpha"/>
<feOffset dy="15.1781"/>
<feGaussianBlur stdDeviation="18.9726"/>
<feColorMatrix type="matrix" values="0 0 0 0 0.483606 0 0 0 0 0.337125 0 0 0 0 0.290867 0 0 0 0.22 0"/>
<feBlend mode="normal" in2="BackgroundImageFix" result="effect1_dropShadow_401_335"/>
<feBlend mode="normal" in="SourceGraphic" in2="effect1_dropShadow_401_335" result="shape"/>
</filter>
<filter id="filter7_d_401_335" x="92.1591" y="246.515" width="240.841" height="50.3562" filterUnits="userSpaceOnUse" color-interpolation-filters="sRGB">
<feFlood flood-opacity="0" result="BackgroundImageFix"/>
<feColorMatrix in="SourceAlpha" type="matrix" values="0 0 0 0 0 0 0 0 0 0 0 0 0 0 0 0 0 0 127 0" result="hardAlpha"/>
<feOffset dy="4"/>
<feGaussianBlur stdDeviation="5"/>
<feColorMatrix type="matrix" values="0 0 0 0 0.1875 0 0 0 0 0.151406 0 0 0 0 0.135937 0 0 0 0.19 0"/>
<feBlend mode="normal" in2="BackgroundImageFix" result="effect1_dropShadow_401_335"/>
<feBlend mode="normal" in="SourceGraphic" in2="effect1_dropShadow_401_335" result="shape"/>
</filter>
<filter id="filter8_d_401_335" x="64.2139" y="229.748" width="296.732" height="106.247" filterUnits="userSpaceOnUse" color-interpolation-filters="sRGB">
<feFlood flood-opacity="0" result="BackgroundImageFix"/>
<feColorMatrix in="SourceAlpha" type="matrix" values="0 0 0 0 0 0 0 0 0 0 0 0 0 0 0 0 0 0 127 0" result="hardAlpha"/>
<feOffset dy="15.1781"/>
<feGaussianBlur stdDeviation="18.9726"/>
<feColorMatrix type="matrix" values="0 0 0 0 0.483606 0 0 0 0 0.337125 0 0 0 0 0.290867 0 0 0 0.22 0"/>
<feBlend mode="normal" in2="BackgroundImageFix" result="effect1_dropShadow_401_335"/>
<feBlend mode="normal" in="SourceGraphic" in2="effect1_dropShadow_401_335" result="shape"/>
</filter>
</defs>
</svg>
