<svg width="184" height="35" viewBox="0 0 184 35" fill="none" xmlns="http://www.w3.org/2000/svg">
<path fill-rule="evenodd" clip-rule="evenodd" d="M29.7951 23.7066C31.0907 21.4036 31.8297 18.7455 31.8297 15.9149C31.8297 7.12532 24.7044 0 15.9149 0C7.12532 0 0 7.12532 0 15.9149C0 24.7044 7.12532 31.8297 15.9149 31.8297C17.6005 31.8297 19.2249 31.5677 20.7496 31.0821L13.9929 24.3254C10.1543 23.4519 7.28943 20.0179 7.28943 15.9149C7.28943 11.1512 11.1512 7.28943 15.9149 7.28943C20.6785 7.28943 24.5403 11.1512 24.5403 15.9149C24.5403 16.6906 24.4379 17.4423 24.2459 18.1574L29.7951 23.7066Z" fill="#FC6652"/>
<rect width="20.1588" height="6.54486" rx="3.27243" transform="matrix(-0.707107 -0.707107 -0.707107 0.707107 32.675 30.1697)" fill="#494947"/>
<path d="M50.1509 25.7461C48.551 25.7461 46.9878 25.5713 45.4614 25.2219C43.9533 24.8541 42.712 24.3668 41.7373 23.7599L43.8338 19.0151C44.7533 19.5485 45.7832 19.9806 46.9234 20.3117C48.0636 20.6243 49.1578 20.7806 50.2061 20.7806C51.1072 20.7806 51.7509 20.6979 52.1371 20.5324C52.5233 20.3484 52.7164 20.0818 52.7164 19.7324C52.7164 19.3278 52.4589 19.0243 51.944 18.822C51.4475 18.6197 50.6199 18.3991 49.4613 18.16C47.9717 17.8473 46.7303 17.5163 45.7372 17.1669C44.7441 16.7991 43.8798 16.2106 43.1442 15.4014C42.4085 14.5738 42.0407 13.4612 42.0407 12.0635C42.0407 10.8498 42.3809 9.74632 43.0614 8.75324C43.7418 7.76015 44.7533 6.97855 46.0958 6.40845C47.4567 5.83834 49.1027 5.55329 51.0337 5.55329C52.3578 5.55329 53.6543 5.70041 54.9233 5.99466C56.2106 6.27052 57.3416 6.6843 58.3163 7.23602L56.3577 11.9532C54.4635 10.9969 52.6704 10.5187 50.9785 10.5187C49.305 10.5187 48.4682 10.9233 48.4682 11.7325C48.4682 12.1187 48.7165 12.4129 49.213 12.6152C49.7096 12.7991 50.5279 13.0014 51.6681 13.2221C53.1394 13.498 54.3807 13.8198 55.3922 14.1876C56.4037 14.537 57.2773 15.1164 58.0129 15.9255C58.7669 16.7347 59.1439 17.8381 59.1439 19.2358C59.1439 20.4496 58.8037 21.553 58.1232 22.5461C57.4428 23.5208 56.4221 24.3024 55.0612 24.8909C53.7187 25.461 52.0819 25.7461 50.1509 25.7461ZM68.8603 25.5805C67.1868 25.5805 65.6788 25.2495 64.3363 24.5875C63.0121 23.907 61.9731 22.9783 61.2191 21.8013C60.4651 20.6059 60.0881 19.2542 60.0881 17.7462C60.0881 16.2382 60.4651 14.8957 61.2191 13.7187C61.9731 12.5233 63.0121 11.5946 64.3363 10.9325C65.6788 10.2705 67.1868 9.93942 68.8603 9.93942C70.5522 9.93942 72.0603 10.2705 73.3844 10.9325C74.7269 11.5946 75.766 12.5233 76.5016 13.7187C77.2556 14.8957 77.6326 16.2382 77.6326 17.7462C77.6326 19.2542 77.2556 20.6059 76.5016 21.8013C75.766 22.9783 74.7269 23.907 73.3844 24.5875C72.0603 25.2495 70.5522 25.5805 68.8603 25.5805ZM68.8603 20.7255C69.5776 20.7255 70.166 20.468 70.6258 19.9531C71.0856 19.4197 71.3155 18.6841 71.3155 17.7462C71.3155 16.8083 71.0856 16.0819 70.6258 15.5669C70.166 15.052 69.5776 14.7945 68.8603 14.7945C68.1431 14.7945 67.5546 15.052 67.0948 15.5669C66.6351 16.0819 66.4052 16.8083 66.4052 17.7462C66.4052 18.6841 66.6351 19.4197 67.0948 19.9531C67.5546 20.468 68.1431 20.7255 68.8603 20.7255ZM79.5839 4.83606H85.8182V25.3047H79.5839V4.83606ZM105.078 10.2153V25.3047H99.1469V23.8702C98.5952 24.4403 97.9515 24.8725 97.2159 25.1668C96.4803 25.4426 95.6987 25.5805 94.8711 25.5805C92.9585 25.5805 91.4229 25.0012 90.2643 23.8426C89.1057 22.6657 88.5264 20.9002 88.5264 18.5462V10.2153H94.7608V17.4703C94.7608 18.5002 94.9263 19.2358 95.2573 19.6772C95.5883 20.1186 96.0757 20.3393 96.7193 20.3393C97.3262 20.3393 97.832 20.1002 98.2366 19.622C98.6412 19.1255 98.8434 18.3531 98.8434 17.3048V10.2153H105.078ZM118.96 24.7806C118.022 25.3139 116.744 25.5805 115.126 25.5805C113.011 25.5805 111.383 25.0748 110.243 24.0633C109.103 23.0335 108.533 21.4979 108.533 19.4565V15.5945H106.464V11.0429H108.533V6.82223H114.767V11.0429H117.857V15.5945H114.767V19.4013C114.767 19.8611 114.887 20.2197 115.126 20.4772C115.365 20.7346 115.677 20.8634 116.064 20.8634C116.597 20.8634 117.066 20.7255 117.471 20.4496L118.96 24.7806ZM120.531 10.2153H126.766V25.3047H120.531V10.2153ZM123.649 9.00151C122.527 9.00151 121.616 8.70726 120.918 8.11876C120.237 7.51188 119.897 6.74867 119.897 5.82915C119.897 4.90962 120.237 4.15561 120.918 3.56711C121.616 2.96023 122.527 2.65679 123.649 2.65679C124.789 2.65679 125.699 2.94184 126.38 3.51194C127.06 4.08205 127.4 4.81767 127.4 5.7188C127.4 6.67511 127.06 7.4659 126.38 8.09118C125.699 8.69807 124.789 9.00151 123.649 9.00151ZM137.501 25.5805C135.828 25.5805 134.32 25.2495 132.977 24.5875C131.653 23.907 130.614 22.9783 129.86 21.8013C129.106 20.6059 128.729 19.2542 128.729 17.7462C128.729 16.2382 129.106 14.8957 129.86 13.7187C130.614 12.5233 131.653 11.5946 132.977 10.9325C134.32 10.2705 135.828 9.93942 137.501 9.93942C139.193 9.93942 140.701 10.2705 142.025 10.9325C143.368 11.5946 144.407 12.5233 145.143 13.7187C145.897 14.8957 146.274 16.2382 146.274 17.7462C146.274 19.2542 145.897 20.6059 145.143 21.8013C144.407 22.9783 143.368 23.907 142.025 24.5875C140.701 25.2495 139.193 25.5805 137.501 25.5805ZM137.501 20.7255C138.219 20.7255 138.807 20.468 139.267 19.9531C139.727 19.4197 139.957 18.6841 139.957 17.7462C139.957 16.8083 139.727 16.0819 139.267 15.5669C138.807 15.052 138.219 14.7945 137.501 14.7945C136.784 14.7945 136.196 15.052 135.736 15.5669C135.276 16.0819 135.046 16.8083 135.046 17.7462C135.046 18.6841 135.276 19.4197 135.736 19.9531C136.196 20.468 136.784 20.7255 137.501 20.7255ZM158.708 9.93942C160.565 9.93942 162.055 10.5003 163.176 11.6222C164.317 12.744 164.887 14.4359 164.887 16.6979V25.3047H158.652V17.7738C158.652 16.0451 158.036 15.1807 156.804 15.1807C156.105 15.1807 155.535 15.429 155.094 15.9255C154.671 16.4037 154.459 17.1669 154.459 18.2151V25.3047H148.225V10.2153H154.156V11.7049C154.744 11.1164 155.425 10.675 156.197 10.3808C156.97 10.0865 157.806 9.93942 158.708 9.93942ZM173.498 25.5805C172.21 25.5805 170.941 25.4426 169.691 25.1668C168.44 24.8909 167.429 24.5323 166.656 24.0909L168.367 19.9806C169.065 20.4036 169.893 20.7346 170.849 20.9737C171.806 21.2128 172.734 21.3323 173.636 21.3323C174.353 21.3323 174.849 21.2772 175.125 21.1668C175.419 21.0381 175.567 20.8542 175.567 20.6151C175.567 20.376 175.383 20.2105 175.015 20.1186C174.665 20.0266 174.086 19.9347 173.277 19.8427C172.045 19.6956 170.996 19.5117 170.132 19.291C169.268 19.0519 168.505 18.6013 167.843 17.9393C167.199 17.2772 166.877 16.3301 166.877 15.098C166.877 14.1233 167.171 13.2497 167.76 12.4773C168.348 11.7049 169.222 11.0888 170.38 10.6291C171.557 10.1693 172.964 9.93942 174.601 9.93942C175.741 9.93942 176.854 10.0498 177.939 10.2705C179.042 10.4727 179.98 10.7762 180.753 11.1808L179.042 15.2911C177.718 14.5554 176.265 14.1876 174.684 14.1876C173.323 14.1876 172.642 14.4267 172.642 14.9049C172.642 15.1439 172.826 15.3186 173.194 15.429C173.562 15.5209 174.141 15.6129 174.932 15.7048C176.164 15.852 177.203 16.0451 178.049 16.2841C178.914 16.5232 179.668 16.9738 180.311 17.6358C180.973 18.2979 181.304 19.245 181.304 20.4772C181.304 21.4151 181.01 22.2703 180.422 23.0427C179.833 23.8151 178.95 24.4311 177.773 24.8909C176.596 25.3507 175.171 25.5805 173.498 25.5805Z" fill="#494947"/>
</svg>
