<svg width="46" height="46" viewBox="0 0 46 46" fill="none" xmlns="http://www.w3.org/2000/svg">
<path d="M43.9091 10.4546H7.13884L14.0239 3.56939C14.8405 2.75296 14.8405 1.42899 14.0239 0.612426C13.2075 -0.204142 11.8835 -0.204142 11.067 0.612426L0.612426 11.067C-0.204142 11.8834 -0.204142 13.2073 0.612426 14.0239L11.067 24.4784C11.4752 24.8867 12.0104 25.0909 12.5455 25.0909C13.0806 25.0909 13.6158 24.8867 14.0239 24.4784C14.8405 23.662 14.8405 22.3381 14.0239 21.5215L7.13884 14.6364H43.9091C45.0638 14.6364 46 13.7002 46 12.5455C46 11.3908 45.0638 10.4546 43.9091 10.4546Z" fill="url(#paint0_linear_401_745)"/>
<path d="M34.933 21.5215C34.1165 20.7051 32.7926 20.7051 31.976 21.5215C31.1594 22.3379 31.1594 23.6619 31.976 24.4785L38.8612 31.3637H2.09097C0.936229 31.3637 6.10352e-05 32.2998 6.10352e-05 33.4546C6.10352e-05 34.6093 0.936229 35.5455 2.09097 35.5455H38.8612L31.9761 42.4307C31.1596 43.2471 31.1596 44.5711 31.9761 45.3877C32.3843 45.7958 32.9194 46 33.4546 46C33.9897 46 34.5248 45.7958 34.933 45.3875L45.3875 34.933C46.2041 34.1166 46.2041 32.7926 45.3875 31.976L34.933 21.5215Z" fill="url(#paint1_linear_401_745)"/>
<defs>
<linearGradient id="paint0_linear_401_745" x1="-2.95314e-07" y1="13" x2="37" y2="13" gradientUnits="userSpaceOnUse">
<stop stop-color="#FC6652"/>
<stop offset="1" stop-color="#FC6652" stop-opacity="0"/>
</linearGradient>
<linearGradient id="paint1_linear_401_745" x1="46" y1="34.5" x2="5.5" y2="34.5" gradientUnits="userSpaceOnUse">
<stop stop-color="#FC6652"/>
<stop offset="1" stop-color="#FC6652" stop-opacity="0"/>
</linearGradient>
</defs>
</svg>
