<svg width="64" height="42" viewBox="0 0 64 42" fill="none" xmlns="http://www.w3.org/2000/svg">
<path d="M17.0545 17.9851C15.8556 17.9851 14.9367 18.3704 14.9367 18.3704L14.6828 19.8775C14.6828 19.8775 15.4409 19.5692 16.5888 19.5692C17.2403 19.5692 17.7163 19.6418 17.7163 20.1709C17.7163 20.4928 17.6585 20.6117 17.6585 20.6117C17.6585 20.6117 17.1452 20.5698 16.9072 20.5698C15.3945 20.5698 13.8058 21.2134 13.8058 23.1613C13.8058 24.6956 14.8471 25.0457 15.4942 25.0457C16.7282 25.0457 17.2607 24.2457 17.2879 24.2435L17.2301 24.912H18.7701L19.4568 20.0962C19.4556 18.0508 17.6732 17.9851 17.0545 17.9851ZM16.1911 23.5806C15.6483 23.5806 15.5066 23.167 15.5066 22.92C15.5066 22.4418 15.7661 21.8661 17.0477 21.8661C17.3469 21.8673 17.3786 21.8979 17.4284 21.9069C17.4624 22.2015 17.2449 23.5806 16.1911 23.5806Z" fill="#8F8F8F"/>
<path d="M22.6162 19.6006C22.8621 19.6006 23.8106 19.6787 23.8106 19.6787L24.0315 18.1354C24.0315 18.1354 23.4174 17.9983 22.4179 17.9983C21.1239 17.9983 19.8117 18.515 19.8117 20.2816C19.8117 22.285 22.0009 22.081 22.0009 22.9263C22.0009 23.4884 21.389 23.5348 20.9176 23.5348C20.1006 23.5348 19.3664 23.2561 19.3641 23.2674L19.1307 24.7983C19.1726 24.8096 19.6259 25.0113 21.0933 25.0113C21.4865 25.0113 23.738 25.1133 23.738 22.7892C23.738 20.6159 21.6542 21.0453 21.6542 20.1717C21.6542 19.7365 21.993 19.6006 22.6162 19.6006Z" fill="#8F8F8F"/>
<path d="M26.295 19.797H27.2208L27.444 18.1517H26.5715L26.7494 17.1318H25.001C24.9625 17.1692 23.9687 22.8837 23.9687 23.5772C23.9687 24.6095 24.5477 25.0672 25.3625 25.0593C26.0004 25.0548 26.4979 24.878 26.6735 24.8293L26.8922 23.3426C26.7721 23.3426 26.5965 23.3947 26.4412 23.3947C25.8327 23.3947 25.7659 23.0695 25.8044 22.8304L26.295 19.797Z" fill="#8F8F8F"/>
<path d="M33.6246 10.2522H30.5039C30.0846 10.8188 29.6903 11.4216 29.3334 12.0108H34.9005C34.5141 11.3967 34.0869 10.8097 33.6246 10.2522Z" fill="#8F8F8F"/>
<path d="M57.9726 30.0345C57.9386 29.9835 57.9103 29.945 57.8877 29.9212C57.8752 29.9099 57.8593 29.8974 57.8389 29.8917C57.8877 29.8883 57.9284 29.8702 57.9579 29.8396C57.9862 29.809 58.0021 29.7728 58.0021 29.7308C58.0021 29.7014 57.993 29.673 57.976 29.647C57.959 29.6209 57.9341 29.6017 57.9035 29.5915C57.8752 29.5801 57.8265 29.5745 57.7596 29.5745H57.5624V30.1467H57.6554V29.9042H57.7086C57.7403 29.9042 57.7664 29.911 57.7811 29.9246C57.8049 29.9439 57.8389 29.9881 57.8786 30.0572L57.9284 30.1478H58.0429L57.9726 30.0345ZM57.7664 29.8283H57.6531V29.656H57.7596C57.8038 29.656 57.8333 29.6594 57.8503 29.6662C57.8684 29.673 57.8797 29.6832 57.8899 29.6957C57.899 29.7093 57.9035 29.724 57.9035 29.7399C57.9035 29.766 57.8945 29.7886 57.8752 29.8045C57.8559 29.8192 57.8185 29.8283 57.7664 29.8283Z" fill="#8F8F8F"/>
<path d="M35.846 13.7358H28.3593C27.8811 14.6412 27.5638 15.3256 27.4743 15.4956H36.5553C36.3502 14.8905 36.1145 14.3047 35.846 13.7358Z" fill="#8F8F8F"/>
<path d="M11.6635 16.593L9.93999 21.7035L9.85047 16.593H7.29863L5.90033 24.9205H7.58758L8.6516 18.6429L8.80798 24.9205H10.0125L12.2595 18.6429L11.2635 24.9205H13.0539L14.4329 16.593H11.6635Z" fill="#8F8F8F"/>
<path d="M45.4042 17.9851C44.2031 17.9851 43.2852 18.3704 43.2852 18.3704L43.0303 19.8775C43.0303 19.8775 43.7895 19.5692 44.9362 19.5692C45.5878 19.5692 46.0648 19.6418 46.0648 20.1709C46.0648 20.4928 46.0048 20.6117 46.0048 20.6117C46.0048 20.6117 45.4926 20.5698 45.2523 20.5698C43.7407 20.5698 42.1532 21.2134 42.1532 23.1613C42.1532 24.6956 43.1957 25.0457 43.8416 25.0457C45.0744 25.0457 45.607 24.2457 45.6353 24.2435L45.5776 24.912H47.1164L47.8031 20.0962C47.8065 18.0508 46.0229 17.9851 45.4042 17.9851ZM44.543 23.5806C43.9991 23.5806 43.8586 23.167 43.8586 22.92C43.8586 22.4418 44.1181 21.8661 45.3997 21.8661C45.6977 21.8673 45.7294 21.8979 45.7804 21.9069C45.8133 22.2015 45.5946 23.5806 44.543 23.5806Z" fill="#8F8F8F"/>
<path d="M58.0283 24.1528C57.9818 24.0666 57.9138 24.0009 57.8288 23.9556C57.745 23.9091 57.6589 23.8865 57.5682 23.8865C57.481 23.8876 57.3937 23.9103 57.3076 23.9556C57.2226 24.0009 57.1569 24.0666 57.1093 24.1528C57.0617 24.2377 57.0379 24.3261 57.0379 24.4179C57.0379 24.5097 57.0617 24.597 57.1093 24.6808C57.1557 24.7647 57.2215 24.8315 57.3053 24.8791C57.3903 24.9256 57.4776 24.9494 57.5682 24.9494C57.6611 24.9494 57.7495 24.9256 57.8322 24.8791C57.9161 24.8315 57.9818 24.7647 58.0283 24.6808C58.077 24.597 58.0985 24.5097 58.0985 24.4179C58.0985 24.3239 58.0759 24.2355 58.0283 24.1528ZM57.9546 24.6366C57.9161 24.7069 57.8617 24.7601 57.7903 24.8021C57.7201 24.8406 57.6475 24.861 57.5716 24.861C57.4946 24.861 57.4209 24.8406 57.3518 24.8021C57.2804 24.7624 57.2271 24.708 57.1863 24.6366C57.1456 24.5652 57.1274 24.4927 57.1274 24.4168C57.1274 24.3409 57.1467 24.2672 57.1886 24.1958C57.2283 24.1256 57.2815 24.0712 57.3541 24.0315C57.4266 23.9919 57.498 23.9749 57.5716 23.9749C57.6453 23.9749 57.7178 23.993 57.7869 24.0315C57.8594 24.0712 57.9127 24.1244 57.9524 24.1958C57.992 24.2672 58.0135 24.3409 58.0135 24.4168C58.0135 24.4927 57.9943 24.5664 57.9546 24.6366Z" fill="#8F8F8F"/>
<path d="M57.748 24.599C57.7151 24.5457 57.6857 24.5083 57.6642 24.4857C57.6506 24.4732 57.6358 24.463 57.6154 24.4562C57.6642 24.4528 57.7038 24.4347 57.7333 24.4041C57.7616 24.3746 57.7786 24.3361 57.7786 24.2953C57.7786 24.267 57.7695 24.2375 57.7514 24.2114C57.7333 24.1865 57.7095 24.1672 57.6811 24.1559C57.6528 24.1446 57.603 24.1389 57.5361 24.1389H57.3367V24.71H57.4296V24.4675H57.4828C57.5157 24.4675 57.5418 24.4743 57.5576 24.4868C57.5814 24.5072 57.6132 24.5502 57.6551 24.6216L57.7038 24.7112H57.8183L57.748 24.599ZM57.544 24.3893H57.4319V24.216H57.5361C57.5814 24.216 57.6109 24.2194 57.629 24.225C57.6438 24.233 57.6574 24.2409 57.6664 24.2556C57.6766 24.2704 57.6811 24.2828 57.6811 24.3021C57.6811 24.327 57.671 24.3485 57.654 24.3644C57.6324 24.3837 57.5973 24.3893 57.544 24.3893Z" fill="#8F8F8F"/>
<path d="M51.3458 18.0681C50.5628 18.0681 49.9815 19.1367 49.9815 19.1367L50.1379 18.1542H48.5085L47.4172 24.9327H49.2121C49.7232 22.0364 49.8161 19.6874 51.0297 20.1168C51.2439 18.9973 51.4501 18.5633 51.6824 18.0908C51.6824 18.0919 51.5736 18.0681 51.3458 18.0681Z" fill="#8F8F8F"/>
<path d="M55.856 16.602L55.4787 18.942C55.4787 18.942 54.8215 18.0321 53.7903 18.0321C52.1869 18.0332 50.8521 19.9652 50.8521 22.1839C50.8521 23.6173 51.5648 25.0213 53.0198 25.0213C54.0679 25.0213 54.6481 24.2904 54.6481 24.2904L54.5722 24.9148H56.273L57.6101 16.5986L55.856 16.602ZM53.6385 23.3216C53.0084 23.3216 52.7138 22.7935 52.7138 21.9641C52.7138 20.6077 53.3223 19.7136 54.0917 19.7136C54.7195 19.7148 55.0424 20.1465 55.0424 21.1641C55.0424 22.0876 54.5858 23.3216 53.6385 23.3216Z" fill="#8F8F8F"/>
<path d="M62.3524 0H1.64759C0.736544 0 0 0.737677 0 1.64759V39.8289C0 40.7388 0.736544 41.4765 1.64759 41.4765H62.3524C63.2635 41.4765 64 40.7388 64 39.8289V1.64759C64 0.737677 63.2635 0 62.3524 0ZM58.2538 30.1179C58.2062 30.204 58.1416 30.2697 58.0578 30.3162C57.9739 30.3626 57.8856 30.3864 57.7949 30.3864C57.702 30.3864 57.6136 30.3626 57.5297 30.3162C57.447 30.2697 57.3813 30.204 57.3326 30.1179C57.2861 30.0351 57.2623 29.9467 57.2623 29.855C57.2623 29.7632 57.2861 29.6759 57.3337 29.5898C57.3802 29.5037 57.4482 29.4391 57.532 29.3926C57.617 29.3484 57.7031 29.3246 57.7938 29.3246C57.8833 29.3246 57.9694 29.3484 58.0533 29.3926C58.1382 29.4391 58.2051 29.5037 58.2516 29.5898C58.2992 29.6759 58.3218 29.7643 58.3218 29.855C58.3218 29.9456 58.3014 30.0374 58.2538 30.1179ZM59.4414 20.7388C59.4436 29.8096 52.0941 37.166 43.0221 37.1683C38.7796 37.1694 34.911 35.5615 31.9966 32.9201C29.0822 35.5569 25.2215 37.1637 20.9858 37.1637C11.9195 37.1637 4.56091 29.8062 4.56091 20.7388C4.56091 11.7076 11.8618 4.37167 20.8805 4.31275C20.9156 4.31275 20.9507 4.31275 20.9858 4.31275C25.2215 4.31275 29.0833 5.91955 31.9977 8.55637C34.911 5.91841 38.7751 4.31048 43.0142 4.30935C52.0861 4.30595 59.4414 11.6589 59.4436 20.7309C59.4414 20.7331 59.4414 20.7343 59.4414 20.7388Z" fill="#8F8F8F"/>
<path d="M30.3149 31.1235C30.8351 31.7604 31.3858 32.3677 31.9943 32.9184C32.0079 32.906 32.0226 32.8946 32.0362 32.8833C32.0362 32.8833 32.0351 32.8833 32.0351 32.8822H32.0385C32.6368 32.3371 33.1954 31.7502 33.7064 31.1235H30.3149Z" fill="#8F8F8F"/>
<path d="M32.5522 22.1081C32.5522 22.1081 32.7822 20.975 32.7822 20.5138C32.7822 19.3614 32.2088 17.9563 30.2893 17.9563C28.5306 17.9574 27.2286 19.8521 27.2286 21.9937C27.2286 24.4651 28.8592 25.0521 30.2496 25.0521C31.5323 25.0521 32.0966 24.7642 32.0966 24.7642L32.4048 23.0781C32.4048 23.0781 31.4292 23.5087 30.5476 23.5087C28.67 23.5087 28.9986 22.1081 28.9986 22.1081H32.5522ZM30.2949 19.5257C31.2819 19.5257 31.0995 20.6351 31.0995 20.7234H29.1584C29.1584 20.609 29.342 19.5257 30.2949 19.5257Z" fill="#8F8F8F"/>
<path d="M40.7534 18.1885C41.6429 18.1885 42.3579 18.6882 42.3579 18.6882L42.6435 16.8356C42.6435 16.8356 41.5851 16.4072 40.6741 16.4072C38.6559 16.4072 36.6922 18.1591 36.6922 21.4486C36.6922 23.6299 37.7517 25.0701 39.8389 25.0701C40.4282 25.0701 41.3687 24.831 41.3687 24.831L41.6814 22.9228C41.6814 22.9228 40.8248 23.3523 40.2355 23.3523C38.9936 23.3511 38.4962 22.4038 38.4962 21.3885C38.4962 19.3228 39.5636 18.1885 40.7534 18.1885Z" fill="#8F8F8F"/>
<path d="M28.1228 27.6733C28.4072 28.2841 28.7381 28.8654 29.0928 29.432H34.9205C35.2741 28.8677 35.5925 28.2807 35.8769 27.6733H28.1228Z" fill="#8F8F8F"/>
<path d="M36.6603 18.0705C35.8773 18.0705 35.2971 19.139 35.2971 19.139L35.4546 18.1566H33.8263L32.735 24.9351H34.5299C35.0387 22.0399 35.1339 19.6897 36.3475 20.1192C36.5605 18.9985 36.7656 18.5645 36.9979 18.0909C36.9979 18.0909 36.8892 18.0682 36.6603 18.0705Z" fill="#8F8F8F"/>
</svg>
