<svg width="42" height="37" viewBox="0 0 42 37" fill="none" xmlns="http://www.w3.org/2000/svg">
<path d="M13.6346 16.8442C13.4162 16.6225 13.0597 16.6197 12.838 16.8381L10.7895 18.8552C10.5678 19.0734 10.5651 19.4301 10.7834 19.6518C10.9246 19.7952 11.1237 19.8469 11.3067 19.8066C11.4066 19.7845 11.5017 19.735 11.58 19.6579L13.6284 17.6408C13.8501 17.4225 13.8529 17.0659 13.6346 16.8442Z" fill="#FC6652"/>
<path d="M10.4336 19.9976C10.2155 19.7758 9.85904 19.7726 9.63695 19.9906L9.62742 20C9.40552 20.2181 9.4024 20.5747 9.62044 20.7966C9.76164 20.9403 9.96092 20.9923 10.1442 20.9518C10.2439 20.9298 10.3388 20.8804 10.4171 20.8036L10.4266 20.7942C10.6485 20.5761 10.6516 20.2195 10.4336 19.9976Z" fill="#FC6652"/>
<path d="M28.8386 2.0646C28.6334 1.86893 28.3147 1.85631 28.0947 2.03521L13.6154 13.8048C13.4518 13.9376 13.3762 14.1506 13.4192 14.3569C13.4622 14.5631 13.6167 14.7281 13.8197 14.7846L17.4035 15.7817L11.0992 21.9899C10.9559 22.131 10.8987 22.3377 10.9491 22.5323C10.9994 22.727 11.1497 22.88 11.3434 22.9339L15.3256 24.0418L6.90884 35.1674C6.73422 35.3982 6.7629 35.7237 6.97514 35.9204C7.11507 36.05 7.30466 36.0959 7.47981 36.0573C7.57046 36.0373 7.65716 35.9947 7.73111 35.9293L22.4046 22.9614C22.5593 22.8246 22.6268 22.6142 22.5805 22.4129C22.5342 22.2117 22.3815 22.0519 22.1825 21.9966L18.5426 20.9838L25.0632 14.4146C25.2045 14.2722 25.2594 14.0653 25.2073 13.8715C25.1552 13.6777 25.0039 13.5262 24.8102 13.4739L21.6729 12.6268L28.9035 2.80629C29.0717 2.57797 29.0439 2.26025 28.8386 2.0646ZM20.2775 12.6221C20.1672 12.7718 20.138 12.9664 20.1993 13.1419C20.2607 13.3174 20.4047 13.4514 20.5842 13.4998L23.5807 14.3089L17.0662 20.872C16.9254 21.0139 16.8702 21.2198 16.9215 21.4131C16.9726 21.6063 17.1224 21.758 17.315 21.8115L20.8815 22.8039L11.2054 31.3553L16.7237 24.0611C16.8363 23.9123 16.8679 23.7175 16.8082 23.5408C16.7485 23.3641 16.6052 23.2285 16.4255 23.1785L12.5833 22.1095L18.8876 15.9012C19.0309 15.7601 19.0881 15.5534 19.0377 15.3587C18.9874 15.1641 18.8371 15.011 18.6434 14.9571L15.1719 13.9913L25.3767 5.69641L20.2775 12.6221Z" fill="#FC6652"/>
<path d="M37.1769 7.8161C37.1128 7.70838 36.9786 7.66508 36.8637 7.71507L29.2993 11.0027C29.2139 11.0398 29.1563 11.1214 29.1501 11.2144C29.1438 11.3073 29.19 11.3959 29.2697 11.4441L30.6767 12.295L27.2542 14.1877C27.1764 14.2308 27.1275 14.312 27.1258 14.4008C27.124 14.4897 27.1698 14.5727 27.2459 14.6187L28.8093 15.5642L23.9024 19.299C23.8006 19.3764 23.7741 19.5184 23.841 19.6274C23.8852 19.6992 23.9604 19.7413 24.0396 19.7457C24.0805 19.748 24.1225 19.7402 24.1618 19.7212L31.9515 15.9465C32.0336 15.9067 32.0874 15.8251 32.0916 15.734C32.0958 15.6428 32.0498 15.5566 31.9717 15.5094L30.5426 14.6451L34.1002 12.6244C34.1773 12.5806 34.2253 12.499 34.2261 12.4103C34.227 12.3216 34.1806 12.2392 34.1044 12.1938L32.8696 11.4599L37.1163 8.13957C37.215 8.06238 37.241 7.92382 37.1769 7.8161ZM32.2761 11.2919C32.2114 11.3425 32.1758 11.4218 32.181 11.5038C32.1862 11.5859 32.2316 11.66 32.3023 11.702L33.4817 12.403L29.9274 14.4218C29.8506 14.4655 29.8026 14.5466 29.8014 14.635C29.8002 14.7233 29.8459 14.8057 29.9216 14.8514L31.3218 15.6982L26.1851 18.1874L29.4022 15.7387C29.4678 15.6888 29.5044 15.6096 29.5 15.5273C29.4956 15.445 29.4508 15.3702 29.3802 15.3275L27.8718 14.4153L31.2943 12.5225C31.3721 12.4794 31.421 12.3982 31.4227 12.3094C31.4245 12.2205 31.3787 12.1375 31.3026 12.0915L29.9397 11.2673L35.271 8.95027L32.2761 11.2919Z" fill="#FC6652"/>
<path d="M6.75692 8.17222C6.68872 8.15603 6.61911 8.19307 6.59446 8.25868L4.97083 12.5758C4.95249 12.6246 4.96289 12.6795 4.99779 12.7181C5.03267 12.7568 5.08621 12.7728 5.13658 12.7595L6.02585 12.5256L5.45402 14.6366C5.44102 14.6846 5.45458 14.7359 5.4896 14.7711C5.52461 14.8064 5.57576 14.8203 5.62383 14.8077L6.61194 14.5478L6.20214 17.9718C6.19364 18.0428 6.24034 18.1087 6.31016 18.1243C6.35619 18.1345 6.40238 18.1207 6.43495 18.0906C6.4518 18.075 6.465 18.0551 6.47264 18.0319L7.98834 13.4348C8.00432 13.3863 7.99249 13.333 7.95752 13.2958C7.92256 13.2586 7.87003 13.2435 7.82066 13.2565L6.91745 13.494L7.49046 11.279C7.50288 11.231 7.4888 11.18 7.45352 11.1451C7.41824 11.1103 7.36708 11.0968 7.3192 11.1098L6.54394 11.32L6.86323 8.32244C6.87066 8.25275 6.82513 8.18839 6.75692 8.17222ZM6.24549 11.4929C6.24062 11.5386 6.25863 11.5838 6.29359 11.6136C6.32858 11.6434 6.37601 11.6541 6.42038 11.6421L7.16085 11.4412L6.58836 13.6542C6.576 13.7021 6.5899 13.7529 6.62492 13.7878C6.65992 13.8226 6.71081 13.8363 6.75859 13.8238L7.64358 13.591L6.6441 16.6225L6.91278 14.3776C6.91827 14.3319 6.90073 14.2863 6.86597 14.2561C6.83119 14.2258 6.78371 14.2147 6.73912 14.2264L5.78572 14.4772L6.35755 12.3661C6.37054 12.3182 6.35699 12.2669 6.32197 12.2316C6.28696 12.1963 6.2358 12.1824 6.18774 12.1951L5.32635 12.4216L6.47065 9.37898L6.24549 11.4929Z" fill="#FC6652"/>
<path d="M25.7947 22.5204C25.5884 22.2875 25.2323 22.266 24.9995 22.4722L24.9895 22.4811C24.7566 22.6874 24.735 23.0434 24.9413 23.2763C25.0818 23.4349 25.2917 23.4955 25.4849 23.4529C25.5754 23.4329 25.6622 23.3903 25.7365 23.3245L25.7465 23.3156C25.9794 23.1093 26.001 22.7533 25.7947 22.5204Z" fill="#FC6652"/>
<path d="M24.5715 23.6021C24.3654 23.369 24.0094 23.347 23.7764 23.5531L21.6223 25.4569C21.3892 25.6629 21.3672 26.0189 21.5732 26.252C21.7137 26.4109 21.9238 26.4717 22.1172 26.429C22.2075 26.409 22.2942 26.3666 22.3684 26.301L24.5225 24.3972C24.7556 24.1911 24.7775 23.8352 24.5715 23.6021Z" fill="#FC6652"/>
</svg>
