<svg width="48" height="61" viewBox="0 0 48 61" fill="none" xmlns="http://www.w3.org/2000/svg">
<path fill-rule="evenodd" clip-rule="evenodd" d="M4.18743 0H31.351C33.6636 0 35.5384 1.98011 35.5384 4.42271V55.9706C35.5384 58.4132 33.6636 60.3933 31.351 60.3933H4.18743C1.87477 60.3933 0 58.4132 0 55.9706V4.42271C0 1.98011 1.87477 0 4.18743 0ZM33.2303 55.3264V5.06733C33.2303 4.38035 32.9719 3.7215 32.5119 3.23573C32.052 2.74995 31.4282 2.47705 30.7778 2.47705H25.5004C25.299 2.47707 25.1018 2.53734 24.9315 2.65087C24.7612 2.7644 24.6248 2.92654 24.5381 3.11854L23.8059 4.73885C23.7193 4.93085 23.5829 5.093 23.4126 5.20653C23.2423 5.32006 23.045 5.38032 22.8436 5.38035H12.6843C12.4829 5.38032 12.2857 5.32006 12.1154 5.20653C11.9451 5.093 11.8087 4.93085 11.722 4.73885L10.9898 3.11854C10.9032 2.92654 10.7668 2.7644 10.5965 2.65087C10.4262 2.53734 10.2289 2.47707 10.0275 2.47705H4.76134C4.43927 2.47705 4.12036 2.54405 3.82281 2.67422C3.52526 2.8044 3.2549 2.9952 3.02717 3.23573C2.79943 3.47626 2.61879 3.76181 2.49554 4.07607C2.37229 4.39034 2.30885 4.72717 2.30885 5.06733V55.3264C2.30729 55.6659 2.36927 56.0025 2.49122 56.3167C2.61317 56.6309 2.7927 56.9165 3.01949 57.1572C3.24628 57.3979 3.51586 57.5889 3.81275 57.7192C4.10963 57.8496 4.42798 57.9166 4.74948 57.9166H30.7778C31.1001 57.9175 31.4194 57.8511 31.7173 57.7212C32.0152 57.5914 32.2859 57.4006 32.5138 57.1599C32.7417 56.9192 32.9223 56.6333 33.0453 56.3186C33.1682 56.004 33.2311 55.6668 33.2303 55.3264Z" fill="#ECECEC"/>
<path d="M24.5026 53.8232H11.0365C10.5763 53.8232 10.2032 54.2171 10.2032 54.703C10.2032 55.1889 10.5763 55.5827 11.0365 55.5827H24.5026C24.9628 55.5827 25.3359 55.1889 25.3359 54.703C25.3359 54.2171 24.9628 53.8232 24.5026 53.8232Z" fill="#ECECEC"/>
<path d="M47.121 15.6943V29.3196C47.121 30.101 46.8271 30.8503 46.304 31.4028C45.7809 31.9553 45.0714 32.2656 44.3317 32.2656H30.3155L24.3882 39.2182V32.2656H22.1289C21.3894 32.2647 20.6805 31.954 20.1576 31.4017C19.6347 30.8494 19.3405 30.1007 19.3396 29.3196V15.6943C19.3405 14.9133 19.6347 14.1645 20.1576 13.6122C20.6805 13.06 21.3894 12.7493 22.1289 12.7483H44.3317C45.0714 12.7483 45.7809 13.0587 46.304 13.6112C46.8271 14.1636 47.121 14.913 47.121 15.6943Z" fill="white"/>
<path d="M26.1887 26.2784C25.4048 26.3424 24.6265 26.0959 24.0054 25.5868C23.7687 25.3629 23.5788 25.0894 23.4478 24.7836C23.3168 24.4779 23.2476 24.1467 23.2446 23.8111H24.1253C24.1337 24.0517 24.1965 24.2868 24.3083 24.4966C24.4201 24.7065 24.5778 24.8851 24.7682 25.0175C25.1831 25.2876 25.6639 25.4233 26.151 25.4078C26.5854 25.4296 27.0161 25.3134 27.3874 25.0742C27.5334 24.9795 27.6534 24.8462 27.7356 24.6874C27.8178 24.5287 27.8593 24.35 27.856 24.169C27.8648 23.9886 27.8232 23.8094 27.7364 23.6538C27.6497 23.4981 27.5215 23.3728 27.3679 23.2933C26.8348 23.0402 26.2737 22.8588 25.6978 22.7535C25.0832 22.6563 24.4999 22.4036 23.9977 22.017C23.8278 21.8615 23.6933 21.6676 23.604 21.4497C23.5146 21.2318 23.4728 20.9955 23.4817 20.7583C23.477 20.4774 23.5355 20.1993 23.6522 19.9469C23.7689 19.6944 23.9406 19.4748 24.1532 19.3059C24.6678 18.9053 25.2977 18.7049 25.9362 18.7388C26.6064 18.7051 27.2683 18.9063 27.819 19.3111C28.0557 19.5006 28.2473 19.7457 28.379 20.0269C28.5107 20.308 28.5787 20.6177 28.5777 20.9314H27.6914C27.5984 20.0476 27.0269 19.6057 25.9767 19.6057C25.5617 19.5791 25.1487 19.6848 24.7912 19.9091C24.6617 19.9939 24.555 20.1127 24.4817 20.2539C24.4084 20.395 24.3709 20.5538 24.3729 20.7148C24.3659 20.8506 24.3935 20.9858 24.4528 21.1065C24.512 21.2272 24.6007 21.329 24.7097 21.4013C25.1038 21.6165 25.5273 21.7656 25.9648 21.8432C26.461 21.9509 26.9501 22.0921 27.4292 22.2659C27.7835 22.4002 28.1019 22.6228 28.3574 22.9148C28.6254 23.2401 28.7638 23.6624 28.7437 24.0932C28.7476 24.3937 28.6857 24.6911 28.5626 24.9621C28.4396 25.2331 28.2588 25.4704 28.0345 25.6553C27.5091 26.0886 26.8546 26.3095 26.1887 26.2784Z" fill="#9F9F9F"/>
<path d="M36.5091 26.1534H35.6423V19.9499L33.6717 26.1534H32.8537L30.8824 19.9499V26.1534H30.0184V18.8621H31.3893L33.2596 24.9412L35.1423 18.8621H36.5133L36.5091 26.1534Z" fill="#9F9F9F"/>
<path d="M40.6588 26.2779C39.875 26.3419 39.0967 26.0954 38.4755 25.5863C38.239 25.3622 38.0494 25.0885 37.9186 24.7826C37.7879 24.4767 37.7189 24.1455 37.7161 23.8099H38.5969C38.6053 24.0505 38.668 24.2856 38.7798 24.4954C38.8917 24.7052 39.0494 24.8838 39.2398 25.0163C39.6547 25.2864 40.1354 25.4221 40.6226 25.4066C41.057 25.4283 41.4876 25.3121 41.8589 25.073C42.0049 24.9783 42.125 24.845 42.2072 24.6862C42.2894 24.5274 42.3309 24.3487 42.3275 24.1678C42.3363 23.9874 42.2948 23.8082 42.208 23.6525C42.1212 23.4969 41.993 23.3715 41.8394 23.2921C41.3063 23.039 40.7452 22.8576 40.1693 22.7523C39.5547 22.6551 38.9715 22.4024 38.4692 22.0158C38.2994 21.8602 38.1648 21.6664 38.0755 21.4485C37.9862 21.2306 37.9444 20.9943 37.9532 20.7571C37.9486 20.4762 38.007 20.1981 38.1238 19.9457C38.2405 19.6932 38.4122 19.4736 38.6247 19.3047C39.1393 18.904 39.7693 18.7037 40.4078 18.7376C41.078 18.7039 41.7399 18.905 42.2906 19.3098C42.5272 19.4994 42.7189 19.7445 42.8506 20.0256C42.9822 20.3068 43.0502 20.6165 43.0493 20.9302H42.1609C42.0679 20.0463 41.4963 19.6044 40.4462 19.6044C40.0311 19.5779 39.6182 19.6836 39.2607 19.9079C39.1311 19.9927 39.0245 20.1115 38.9512 20.2526C38.8779 20.3938 38.8404 20.5526 38.8423 20.7136C38.8354 20.8494 38.863 20.9846 38.9222 21.1053C38.9814 21.226 39.0701 21.3277 39.1791 21.4C39.5733 21.6153 39.9967 21.7644 40.4343 21.8419C40.9305 21.9497 41.4196 22.0909 41.8987 22.2647C42.253 22.399 42.5713 22.6216 42.8268 22.9136C43.0949 23.2389 43.2333 23.6612 43.2131 24.092C43.2171 24.3925 43.1551 24.6899 43.0321 24.9609C42.909 25.2319 42.7283 25.4692 42.504 25.6541C41.9789 26.0874 41.3246 26.3086 40.6588 26.2779Z" fill="#9F9F9F"/>
</svg>
