<svg width="18" height="15" viewBox="0 0 18 15" fill="none" xmlns="http://www.w3.org/2000/svg">
<path d="M9.00542 12.7605C9.00542 13.0776 8.8222 13.3657 8.53548 13.5002C8.42462 13.5526 8.30583 13.5779 8.18782 13.5779C8.00092 13.5779 7.81577 13.5137 7.66622 13.3897L3.19747 9.68668H0.817408C0.366044 9.68707 0 9.32083 0 8.86947V5.6128C0 5.16124 0.366044 4.7952 0.817408 4.7952H3.19766L7.66642 1.0922C7.91057 0.889827 8.24915 0.846683 8.53567 0.982112C8.8222 1.11657 9.00561 1.40484 9.00561 1.72174L9.00542 12.7605ZM12.1468 11.4832C12.1269 11.4846 12.1077 11.4854 12.088 11.4854C11.8721 11.4854 11.6639 11.4 11.5101 11.246L11.4008 11.1363C11.114 10.8502 11.0804 10.3969 11.3218 10.0715C11.934 9.24615 12.2571 8.26778 12.2571 7.24142C12.2571 6.13749 11.8902 5.10204 11.1961 4.24691C10.9318 3.92188 10.9562 3.44981 11.2524 3.1538L11.3615 3.04449C11.5248 2.88121 11.7436 2.79221 11.9804 2.80633C12.211 2.81794 12.4263 2.92648 12.5726 3.10524C13.5355 4.28347 14.0441 5.71398 14.0441 7.24162C14.0441 8.66439 13.5943 10.0187 12.7431 11.1574C12.6009 11.3472 12.3834 11.4664 12.1468 11.4832ZM15.5263 14.0094C15.3785 14.1841 15.1647 14.2889 14.9358 14.2986C14.9246 14.299 14.9132 14.2994 14.9016 14.2994C14.6851 14.2994 14.4773 14.2139 14.3235 14.0601L14.2161 13.9527C13.9161 13.6528 13.8957 13.1732 14.1685 12.8486C15.4868 11.2807 16.2131 9.28949 16.2131 7.24142C16.2131 5.11113 15.4356 3.06036 14.0242 1.46695C13.7381 1.14346 13.7526 0.653794 14.0571 0.348113L14.1643 0.240737C14.3233 0.0809314 14.5299 -0.00709707 14.7669 0.000448236C14.9919 0.00683272 15.2048 0.106276 15.3543 0.274594C17.0603 2.19536 18 4.66983 18 7.24142C18.0004 9.7157 17.1218 12.1194 15.5263 14.0094Z" fill="#EFEFEF"/>
</svg>
