<svg width="48" height="47" viewBox="0 0 48 47" fill="none" xmlns="http://www.w3.org/2000/svg">
<path d="M31.8262 25.3597H1.56523C0.70122 25.3597 0 24.6585 0 23.7945C0 22.9305 0.70122 22.2292 1.56523 22.2292H31.8262C32.6902 22.2292 33.3914 22.9305 33.3914 23.7945C33.3914 24.6585 32.6902 25.3597 31.8262 25.3597Z" fill="#FC6652"/>
<path d="M23.4784 33.7092C23.0776 33.7092 22.6771 33.5571 22.3721 33.2503C21.7607 32.6388 21.7607 31.6476 22.3721 31.0358L29.614 23.7943L22.3721 16.5524C21.7607 15.941 21.7607 14.9494 22.3721 14.338C22.9839 13.7265 23.9752 13.7265 24.5866 14.338L32.9344 22.6861C33.5458 23.2975 33.5458 24.2888 32.9344 24.9002L24.5866 33.248C24.2798 33.5571 23.8793 33.7092 23.4784 33.7092Z" fill="#FC6652"/>
<path d="M25.0432 46.7516C15.5452 46.7516 7.15997 41.0375 3.67679 32.1925C3.35962 31.3912 3.7559 30.4813 4.55953 30.1642C5.36087 29.8512 6.27303 30.2414 6.5902 31.0492C9.59761 38.6854 16.8414 43.6211 25.0432 43.6211C35.9746 43.6211 44.8696 34.7261 44.8696 23.7947C44.8696 12.8633 35.9746 3.96835 25.0432 3.96835C16.8414 3.96835 9.59761 8.90402 6.5902 16.5402C6.27074 17.3481 5.36087 17.7382 4.55953 17.4253C3.7559 17.1081 3.35962 16.1982 3.67679 15.3969C7.15997 6.55197 15.5452 0.837891 25.0432 0.837891C37.7007 0.837891 48 11.1372 48 23.7947C48 36.4522 37.7007 46.7516 25.0432 46.7516Z" fill="#FC6652"/>
</svg>
