<svg width="61" height="19" viewBox="0 0 61 19" fill="none" xmlns="http://www.w3.org/2000/svg">
<path d="M24.3568 0.311768L21.2654 18.4531H26.2095L29.3035 0.311768H24.3568Z" fill="#8F8F8F"/>
<path d="M17.1181 0.331696L12.2757 12.7035L11.7594 10.8355C10.8044 8.58469 8.09327 5.35216 4.91034 3.31498L9.33821 18.4438L14.5698 18.4349L22.3561 0.327881L17.1181 0.331696Z" fill="#8F8F8F"/>
<path d="M9.8833 1.63033C9.59591 0.525272 8.76298 0.195915 7.72913 0.156494H0.0636434L6.10352e-05 0.517642C5.96536 1.96478 9.91255 5.45163 11.5504 9.64425L9.8833 1.63033Z" fill="#8F8F8F"/>
<path d="M39.3232 3.78951C40.9407 3.76407 42.1132 4.11759 43.0237 4.48383L43.47 4.69365L44.1389 0.761715C43.1597 0.394209 41.6249 0 39.7098 0C34.8241 0 31.3805 2.46063 31.3538 5.98691C31.322 8.59252 33.8068 10.0473 35.6837 10.9158C37.6103 11.806 38.2563 12.3719 38.2474 13.1666C38.2321 14.3811 36.7112 14.938 35.2908 14.938C33.3108 14.938 32.2592 14.6646 30.6353 13.9881L29.9982 13.6982L29.3026 17.7585C30.4598 18.2659 32.5949 18.7021 34.8114 18.725C40.0086 18.725 43.3861 16.2936 43.4217 12.5257C43.4433 10.4644 42.1246 8.89135 39.2672 7.60063C37.5378 6.7588 36.4798 6.19928 36.49 5.34982C36.49 4.59573 37.3877 3.78951 39.3232 3.78951Z" fill="#8F8F8F"/>
<path d="M56.8275 0.332764H53.0074C51.821 0.332764 50.9385 0.655762 50.4171 1.83839L43.0759 18.4639H48.268C48.268 18.4639 49.1149 16.2283 49.3069 15.7388C49.8754 15.7388 54.92 15.7464 55.6385 15.7464C55.786 16.3797 56.2412 18.4639 56.2412 18.4639H60.8281L56.8275 0.332764ZM50.7299 12.0256C51.1368 10.9841 52.6997 6.9555 52.6997 6.9555C52.673 7.0051 53.1028 5.90639 53.3584 5.22352L53.6916 6.78764C53.6916 6.78764 54.639 11.1189 54.8373 12.0256H50.7299Z" fill="#8F8F8F"/>
</svg>
