<svg width="1536" height="2351" viewBox="0 0 1536 2351" fill="none" xmlns="http://www.w3.org/2000/svg">
<rect opacity="0.2" x="1829.2" y="1577.39" width="560.076" height="533.31" rx="61.9777" transform="rotate(55.7471 1829.2 1577.39)" stroke="#862E22" stroke-width="2"/>
<rect opacity="0.2" x="1909.18" y="1585.02" width="562.076" height="535.31" rx="62.9777" transform="rotate(55.7471 1909.18 1585.02)" fill="#FC6652"/>
<rect opacity="0.8" x="624.316" y="1357.95" width="454.129" height="453.165" rx="49.8359" transform="rotate(24.4834 624.316 1357.95)" stroke="#FFE3DD" stroke-width="2"/>
<rect opacity="0.8" x="636.453" y="1383.84" width="407.768" height="412.128" rx="46.3802" transform="rotate(24.4834 636.453 1383.84)" fill="#FFE3DD"/>
<rect opacity="0.1" x="460.834" y="869.5" width="283.123" height="283.123" rx="35.744" transform="rotate(24.4834 460.834 869.5)" fill="#FC6652"/>
<rect opacity="0.1" y="199.209" width="291.231" height="291.231" rx="34.2625" transform="rotate(-32.2045 0 199.209)" fill="#FC6652"/>
<rect opacity="0.1" x="11.6289" y="155.209" width="291.231" height="291.231" rx="34.2625" transform="rotate(-32.2045 11.6289 155.209)" fill="#FC6652"/>
<rect opacity="0.2" x="-223.018" y="971" width="422.063" height="401.965" rx="47.29" transform="rotate(30 -223.018 971)" fill="#FC6652"/>
<rect x="1528.01" y="289" width="252.016" height="240.015" rx="44.7648" transform="rotate(30 1528.01 289)" fill="#FFEEEC"/>
</svg>
